<svg width="87" xmlns="http://www.w3.org/2000/svg" height="30" id="screenshot-4846f8c9-8139-800e-8006-dbc077a757b4" viewBox="0 0 87 30" xmlns:xlink="http://www.w3.org/1999/xlink" fill="none" version="1.1"><g id="shape-4846f8c9-8139-800e-8006-dbc077a757b4"><defs><clipPath id="frame-clip-4846f8c9-8139-800e-8006-dbc077a757b4-render-1" class="frame-clip frame-clip-def"><rect rx="0" ry="0" x="0" y="0" width="87" height="30" transform="matrix(1.000000, 0.000000, 0.000000, 1.000000, 0.000000, 0.000000)"/></clipPath></defs><g class="frame-container-wrapper" opacity="1"><g class="frame-container-blur"><g class="frame-container-shadows"><g clip-path="url(#frame-clip-4846f8c9-8139-800e-8006-dbc077a757b4-render-1)" fill="none"><g class="fills" id="fills-4846f8c9-8139-800e-8006-dbc077a757b4"><rect rx="0" ry="0" x="0" y="0" width="87" height="30" transform="matrix(1.000000, 0.000000, 0.000000, 1.000000, 0.000000, 0.000000)" class="frame-background"/></g><g class="frame-children"><g id="shape-4846f8c9-8139-800e-8006-dbc077be4f05" rx="0" ry="0" style="opacity: 1;"><g id="shape-4846f8c9-8139-800e-8006-dbc077be4f07" rx="0" ry="0" style="opacity: 1;"><g id="shape-4846f8c9-8139-800e-8006-dbc077be4f09" rx="0" ry="0" style="opacity: 1;"><g id="shape-4846f8c9-8139-800e-8006-dbc077be4f0b" style="opacity: 1;"><g class="fills" id="fills-4846f8c9-8139-800e-8006-dbc077be4f0b"><path d="M60.439453125,9.2919921875C58.5625,9.2919921875,56.154296875,10.064453125,54.05078125,11.705078125L53.78515625,9.59228515625L50.27734375,9.59228515625L50.27734375,29.04931640625L52.37890625,29.04931640625L52.376953125,29.04638671875C53.8203125,29.04638671875,54.037109375,27.76611328125,54.0703125,27.30908203125L54.0703125,14.4384765625C55.263671875,13.4013671875,56.89453125,12.53466796875,59.09375,12.53466796875C61.822265625,12.53466796875,63.47265625,13.92919921875,63.47265625,18.41552734375L63.47265625,27.337890625C63.509765625,27.80126953125,63.736328125,28.99462890625,65.072265625,29.04931640625L67.263671875,29.04931640625L67.263671875,18.41552734375C67.263671875,11.79931640625,64.98828125,9.2919921875,60.439453125,9.2919921875Z" fill-rule="nonzero" style="fill: rgb(255, 255, 255); fill-opacity: 1;"/></g></g></g></g><g id="shape-4846f8c9-8139-800e-8006-dbc077be4f0d" rx="0" ry="0" style="opacity: 1;"><g id="shape-4846f8c9-8139-800e-8006-dbc077be4f0f" rx="0" ry="0" style="opacity: 1;"><g id="shape-4846f8c9-8139-800e-8006-dbc077be4f11" style="opacity: 1;"><g class="fills" id="fills-4846f8c9-8139-800e-8006-dbc077be4f11"><path d="M31.259765625,29.04931640625L32.16015625,29.04931640625C33.4375,28.96435546875,34.01171875,27.9814453125,34.203125,27.5341796875L34.28125,27.32958984375L34.2890625,27.31201171875L34.2890625,27.314453125L41.109375,9.59228515625L38.65625,9.59228515625C37.125,9.63916015625,36.49609375,11.337890625,36.404296875,11.5048828125L31.70703125,25.37255859375L26.91015625,11.1640625C26.669921875,10.61083984375,26.0859375,9.60791015625,24.900390625,9.59228515625L22.302734375,9.59228515625L29.27734375,27.6650390625C29.515625,28.150390625,30.09375,28.9716796875,31.259765625,29.04931640625Z" fill-rule="nonzero" style="fill: rgb(255, 255, 255); fill-opacity: 1;"/></g></g></g></g><g id="shape-4846f8c9-8139-800e-8006-dbc077be4f13" rx="0" ry="0" style="opacity: 1;"><g id="shape-4846f8c9-8139-800e-8006-dbc077be4f15" rx="0" ry="0" style="opacity: 1;"><g id="shape-4846f8c9-8139-800e-8006-dbc077be4f17" style="opacity: 1;"><g class="fills" id="fills-4846f8c9-8139-800e-8006-dbc077be4f17"><path d="M45.0703125,6.162109375C46.509765625,6.162109375,47.572265625,5.36962890625,47.572265625,3.93701171875C47.572265625,2.48583984375,46.509765625,1.712890625,45.0703125,1.712890625C43.68359375,1.712890625,42.642578125,2.48583984375,42.642578125,3.93701171875C42.642578125,5.36962890625,43.68359375,6.162109375,45.0703125,6.162109375Z" fill-rule="nonzero" style="fill: rgb(255, 255, 255); fill-opacity: 1;"/></g></g></g></g><g id="shape-4846f8c9-8139-800e-8006-dbc077be4f19" rx="0" ry="0" style="opacity: 1;"><g id="shape-4846f8c9-8139-800e-8006-dbc077beb484" rx="0" ry="0" style="opacity: 1;"><g id="shape-4846f8c9-8139-800e-8006-dbc077beb486" style="opacity: 1;"><g class="fills" id="fills-4846f8c9-8139-800e-8006-dbc077beb486"><path d="M45.236328125,29.04638671875C46.65234375,29.04638671875,46.888671875,27.80908203125,46.92578125,27.33349609375L46.92578125,9.59228515625L45.1796875,9.59228515625C43.66796875,9.7080078125,43.201171875,11.13916015625,43.1328125,11.48828125L43.1328125,29.04931640625L45.23828125,29.04931640625L45.236328125,29.04638671875L45.236328125,29.04638671875Z" fill-rule="nonzero" style="fill: rgb(255, 255, 255); fill-opacity: 1;"/></g></g></g></g><g id="shape-4846f8c9-8139-800e-8006-dbc077beb488" rx="0" ry="0" style="opacity: 1;"><g id="shape-4846f8c9-8139-800e-8006-dbc077beb48a" rx="0" ry="0" style="opacity: 1;"><g id="shape-4846f8c9-8139-800e-8006-dbc077beb48c" style="opacity: 1;"><g class="fills" id="fills-4846f8c9-8139-800e-8006-dbc077beb48c"><path d="M83.111328125,23.9384765625C82.63671875,24.82568359375,81.099609375,26.427734375,78.654296875,26.427734375C76.759765625,26.427734375,73.783203125,25.18408203125,73.783203125,19.71728515625C73.783203125,14.39990234375,76.703125,12.2138671875,81.177734375,12.2138671875C81.78515625,12.2138671875,82.732421875,12.2900390625,83.111328125,12.36376953125L83.111328125,23.9384765625L83.111328125,23.9384765625ZM81.3671875,9.2919921875C75.7734375,9.2919921875,69.83984375,12.2900390625,69.83984375,19.71728515625C69.83984375,27.2763671875,74.693359375,29.33056640625,77.8984375,29.33056640625C80.759765625,29.33056640625,82.751953125,27.615234375,83.337890625,26.80517578125L83.33984375,26.8349609375L83.34375,26.8271484375C83.34375,26.8271484375,83.7890625,28.97607421875,85.751953125,29.04833984375L86.90234375,29.04833984375L86.90234375,9.59228515625C85.330078125,9.44189453125,83.90625,9.2919921875,81.3671875,9.2919921875Z" fill-rule="nonzero" style="fill: rgb(255, 255, 255); fill-opacity: 1;"/></g></g></g></g><g id="shape-4846f8c9-8139-800e-8006-dbc077beb48e" rx="0" ry="0" style="opacity: 1;"><g id="shape-4846f8c9-8139-800e-8006-dbc077beb490" rx="0" ry="0" style="opacity: 1;"><g id="shape-4846f8c9-8139-800e-8006-dbc077beb492" style="opacity: 1;"><g class="fills" id="fills-4846f8c9-8139-800e-8006-dbc077beb492"><path d="M21.583984375,22.33154296875C20.0859375,21.81689453125,18.3203125,20.97021484375,16.560546875,19.57568359375L16.560546875,23.95849609375C17.919921875,25.93115234375,19.591796875,27.7373046875,21.583984375,28.8291015625L21.583984375,22.33154296875ZM15.990234375,19.10205078125C14.623046875,17.919921875,13.27734375,16.392578125,12.083984375,14.4140625C12.083984375,14.4140625,13.369140625,18.93408203125,15.990234375,23.0908203125L15.990234375,19.10205078125L15.990234375,19.10205078125ZM22.15625,29.1171875C23.224609375,29.61279296875,24.380859375,29.90185546875,25.626953125,29.90185546875L25.59765625,23.1259765625C25.59765625,23.1259765625,24.185546875,23.12939453125,22.15625,22.51513671875L22.15625,29.1171875ZM0,28.74951171875C0,28.74951171875,4.146484375,29.96630859375,5.84765625,27.58642578125C7.828125,24.80908203125,14.67578125,4.14453125,14.67578125,4.14453125L9.904296875,4.1474609375L0,28.74951171875ZM20.14453125,19.96044921875C17.91015625,18.8076171875,15.3046875,16.77587890625,13.142578125,13.1904296875L12.591796875,12.27587890625C13.693359375,9.1220703125,14.611328125,6.39013671875,15.041015625,5.1044921875L20.14453125,19.96044921875L20.14453125,19.96044921875Z" fill-rule="nonzero" style="fill: rgb(255, 255, 255); fill-opacity: 1;"/></g></g></g></g><g id="shape-4846f8c9-8139-800e-8006-dbc077beb494" rx="0" ry="0" style="opacity: 1;"><g id="shape-4846f8c9-8139-800e-8006-dbc077beb496" rx="0" ry="0" style="opacity: 1;"><g id="shape-4846f8c9-8139-800e-8006-dbc077beb498" style="opacity: 1;"><g class="fills" id="fills-4846f8c9-8139-800e-8006-dbc077beb498"><path d="M55.2890625,3.4775390625L52.9453125,3.4775390625L52.9453125,5.921875L52.193359375,5.921875L52.193359375,0.3955078125L55.677734375,0.3955078125L55.677734375,0.98388671875L52.9453125,0.98388671875L52.9453125,2.88916015625L55.2890625,2.88916015625L55.2890625,3.4775390625L55.2890625,3.4775390625Z" fill-rule="nonzero" style="fill: rgb(255, 255, 255); fill-opacity: 1;"/></g></g></g></g><g id="shape-4846f8c9-8139-800e-8006-dbc077bee06e" rx="0" ry="0" style="opacity: 1;"><g id="shape-4846f8c9-8139-800e-8006-dbc077bee070" rx="0" ry="0" style="opacity: 1;"><g id="shape-4846f8c9-8139-800e-8006-dbc077bee072" style="opacity: 1;"><g class="fills" id="fills-4846f8c9-8139-800e-8006-dbc077bee072"><path d="M58.826171875,5.31494140625C58.6953125,5.53564453125,58.529296875,5.705078125,58.32421875,5.82373046875C58.12109375,5.94189453125,57.88671875,6.001953125,57.62109375,6.001953125C57.16796875,6.001953125,56.818359375,5.85888671875,56.564453125,5.57275390625C56.314453125,5.2861328125,56.1875,4.84130859375,56.1875,4.23681640625L56.1875,1.81494140625L56.939453125,1.81494140625L56.939453125,4.24365234375C56.939453125,4.68212890625,57.00390625,4.98388671875,57.134765625,5.1484375C57.265625,5.31201171875,57.466796875,5.39453125,57.7421875,5.39453125C58.0078125,5.39453125,58.23046875,5.33984375,58.404296875,5.23291015625C58.578125,5.12548828125,58.708984375,4.9736328125,58.798828125,4.775390625L58.798828125,1.81494140625L59.55078125,1.81494140625L59.55078125,5.921875L58.875,5.921875L58.826171875,5.31494140625L58.826171875,5.31494140625Z" fill-rule="nonzero" style="fill: rgb(255, 255, 255); fill-opacity: 1;"/></g></g></g></g><g id="shape-4846f8c9-8139-800e-8006-dbc077bee074" rx="0" ry="0" style="opacity: 1;"><g id="shape-4846f8c9-8139-800e-8006-dbc077bee076" rx="0" ry="0" style="opacity: 1;"><g id="shape-4846f8c9-8139-800e-8006-dbc077bee078" style="opacity: 1;"><g class="fills" id="fills-4846f8c9-8139-800e-8006-dbc077bee078"><path d="M61.19921875,1.814453125L61.25390625,2.42626953125C61.390625,2.20849609375,61.5625,2.03955078125,61.771484375,1.9189453125C61.978515625,1.7998046875,62.212890625,1.7392578125,62.478515625,1.7392578125C62.923828125,1.7392578125,63.26953125,1.869140625,63.51171875,2.12841796875C63.7578125,2.38818359375,63.87890625,2.78759765625,63.87890625,3.3291015625L63.87890625,5.921875L63.126953125,5.921875L63.126953125,3.34423828125C63.126953125,2.98291015625,63.0546875,2.7265625,62.912109375,2.57421875C62.767578125,2.421875,62.548828125,2.34619140625,62.251953125,2.34619140625C62.021484375,2.34619140625,61.82421875,2.39208984375,61.6640625,2.48486328125C61.501953125,2.57666015625,61.375,2.70703125,61.279296875,2.87353515625L61.279296875,5.921875L60.52734375,5.921875L60.52734375,1.814453125L61.19921875,1.814453125L61.19921875,1.814453125Z" fill-rule="nonzero" style="fill: rgb(255, 255, 255); fill-opacity: 1;"/></g></g></g></g><g id="shape-4846f8c9-8139-800e-8006-dbc077bee07a" rx="0" ry="0" style="opacity: 1;"><g id="shape-4846f8c9-8139-800e-8006-dbc077bee07c" rx="0" ry="0" style="opacity: 1;"><g id="shape-4846f8c9-8139-800e-8006-dbc077bee07e" style="opacity: 1;"><g class="fills" id="fills-4846f8c9-8139-800e-8006-dbc077bee07e"><path d="M65.43359375,4.02392578125C65.43359375,4.43896484375,65.51953125,4.77099609375,65.689453125,5.01953125C65.859375,5.26953125,66.125,5.39453125,66.484375,5.39453125C66.70703125,5.39453125,66.89453125,5.3427734375,67.048828125,5.2421875C67.201171875,5.14111328125,67.326171875,4.99951171875,67.421875,4.81787109375L67.421875,2.89990234375C67.326171875,2.73095703125,67.19921875,2.5966796875,67.046875,2.49755859375C66.892578125,2.39697265625,66.70703125,2.3466796875,66.490234375,2.3466796875C66.130859375,2.3466796875,65.86328125,2.49462890625,65.69140625,2.79052734375C65.51953125,3.0859375,65.43359375,3.470703125,65.43359375,3.943359375L65.43359375,4.02392578125L65.43359375,4.02392578125ZM64.681640625,3.943359375C64.681640625,3.2841796875,64.82421875,2.75146484375,65.107421875,2.3466796875C65.390625,1.94287109375,65.7890625,1.7392578125,66.30078125,1.7392578125C66.54296875,1.7392578125,66.755859375,1.78271484375,66.943359375,1.87158203125C67.12890625,1.9599609375,67.2890625,2.08935546875,67.421875,2.2587890625L67.421875,0.0009765625L68.173828125,0.0009765625L68.173828125,5.921875L67.59765625,5.921875L67.482421875,5.40185546875C67.34765625,5.5986328125,67.181640625,5.748046875,66.984375,5.85009765625C66.78515625,5.95068359375,66.5546875,6.00146484375,66.29296875,6.00146484375C65.7890625,6.00146484375,65.39453125,5.81982421875,65.109375,5.45654296875C64.82421875,5.09423828125,64.681640625,4.61669921875,64.681640625,4.02392578125L64.681640625,3.943359375L64.681640625,3.943359375Z" fill-rule="nonzero" style="fill: rgb(255, 255, 255); fill-opacity: 1;"/></g></g></g></g><g id="shape-4846f8c9-8139-800e-8006-dbc077bee080" rx="0" ry="0" style="opacity: 1;"><g id="shape-4846f8c9-8139-800e-8006-dbc077bee082" rx="0" ry="0" style="opacity: 1;"><g id="shape-4846f8c9-8139-800e-8006-dbc077bee084" style="opacity: 1;"><g class="fills" id="fills-4846f8c9-8139-800e-8006-dbc077bee084"><path d="M70.46875,5.375C70.7421875,5.375,70.986328125,5.30615234375,71.20703125,5.1650390625C71.423828125,5.02880859375,71.56640625,4.8671875,71.634765625,4.6875L71.634765625,4.02099609375L70.7890625,4.02099609375C70.486328125,4.02099609375,70.244140625,4.09619140625,70.0625,4.2470703125C69.880859375,4.400390625,69.791015625,4.578125,69.791015625,4.783203125C69.791015625,4.96484375,69.84765625,5.109375,69.9609375,5.21630859375C70.078125,5.3212890625,70.24609375,5.375,70.46875,5.375ZM71.71875,5.921875C71.69140625,5.79736328125,71.671875,5.6884765625,71.658203125,5.59326171875C71.64453125,5.49853515625,71.63671875,5.40283203125,71.634765625,5.306640625C71.494140625,5.5048828125,71.310546875,5.66943359375,71.0859375,5.8017578125C70.861328125,5.935546875,70.619140625,6.00146484375,70.359375,6.00146484375C69.9296875,6.00146484375,69.6015625,5.89208984375,69.376953125,5.67236328125C69.150390625,5.453125,69.0390625,5.15185546875,69.0390625,4.76806640625C69.0390625,4.375,69.197265625,4.06884765625,69.517578125,3.84765625C69.8359375,3.62646484375,70.26953125,3.51513671875,70.81640625,3.51513671875L71.634765625,3.51513671875L71.634765625,3.109375C71.634765625,2.869140625,71.560546875,2.67822265625,71.412109375,2.53759765625C71.265625,2.39794921875,71.0546875,2.32763671875,70.78515625,2.32763671875C70.541015625,2.32763671875,70.34375,2.38818359375,70.1953125,2.50927734375C70.044921875,2.63134765625,69.96875,2.77685546875,69.96875,2.9462890625L69.255859375,2.953125L69.25,2.93115234375C69.23046875,2.6328125,69.37109375,2.359375,69.669921875,2.111328125C69.96875,1.86376953125,70.35546875,1.7392578125,70.828125,1.7392578125C71.296875,1.7392578125,71.671875,1.85791015625,71.95703125,2.09423828125C72.244140625,2.3310546875,72.384765625,2.6708984375,72.384765625,3.1171875L72.384765625,5.09423828125C72.384765625,5.2412109375,72.392578125,5.3837890625,72.40625,5.51953125C72.423828125,5.65576171875,72.451171875,5.7900390625,72.4921875,5.921875L71.71875,5.921875L71.71875,5.921875Z" fill-rule="nonzero" style="fill: rgb(255, 255, 255); fill-opacity: 1;"/></g></g></g></g><g id="shape-4846f8c9-8139-800e-8006-dbc077bf34bc" rx="0" ry="0" style="opacity: 1;"><g id="shape-4846f8c9-8139-800e-8006-dbc077bf34be" rx="0" ry="0" style="opacity: 1;"><g id="shape-4846f8c9-8139-800e-8006-dbc077bf34c0" style="opacity: 1;"><g class="fills" id="fills-4846f8c9-8139-800e-8006-dbc077bf34c0"><path d="M75.001953125,5.416015625C75.232421875,5.416015625,75.435546875,5.33935546875,75.609375,5.1865234375C75.78125,5.0341796875,75.869140625,4.8466796875,75.869140625,4.623046875L76.546875,4.623046875L76.55859375,4.64599609375C76.5703125,4.99951171875,76.416015625,5.31396484375,76.1015625,5.58935546875C75.78515625,5.86376953125,75.41796875,6.0009765625,75.001953125,6.0009765625C74.421875,6.0009765625,73.974609375,5.8046875,73.658203125,5.41357421875C73.34375,5.02099609375,73.185546875,4.53271484375,73.185546875,3.947265625L73.185546875,3.78759765625C73.185546875,3.2099609375,73.34375,2.72216796875,73.66015625,2.330078125C73.9765625,1.935546875,74.423828125,1.73876953125,75.001953125,1.73876953125C75.462890625,1.73876953125,75.83984375,1.88037109375,76.1328125,2.16357421875C76.427734375,2.447265625,76.5703125,2.79638671875,76.55859375,3.20703125L76.55078125,3.23095703125L75.869140625,3.23095703125C75.869140625,2.97998046875,75.787109375,2.7666015625,75.62109375,2.5908203125C75.458984375,2.41455078125,75.251953125,2.3271484375,75.001953125,2.3271484375C74.634765625,2.3271484375,74.36328125,2.46923828125,74.193359375,2.75390625C74.02734375,3.03857421875,73.94140625,3.38232421875,73.94140625,3.78759765625L73.94140625,3.947265625C73.94140625,4.3603515625,74.0234375,4.70849609375,74.19140625,4.99169921875C74.357421875,5.275390625,74.626953125,5.416015625,75.001953125,5.416015625Z" fill-rule="nonzero" style="fill: rgb(255, 255, 255); fill-opacity: 1;"/></g></g></g></g><g id="shape-4846f8c9-8139-800e-8006-dbc077bf34c2" rx="0" ry="0" style="opacity: 1;"><g id="shape-4846f8c9-8139-800e-8006-dbc077bf34c4" rx="0" ry="0" style="opacity: 1;"><g id="shape-4846f8c9-8139-800e-8006-dbc077bf34c6" style="opacity: 1;"><g class="fills" id="fills-4846f8c9-8139-800e-8006-dbc077bf34c6"><path d="M78.1484375,5.921875L77.396484375,5.921875L77.396484375,1.81494140625L78.1484375,1.81494140625L78.1484375,5.921875ZM78.1484375,0.763671875L77.396484375,0.763671875L77.396484375,0.0009765625L78.1484375,0.0009765625L78.1484375,0.763671875Z" fill-rule="nonzero" style="fill: rgb(255, 255, 255); fill-opacity: 1;"/></g></g></g></g><g id="shape-4846f8c9-8139-800e-8006-dbc077bf34c8" rx="0" ry="0" style="opacity: 1;"><g id="shape-4846f8c9-8139-800e-8006-dbc077bf34ca" rx="0" ry="0" style="opacity: 1;"><g id="shape-4846f8c9-8139-800e-8006-dbc077bf34cc" style="opacity: 1;"><g class="fills" id="fills-4846f8c9-8139-800e-8006-dbc077bf34cc"><path d="M81.224609375,0.07373046875L82.103515625,0.07373046875L82.111328125,0.09521484375L81.083984375,1.08154296875L80.51953125,1.08154296875L81.224609375,0.07373046875ZM79.763671875,3.9150390625C79.763671875,4.349609375,79.85546875,4.70947265625,80.0390625,4.99267578125C80.224609375,5.275390625,80.5,5.41650390625,80.86328125,5.41650390625C81.22265625,5.41650390625,81.494140625,5.275390625,81.6796875,4.99267578125C81.865234375,4.70947265625,81.958984375,4.349609375,81.958984375,3.9150390625L81.958984375,3.83154296875C81.958984375,3.400390625,81.865234375,3.0419921875,81.677734375,2.7568359375C81.48828125,2.47021484375,81.21484375,2.328125,80.85546875,2.328125C80.49609375,2.328125,80.224609375,2.47021484375,80.0390625,2.7568359375C79.85546875,3.0419921875,79.763671875,3.400390625,79.763671875,3.83154296875L79.763671875,3.9150390625L79.763671875,3.9150390625ZM79.01171875,3.83154296875C79.01171875,3.2236328125,79.177734375,2.72314453125,79.5078125,2.330078125C79.83984375,1.9365234375,80.2890625,1.73974609375,80.85546875,1.73974609375C81.427734375,1.73974609375,81.880859375,1.93603515625,82.212890625,2.328125C82.54296875,2.72021484375,82.7109375,3.22021484375,82.7109375,3.83154296875L82.7109375,3.9150390625C82.7109375,4.52685546875,82.544921875,5.0283203125,82.212890625,5.41650390625C81.8828125,5.806640625,81.43359375,6.001953125,80.86328125,6.001953125C80.29296875,6.001953125,79.841796875,5.806640625,79.509765625,5.41552734375C79.177734375,5.02392578125,79.01171875,4.5234375,79.01171875,3.9150390625L79.01171875,3.83154296875L79.01171875,3.83154296875Z" fill-rule="nonzero" style="fill: rgb(255, 255, 255); fill-opacity: 1;"/></g></g></g></g><g id="shape-4846f8c9-8139-800e-8006-dbc077bf34ce" rx="0" ry="0" style="opacity: 1;"><g id="shape-4846f8c9-8139-800e-8006-dbc077bf34d0" rx="0" ry="0" style="opacity: 1;"><g id="shape-4846f8c9-8139-800e-8006-dbc077bf50f9" style="opacity: 1;"><g class="fills" id="fills-4846f8c9-8139-800e-8006-dbc077bf50f9"><path d="M84.18359375,1.814453125L84.23828125,2.42626953125C84.375,2.20849609375,84.546875,2.03955078125,84.755859375,1.9189453125C84.962890625,1.7998046875,85.197265625,1.7392578125,85.462890625,1.7392578125C85.908203125,1.7392578125,86.251953125,1.869140625,86.49609375,2.12841796875C86.740234375,2.38818359375,86.86328125,2.78759765625,86.86328125,3.3291015625L86.86328125,5.921875L86.111328125,5.921875L86.111328125,3.34423828125C86.111328125,2.98291015625,86.041015625,2.7265625,85.896484375,2.57421875C85.751953125,2.421875,85.533203125,2.34619140625,85.23828125,2.34619140625C85.005859375,2.34619140625,84.80859375,2.39208984375,84.6484375,2.48486328125C84.486328125,2.57666015625,84.359375,2.70703125,84.263671875,2.87353515625L84.263671875,5.921875L83.51171875,5.921875L83.51171875,1.814453125L84.18359375,1.814453125L84.18359375,1.814453125Z" fill-rule="nonzero" style="fill: rgb(255, 255, 255); fill-opacity: 1;"/></g></g></g></g></g></g></g></g></g></g></g></svg>