<svg xmlns="http://www.w3.org/2000/svg" viewBox="0 0 576 512"><path fill="currentColor" d="M224 64l0 64-96 0 0-32c0-17.7 14.3-32 32-32l64 0zm32 0l256 0c17.7 0 32 14.3 32 32l0 32-288 0 0-64zm288 96l0 160c0 17.7-14.3 32-32 32l-352 0c-17.7 0-32-14.3-32-32l0-160 416 0zM160 32c-35.3 0-64 28.7-64 64l0 224c0 35.3 28.7 64 64 64l352 0c35.3 0 64-28.7 64-64l0-224c0-35.3-28.7-64-64-64L160 32zM16 160c-8.8 0-16 7.2-16 16L0 416c0 35.3 28.7 64 64 64l400 0c8.8 0 16-7.2 16-16s-7.2-16-16-16L64 448c-17.7 0-32-14.3-32-32l0-240c0-8.8-7.2-16-16-16z"/></svg>
