<svg xmlns="http://www.w3.org/2000/svg" viewBox="0 0 512 512"><path fill="currentColor" d="M256 48a208 208 0 1 1 0 416 208 208 0 1 1 0-416zm0 464a256 256 0 1 0 0-512 256 256 0 1 0 0 512zm24-368c0-13.3-10.7-24-24-24s-24 10.7-24 24l0 8.3c-31.5 3.3-56 29.9-56 62.2 0 31.1 22.9 57.5 53.7 61.9l45.8 6.5c7.2 1 12.5 7.2 12.5 14.4 0 8-6.5 14.6-14.6 14.6L208 312c-13.3 0-24 10.7-24 24s10.7 24 24 24l24 0 0 8c0 13.3 10.7 24 24 24s24-10.7 24-24l0-8.3c31.5-3.3 56-29.9 56-62.2 0-31.1-22.9-57.5-53.7-61.9L236.5 229c-7.2-1-12.5-7.2-12.5-14.4 0-8 6.5-14.6 14.6-14.6l57.4 0c13.3 0 24-10.7 24-24s-10.7-24-24-24l-16 0 0-8z"/></svg>
