<svg width="180" xmlns="http://www.w3.org/2000/svg" height="32" id="screenshot-1bcb8fad-d44b-8040-8008-257af9e9f41f" viewBox="0 0 180 32" xmlns:xlink="http://www.w3.org/1999/xlink" fill="none" version="1.1"><g id="shape-1bcb8fad-d44b-8040-8008-257af9e9f41f"><g class="fills" id="fills-1bcb8fad-d44b-8040-8008-257af9e9f41f"><path d="M0.001953125,0L180,0L180,32L0.001953125,32ZM16,3C23.1796875,3,29,8.8203125,29,16C29,23.1796875,23.1796875,29,16,29C8.8203125,29,3,23.1796875,3,16C3,8.8203125,8.8203125,3,16,3ZM16,32C24.8359375,32,32,24.83642578125,32,16C32,7.163330078125,24.8359375,0,16,0C7.1640625,0,0,7.163330078125,0,16C0,24.83642578125,7.1640625,32,16,32ZM17.5,9C17.5,8.168701171875,16.83203125,7.5,16,7.5C15.16796875,7.5,14.5,8.168701171875,14.5,9L14.5,9.518798828125C12.53125,9.72509765625,11,11.387451171875,11,13.40625C11,15.35009765625,12.431640625,17,14.35546875,17.27490234375L17.21875,17.68115234375C17.66796875,17.74365234375,18,18.13134765625,18,18.581298828125C18,19.081298828125,17.59375,19.49365234375,17.087890625,19.49365234375L13,19.5C12.16796875,19.5,11.5,20.168701171875,11.5,21C11.5,21.831298828125,12.16796875,22.5,13,22.5L14.5,22.5L14.5,23C14.5,23.831298828125,15.16796875,24.5,16,24.5C16.83203125,24.5,17.5,23.831298828125,17.5,23L17.5,22.481201171875C19.46875,22.27490234375,21,20.612548828125,21,18.59375C21,16.64990234375,19.568359375,15,17.64453125,14.72509765625L14.78125,14.3125C14.33203125,14.25,14,13.862548828125,14,13.41259765625C14,12.91259765625,14.40625,12.5,14.912109375,12.5L18.5,12.5C19.33203125,12.5,20,11.831298828125,20,11C20,10.168701171875,19.33203125,9.5,18.5,9.5L17.5,9.5L17.5,9ZM53,3C60.1796875,3,66,8.8203125,66,16C66,23.1796875,60.1796875,29,53,29C45.8203125,29,40,23.1796875,40,16C40,8.8203125,45.8203125,3,53,3ZM53,32C61.8359375,32,69,24.83642578125,69,16C69,7.163330078125,61.8359375,0,53,0C44.1640625,0,37,7.163330078125,37,16C37,24.83642578125,44.1640625,32,53,32ZM54.5,9C54.5,8.168701171875,53.83203125,7.5,53,7.5C52.16796875,7.5,51.5,8.168701171875,51.5,9L51.5,9.518798828125C49.53125,9.72509765625,48,11.387451171875,48,13.40625C48,15.35009765625,49.431640625,17,51.35546875,17.27490234375L54.21875,17.68115234375C54.66796875,17.74365234375,55,18.13134765625,55,18.581298828125C55,19.081298828125,54.59375,19.49365234375,54.087890625,19.49365234375L50,19.5C49.16796875,19.5,48.5,20.168701171875,48.5,21C48.5,21.831298828125,49.16796875,22.5,50,22.5L51.5,22.5L51.5,23C51.5,23.831298828125,52.16796875,24.5,53,24.5C53.83203125,24.5,54.5,23.831298828125,54.5,23L54.5,22.481201171875C56.46875,22.27490234375,58,20.612548828125,58,18.59375C58,16.64990234375,56.568359375,15,54.64453125,14.72509765625L51.78125,14.3125C51.33203125,14.25,51,13.862548828125,51,13.41259765625C51,12.91259765625,51.40625,12.5,51.912109375,12.5L55.5,12.5C56.33203125,12.5,57,11.831298828125,57,11C57,10.168701171875,56.33203125,9.5,55.5,9.5L54.5,9.5L54.5,9ZM90,3C97.1796875,3,103,8.8203125,103,16C103,23.1796875,97.1796875,29,90,29C82.8203125,29,77,23.1796875,77,16C77,8.8203125,82.8203125,3,90,3ZM90,32C98.8359375,32,106,24.83642578125,106,16C106,7.163330078125,98.8359375,0,90,0C81.1640625,0,74,7.163330078125,74,16C74,24.83642578125,81.1640625,32,90,32ZM91.5,9C91.5,8.168701171875,90.83203125,7.5,90,7.5C89.16796875,7.5,88.5,8.168701171875,88.5,9L88.5,9.518798828125C86.53125,9.72509765625,85,11.387451171875,85,13.40625C85,15.35009765625,86.431640625,17,88.35546875,17.27490234375L91.21875,17.68115234375C91.66796875,17.74365234375,92,18.13134765625,92,18.581298828125C92,19.081298828125,91.59375,19.49365234375,91.087890625,19.49365234375L87,19.5C86.16796875,19.5,85.5,20.168701171875,85.5,21C85.5,21.831298828125,86.16796875,22.5,87,22.5L88.5,22.5L88.5,23C88.5,23.831298828125,89.16796875,24.5,90,24.5C90.83203125,24.5,91.5,23.831298828125,91.5,23L91.5,22.481201171875C93.46875,22.27490234375,95,20.612548828125,95,18.59375C95,16.64990234375,93.568359375,15,91.64453125,14.72509765625L88.78125,14.3125C88.33203125,14.25,88,13.862548828125,88,13.41259765625C88,12.91259765625,88.40625,12.5,88.912109375,12.5L92.5,12.5C93.33203125,12.5,94,11.831298828125,94,11C94,10.168701171875,93.33203125,9.5,92.5,9.5L91.5,9.5L91.5,9ZM127,3C134.177734375,3,139.998046875,8.8203125,139.998046875,16C139.998046875,23.1796875,134.177734375,29,127,29C119.8203125,29,114,23.1796875,114,16C114,8.8203125,119.8203125,3,127,3ZM127,32C135.833984375,32,142.998046875,24.83642578125,142.998046875,16C142.998046875,7.163330078125,135.833984375,0,127,0C118.1640625,0,111,7.163330078125,111,16C111,24.83642578125,118.1640625,32,127,32ZM128.5,9C128.5,8.168701171875,127.83203125,7.5,127,7.5C126.16796875,7.5,125.5,8.168701171875,125.5,9L125.5,9.518798828125C123.53125,9.72509765625,122,11.387451171875,122,13.40625C122,15.35009765625,123.431640625,17,125.35546875,17.27490234375L128.21875,17.68115234375C128.66796875,17.74365234375,129,18.13134765625,129,18.581298828125C129,19.081298828125,128.59375,19.49365234375,128.087890625,19.49365234375L124,19.5C123.16796875,19.5,122.5,20.168701171875,122.5,21C122.5,21.831298828125,123.16796875,22.5,124,22.5L125.5,22.5L125.5,23C125.5,23.831298828125,126.16796875,24.5,127,24.5C127.83203125,24.5,128.5,23.831298828125,128.5,23L128.5,22.481201171875C130.46875,22.27490234375,131.998046875,20.612548828125,131.998046875,18.59375C131.998046875,16.64990234375,130.568359375,15,128.64453125,14.72509765625L125.78125,14.3125C125.33203125,14.25,125,13.862548828125,125,13.41259765625C125,12.91259765625,125.40625,12.5,125.912109375,12.5L129.5,12.5C130.33203125,12.5,131,11.831298828125,131,11C131,10.168701171875,130.33203125,9.5,129.5,9.5L128.5,9.5L128.5,9ZM164,3C171.177734375,3,176.998046875,8.8203125,176.998046875,16C176.998046875,23.1796875,171.177734375,29,164,29C156.8203125,29,151,23.1796875,151,16C151,8.8203125,156.8203125,3,164,3ZM164,32C172.833984375,32,179.998046875,24.83642578125,179.998046875,16C179.998046875,7.163330078125,172.833984375,0,164,0C155.1640625,0,148,7.163330078125,148,16C148,24.83642578125,155.1640625,32,164,32ZM165.5,9C165.5,8.168701171875,164.83203125,7.5,164,7.5C163.16796875,7.5,162.5,8.168701171875,162.5,9L162.5,9.518798828125C160.53125,9.72509765625,159,11.387451171875,159,13.40625C159,15.35009765625,160.431640625,17,162.35546875,17.27490234375L165.21875,17.68115234375C165.66796875,17.74365234375,166,18.13134765625,166,18.581298828125C166,19.081298828125,165.59375,19.49365234375,165.087890625,19.49365234375L161,19.5C160.16796875,19.5,159.5,20.168701171875,159.5,21C159.5,21.831298828125,160.16796875,22.5,161,22.5L162.5,22.5L162.5,23C162.5,23.831298828125,163.16796875,24.5,164,24.5C164.83203125,24.5,165.5,23.831298828125,165.5,23L165.5,22.481201171875C167.46875,22.27490234375,168.998046875,20.612548828125,168.998046875,18.59375C168.998046875,16.64990234375,167.568359375,15,165.64453125,14.72509765625L162.78125,14.3125C162.33203125,14.25,162,13.862548828125,162,13.41259765625C162,12.91259765625,162.40625,12.5,162.912109375,12.5L166.5,12.5C167.33203125,12.5,168,11.831298828125,168,11C168,10.168701171875,167.33203125,9.5,166.5,9.5L165.5,9.5L165.5,9ZZ" style="fill: #FFF; fill-opacity: 1;"/></g></g></svg>