<svg width="37" xmlns="http://www.w3.org/2000/svg" height="32" id="screenshot-0d6d378b-0f0d-8086-8008-25b7a552b1e4" viewBox="0 0 37 32" xmlns:xlink="http://www.w3.org/1999/xlink" fill="none" version="1.1"><g id="shape-0d6d378b-0f0d-8086-8008-25b7a552b1e4"><defs><clipPath id="frame-clip-0d6d378b-0f0d-8086-8008-25b7a552b1e4-render-1" class="frame-clip frame-clip-def"><rect rx="0" ry="0" x="0" y="0" width="37" height="32" transform="matrix(1.000000, 0.000000, 0.000000, 1.000000, 0.000000, 0.000000)"/></clipPath></defs><g class="frame-container-wrapper"><g class="frame-container-blur"><g class="frame-container-shadows"><g clip-path="url(#frame-clip-0d6d378b-0f0d-8086-8008-25b7a552b1e4-render-1)" fill="none"><g class="fills" id="fills-0d6d378b-0f0d-8086-8008-25b7a552b1e4"><rect rx="0" ry="0" x="0" y="0" width="37" height="32" transform="matrix(1.000000, 0.000000, 0.000000, 1.000000, 0.000000, 0.000000)" class="frame-background"/></g><g class="frame-children"><g id="shape-0d6d378b-0f0d-8086-8008-25b7a552b1e5"><g class="fills" id="fills-0d6d378b-0f0d-8086-8008-25b7a552b1e5"><path d="M-0.00151824951171875,0L37.00043487548828,0L37.00043487548828,32L-0.00151824951171875,32ZM18.49848175048828,3C25.67816925048828,3,31.49848175048828,8.8203125,31.49848175048828,16C31.49848175048828,23.1796875,25.67816925048828,29,18.49848175048828,29C11.318794250488281,29,5.498481750488281,23.1796875,5.498481750488281,16C5.498481750488281,8.8203125,11.318794250488281,3,18.49848175048828,3ZM18.49848175048828,32C27.33441925048828,32,34.49848175048828,24.83642578125,34.49848175048828,16C34.49848175048828,7.163330078125,27.33441925048828,0,18.49848175048828,0C9.662544250488281,0,2.4984817504882812,7.163330078125,2.4984817504882812,16C2.4984817504882812,24.83642578125,9.662544250488281,32,18.49848175048828,32ZM19.99848175048828,9C19.99848175048828,8.168701171875,19.33051300048828,7.5,18.49848175048828,7.5C17.66645050048828,7.5,16.99848175048828,8.168701171875,16.99848175048828,9L16.99848175048828,9.518798828125C15.029731750488281,9.72509765625,13.498481750488281,11.387451171875,13.498481750488281,13.40625C13.498481750488281,15.35009765625,14.930122375488281,17,16.85395050048828,17.27490234375L19.71723175048828,17.68115234375C20.16645050048828,17.74365234375,20.49848175048828,18.13134765625,20.49848175048828,18.581298828125C20.49848175048828,19.081298828125,20.09223175048828,19.49365234375,19.58637237548828,19.49365234375L15.498481750488281,19.5C14.666450500488281,19.5,13.998481750488281,20.168701171875,13.998481750488281,21C13.998481750488281,21.831298828125,14.666450500488281,22.5,15.498481750488281,22.5L16.99848175048828,22.5L16.99848175048828,23C16.99848175048828,23.831298828125,17.66645050048828,24.5,18.49848175048828,24.5C19.33051300048828,24.5,19.99848175048828,23.831298828125,19.99848175048828,23L19.99848175048828,22.481201171875C21.96723175048828,22.27490234375,23.49848175048828,20.612548828125,23.49848175048828,18.59375C23.49848175048828,16.64990234375,22.06684112548828,15,20.14301300048828,14.72509765625L17.27973175048828,14.3125C16.83051300048828,14.25,16.49848175048828,13.862548828125,16.49848175048828,13.41259765625C16.49848175048828,12.91259765625,16.90473175048828,12.5,17.41059112548828,12.5L20.99848175048828,12.5C21.83051300048828,12.5,22.49848175048828,11.831298828125,22.49848175048828,11C22.49848175048828,10.168701171875,21.83051300048828,9.5,20.99848175048828,9.5L19.99848175048828,9.5L19.99848175048828,9ZZ" style="fill: rgb(255, 255, 255); fill-opacity: 1;"/></g></g></g></g></g></g></g></g></svg>