<svg height="12px" xmlns="http://www.w3.org/2000/svg" viewBox="0 0 576 512"><path fill="currentColor" d="M272 48l128 0c8.8 0 16 7.2 16 16l0 152c0 13.3 10.7 24 24 24l72 0c8.8 0 16 7.2 16 16l0 192c0 8.8-7.2 16-16 16l-240 0c-8.8 0-16-7.2-16-16l0-384c0-8.8 7.2-16 16-16zM208 448c0 5.5 .7 10.9 2 16L64 464c-8.8 0-16-7.2-16-16l0-288c0-8.8 7.2-16 16-16l144 0 0 304zm0-384l0 32-32 0 0-72c0-13.3-10.7-24-24-24s-24 10.7-24 24l0 72-32 0 0-72C96 10.7 85.3 0 72 0S48 10.7 48 24l0 74c-27.6 7.1-48 32.2-48 62L0 448c0 35.3 28.7 64 64 64l448 0c35.3 0 64-28.7 64-64l0-192c0-35.3-28.7-64-64-64l-48 0 0-128c0-35.3-28.7-64-64-64L272 0c-35.3 0-64 28.7-64 64zm96 48l0 32c0 8.8 7.2 16 16 16l32 0c8.8 0 16-7.2 16-16l0-32c0-8.8-7.2-16-16-16l-32 0c-8.8 0-16 7.2-16 16zM432 288c-8.8 0-16 7.2-16 16l0 32c0 8.8 7.2 16 16 16l32 0c8.8 0 16-7.2 16-16l0-32c0-8.8-7.2-16-16-16l-32 0zM304 208l0 32c0 8.8 7.2 16 16 16l32 0c8.8 0 16-7.2 16-16l0-32c0-8.8-7.2-16-16-16l-32 0c-8.8 0-16 7.2-16 16zM112 192c-8.8 0-16 7.2-16 16l0 32c0 8.8 7.2 16 16 16l32 0c8.8 0 16-7.2 16-16l0-32c0-8.8-7.2-16-16-16l-32 0zM304 304l0 32c0 8.8 7.2 16 16 16l32 0c8.8 0 16-7.2 16-16l0-32c0-8.8-7.2-16-16-16l-32 0c-8.8 0-16 7.2-16 16zM112 288c-8.8 0-16 7.2-16 16l0 32c0 8.8 7.2 16 16 16l32 0c8.8 0 16-7.2 16-16l0-32c0-8.8-7.2-16-16-16l-32 0z" style="fill: #003da5; fill-opacity: 1;"/></svg>
