<svg width="18" xmlns="http://www.w3.org/2000/svg" height="15" id="screenshot-968aef07-4904-80cf-8007-eb40dc673458" viewBox="-19697 -6712 18 15" xmlns:xlink="http://www.w3.org/1999/xlink" fill="none" version="1.1"><g id="shape-968aef07-4904-80cf-8007-eb40dc673458"><g class="fills" id="fills-968aef07-4904-80cf-8007-eb40dc673458"><path d="M-19686,-6710.5C-19685.724609375,-6710.5,-19685.5,-6710.27490234375,-19685.5,-6710L-19685.5,-6701.8720703125C-19685.92578125,-6701.52197265625,-19686.244140625,-6701.0439453125,-19686.396484375,-6700.5L-19689.603515625,-6700.5C-19689.927734375,-6701.6533203125,-19690.990234375,-6702.5,-19692.25,-6702.5C-19693.509765625,-6702.5,-19694.568359375,-6701.6533203125,-19694.896484375,-6700.5L-19695,-6700.5C-19695.275390625,-6700.5,-19695.5,-6700.72509765625,-19695.5,-6701L-19695.5,-6710C-19695.5,-6710.27490234375,-19695.275390625,-6710.5,-19695,-6710.5L-19686,-6710.5ZM-19695,-6699L-19694.896484375,-6699C-19694.572265625,-6697.8466796875,-19693.509765625,-6697,-19692.25,-6697C-19690.990234375,-6697,-19689.931640625,-6697.8466796875,-19689.603515625,-6699L-19686.396484375,-6699C-19686.072265625,-6697.8466796875,-19685.009765625,-6697,-19683.75,-6697C-19682.490234375,-6697,-19681.431640625,-6697.8466796875,-19681.103515625,-6699L-19681,-6699C-19679.896484375,-6699,-19679,-6699.89697265625,-19679,-6701L-19679,-6705.7314453125C-19679,-6706.2626953125,-19679.208984375,-6706.77197265625,-19679.583984375,-6707.14697265625L-19680.853515625,-6708.41552734375C-19681.228515625,-6708.79052734375,-19681.73828125,-6709,-19682.26953125,-6709L-19684,-6709L-19684,-6710C-19684,-6711.10302734375,-19684.896484375,-6712,-19686,-6712L-19695,-6712C-19696.103515625,-6712,-19697,-6711.10302734375,-19697,-6710L-19697,-6701C-19697,-6699.89697265625,-19696.103515625,-6699,-19695,-6699ZM-19684,-6707.5L-19682.26953125,-6707.5C-19682.13671875,-6707.5,-19682.009765625,-6707.44677734375,-19681.916015625,-6707.35302734375L-19680.646484375,-6706.08447265625C-19680.552734375,-6705.99072265625,-19680.5,-6705.8623046875,-19680.5,-6705.7314453125L-19680.5,-6705L-19684,-6705L-19684,-6707.5ZM-19684,-6702.4873046875L-19684,-6703.5L-19680.5,-6703.5L-19680.5,-6701C-19680.5,-6700.72509765625,-19680.724609375,-6700.5,-19681,-6700.5L-19681.103515625,-6700.5C-19681.427734375,-6701.6533203125,-19682.490234375,-6702.5,-19683.75,-6702.5C-19683.833984375,-6702.5,-19683.91796875,-6702.4970703125,-19684,-6702.4873046875ZM-19693.5,-6699.75C-19693.5,-6700.4404296875,-19692.939453125,-6701,-19692.25,-6701C-19691.560546875,-6701,-19691,-6700.4404296875,-19691,-6699.75C-19691,-6699.0595703125,-19691.560546875,-6698.5,-19692.25,-6698.5C-19692.939453125,-6698.5,-19693.5,-6699.0595703125,-19693.5,-6699.75ZM-19685,-6699.75C-19685,-6700.4404296875,-19684.439453125,-6701,-19683.75,-6701C-19683.060546875,-6701,-19682.5,-6700.4404296875,-19682.5,-6699.75C-19682.5,-6699.0595703125,-19683.060546875,-6698.5,-19683.75,-6698.5C-19684.439453125,-6698.5,-19685,-6699.0595703125,-19685,-6699.75ZM-19691.5,-6708.75L-19691.5,-6707.5L-19692.75,-6707.5C-19693.025390625,-6707.5,-19693.25,-6707.27490234375,-19693.25,-6707L-19693.25,-6706C-19693.25,-6705.72509765625,-19693.025390625,-6705.5,-19692.75,-6705.5L-19691.5,-6705.5L-19691.5,-6704.25C-19691.5,-6703.97509765625,-19691.275390625,-6703.75,-19691,-6703.75L-19690,-6703.75C-19689.724609375,-6703.75,-19689.5,-6703.97509765625,-19689.5,-6704.25L-19689.5,-6705.5L-19688.25,-6705.5C-19687.974609375,-6705.5,-19687.75,-6705.72509765625,-19687.75,-6706L-19687.75,-6707C-19687.75,-6707.27490234375,-19687.974609375,-6707.5,-19688.25,-6707.5L-19689.5,-6707.5L-19689.5,-6708.75C-19689.5,-6709.02490234375,-19689.724609375,-6709.25,-19690,-6709.25L-19691,-6709.25C-19691.275390625,-6709.25,-19691.5,-6709.02490234375,-19691.5,-6708.75Z" style="fill: rgb(255, 78, 75); fill-opacity: 1;"/></g></g></svg>