<svg width="36" xmlns="http://www.w3.org/2000/svg" height="36" id="screenshot-968aef07-4904-80cf-8007-eb3f43206571" viewBox="0 0 36 36" xmlns:xlink="http://www.w3.org/1999/xlink" fill="none" version="1.1"><style>@font-face {
    font-family: 'Font Awesome 6 Pro';
    font-style: normal;
    font-weight: 400;
    font-display: block;
    src: url(http://penpot-frontend:8080/assets/by-id/4ed145cd-9270-4543-9317-2b5c1c9b3bb8) format('woff');
  }</style><g id="shape-968aef07-4904-80cf-8007-eb3f43206571"><g class="frame-container-wrapper" opacity="1"><g class="frame-container-blur"><g class="frame-container-shadows"><g fill="none"><g class="fills" id="fills-968aef07-4904-80cf-8007-eb3f43206571"><rect width="36" height="36" class="frame-background" x="0" transform="matrix(1.000000, 0.000000, 0.000000, 1.000000, 0.000000, 0.000000)" style="fill: rgb(255, 255, 255); fill-opacity: 1;" ry="18" rx="18" y="0"/></g><g class="frame-children"><g id="shape-968aef07-4904-80cf-8007-eb3f43206572"><g class="frame-container-wrapper" opacity="1"><g class="frame-container-blur"><g class="frame-container-shadows"><g fill="none"><g class="fills" id="fills-968aef07-4904-80cf-8007-eb3f43206572"><rect rx="0" ry="0" x="10" y="10" width="16" height="16" transform="matrix(1.000000, 0.000000, 0.000000, 1.000000, 0.000000, 0.000000)" class="frame-background"/></g><g class="frame-children"><g id="shape-968aef07-4904-80cf-8007-eb3f43206573" style="opacity: 1; display: none;"><g transform="matrix(1.000000, 0.000000, 0.000000, 1.000000, 0.000000, 0.000000)" class="text-container" x="-1" y="8" width="20" height="20" rx="0" ry="0"><defs><pattern patternUnits="objectBoundingBox" width="20" height="16" id="fill-0-render-3-0"><g><rect width="20" height="16" style="fill: rgb(255, 78, 75); fill-opacity: 1;"/></g></pattern></defs><g class="fills" id="fills-968aef07-4904-80cf-8007-eb3f43206573"><text x="-1" y="25.8984375" dominant-baseline="ideographic" textLength="20" lengthAdjust="spacingAndGlyphs" style="text-transform: none; font-family: &quot;Font Awesome 6 Pro&quot;; letter-spacing: normal; font-style: normal; font-weight: 400; white-space: pre; font-size: 16px; text-decoration: none; direction: ltr; fill: rgb(255, 78, 75); fill-opacity: 1;">truck-medical</text></g></g></g><g id="shape-968aef07-4904-80cf-8007-eb40dc5ffb51" rx="0" ry="0" style="fill: rgb(0, 0, 0);"><g id="shape-968aef07-4904-80cf-8007-eb40dc66fa7a" style="display: none;"><g class="fills" id="fills-968aef07-4904-80cf-8007-eb40dc66fa7a"><rect width="18" height="16" x="9" transform="matrix(1.000000, 0.000000, 0.000000, 1.000000, 0.000000, 0.000000)" style="fill: none;" ry="0" fill="none" rx="0" y="10"/></g></g><g id="shape-968aef07-4904-80cf-8007-eb40dc673458"><g class="fills" id="fills-968aef07-4904-80cf-8007-eb40dc673458"><path d="M20,12.5C20.275390625,12.5,20.5,12.72509765625,20.5,13L20.5,21.1279296875C20.07421875,21.47802734375,19.755859375,21.9560546875,19.603515625,22.5L16.396484375,22.5C16.072265625,21.3466796875,15.009765625,20.5,13.75,20.5C12.490234375,20.5,11.431640625,21.3466796875,11.103515625,22.5L11,22.5C10.724609375,22.5,10.5,22.27490234375,10.5,22L10.5,13C10.5,12.72509765625,10.724609375,12.5,11,12.5L20,12.5ZM11,24L11.103515625,24C11.427734375,25.1533203125,12.490234375,26,13.75,26C15.009765625,26,16.068359375,25.1533203125,16.396484375,24L19.603515625,24C19.927734375,25.1533203125,20.990234375,26,22.25,26C23.509765625,26,24.568359375,25.1533203125,24.896484375,24L25,24C26.103515625,24,27,23.10302734375,27,22L27,17.2685546875C27,16.7373046875,26.791015625,16.22802734375,26.416015625,15.85302734375L25.146484375,14.58447265625C24.771484375,14.20947265625,24.26171875,14,23.73046875,14L22,14L22,13C22,11.89697265625,21.103515625,11,20,11L11,11C9.896484375,11,9,11.89697265625,9,13L9,22C9,23.10302734375,9.896484375,24,11,24ZM22,15.5L23.73046875,15.5C23.86328125,15.5,23.990234375,15.55322265625,24.083984375,15.64697265625L25.353515625,16.91552734375C25.447265625,17.00927734375,25.5,17.1376953125,25.5,17.2685546875L25.5,18L22,18L22,15.5ZM22,20.5126953125L22,19.5L25.5,19.5L25.5,22C25.5,22.27490234375,25.275390625,22.5,25,22.5L24.896484375,22.5C24.572265625,21.3466796875,23.509765625,20.5,22.25,20.5C22.166015625,20.5,22.08203125,20.5029296875,22,20.5126953125ZM12.5,23.25C12.5,22.5595703125,13.060546875,22,13.75,22C14.439453125,22,15,22.5595703125,15,23.25C15,23.9404296875,14.439453125,24.5,13.75,24.5C13.060546875,24.5,12.5,23.9404296875,12.5,23.25ZM21,23.25C21,22.5595703125,21.560546875,22,22.25,22C22.939453125,22,23.5,22.5595703125,23.5,23.25C23.5,23.9404296875,22.939453125,24.5,22.25,24.5C21.560546875,24.5,21,23.9404296875,21,23.25ZM14.5,14.25L14.5,15.5L13.25,15.5C12.974609375,15.5,12.75,15.72509765625,12.75,16L12.75,17C12.75,17.27490234375,12.974609375,17.5,13.25,17.5L14.5,17.5L14.5,18.75C14.5,19.02490234375,14.724609375,19.25,15,19.25L16,19.25C16.275390625,19.25,16.5,19.02490234375,16.5,18.75L16.5,17.5L17.75,17.5C18.025390625,17.5,18.25,17.27490234375,18.25,17L18.25,16C18.25,15.72509765625,18.025390625,15.5,17.75,15.5L16.5,15.5L16.5,14.25C16.5,13.97509765625,16.275390625,13.75,16,13.75L15,13.75C14.724609375,13.75,14.5,13.97509765625,14.5,14.25Z" style="fill: rgb(255, 78, 75); fill-opacity: 1;"/></g></g></g></g></g></g></g></g></g></g></g></g><g id="strokes-bd3c2e7b-0e36-80b6-8007-f811239ee07c-968aef07-4904-80cf-8007-eb3f43206571" class="strokes"><g class="inner-stroke-shape" transform="matrix(1.000000, 0.000000, 0.000000, 1.000000, 0.000000, 0.000000)"><defs><clipPath id="inner-stroke-render-1-968aef07-4904-80cf-8007-eb3f43206571-0"><use href="#stroke-shape-render-1-968aef07-4904-80cf-8007-eb3f43206571-0"/></clipPath><rect width="36" height="36" class="frame-background" x="0" id="stroke-shape-render-1-968aef07-4904-80cf-8007-eb3f43206571-0" style="fill: none; stroke-width: 2; stroke: rgb(255, 78, 75); stroke-opacity: 1;" ry="18" rx="18" y="0"/></defs><use href="#stroke-shape-render-1-968aef07-4904-80cf-8007-eb3f43206571-0" clip-path="url('#inner-stroke-render-1-968aef07-4904-80cf-8007-eb3f43206571-0')"/></g></g></g></g></g></svg>