<svg width="16.002" xmlns="http://www.w3.org/2000/svg" height="18.003" id="screenshot-4846f8c9-8139-800e-8006-dbc0772b381c" viewBox="3075.999 10688 16.002 18.003" style="-webkit-print-color-adjust::exact" xmlns:xlink="http://www.w3.org/1999/xlink" fill="none" version="1.1">
  <g id="shape-4846f8c9-8139-800e-8006-dbc0772b381c" style="opacity:1">
    <defs></defs>
    <g class="fills" id="fills-4846f8c9-8139-800e-8006-dbc0772b381c">
      <path d="M3086,10697L3086,10704.8798828125C3086.039794921875,10705.1796875,3085.93994140625,10705.5,3085.7099609375,10705.7099609375C3085.617431640625,10705.802734375,3085.507568359375,10705.8759765625,3085.386474609375,10705.9267578125C3085.265625,10705.9765625,3085.1357421875,10706.0029296875,3085.0048828125,10706.0029296875C3084.8740234375,10706.0029296875,3084.744140625,10705.9765625,3084.623291015625,10705.9267578125C3084.502197265625,10705.8759765625,3084.392333984375,10705.802734375,3084.2998046875,10705.7099609375L3082.289794921875,10703.7001953125C3082.180908203125,10703.59375,3082.097900390625,10703.462890625,3082.047607421875,10703.3193359375C3081.997314453125,10703.1748046875,3081.98095703125,10703.021484375,3082,10702.8701171875L3082,10697L3081.969970703125,10697L3076.2099609375,10689.6201171875C3076.047607421875,10689.4111328125,3075.97412109375,10689.1474609375,3076.006103515625,10688.884765625C3076.037841796875,10688.623046875,3076.17236328125,10688.3837890625,3076.3798828125,10688.2197265625C3076.56982421875,10688.080078125,3076.77978515625,10688,3077,10688L3091,10688C3091.219970703125,10688,3091.429931640625,10688.080078125,3091.619873046875,10688.2197265625C3091.827392578125,10688.3837890625,3091.9619140625,10688.623046875,3091.99365234375,10688.884765625C3092.025634765625,10689.1474609375,3091.952392578125,10689.4111328125,3091.789794921875,10689.6201171875L3086.02978515625,10697L3086,10697Z" fill-rule="nonzero" style="fill:#000000;fill-opacity:1"></path>
    </g>
  </g>
</svg>