<svg width="36" xmlns="http://www.w3.org/2000/svg" height="36" id="screenshot-968aef07-4904-80cf-8007-eb3f431ffec6" viewBox="0 0 36 36" xmlns:xlink="http://www.w3.org/1999/xlink" fill="none" version="1.1"><style>@font-face {
    font-family: 'Font Awesome 6 Pro';
    font-style: normal;
    font-weight: 400;
    font-display: block;
    src: url(http://penpot-frontend:8080/assets/by-id/4ed145cd-9270-4543-9317-2b5c1c9b3bb8) format('woff');
  }</style><g id="shape-968aef07-4904-80cf-8007-eb3f431ffec6"><g class="frame-container-wrapper" opacity="1"><g class="frame-container-blur"><g class="frame-container-shadows"><g fill="none"><g class="fills" id="fills-968aef07-4904-80cf-8007-eb3f431ffec6"><rect width="36" height="36" class="frame-background" x="0" transform="matrix(1.000000, 0.000000, 0.000000, 1.000000, 0.000000, 0.000000)" style="fill: rgb(255, 255, 255); fill-opacity: 1;" ry="18" rx="18" y="0"/></g><g class="frame-children"><g id="shape-968aef07-4904-80cf-8007-eb3f431ffec7"><g class="frame-container-wrapper" opacity="1"><g class="frame-container-blur"><g class="frame-container-shadows"><g fill="none"><g class="fills" id="fills-968aef07-4904-80cf-8007-eb3f431ffec7"><rect rx="0" ry="0" x="10" y="10" width="16" height="16" transform="matrix(1.000000, 0.000000, 0.000000, 1.000000, 0.000000, 0.000000)" class="frame-background"/></g><g class="frame-children"><g id="shape-968aef07-4904-80cf-8007-eb3f431ffec8" style="opacity: 1; display: none;"><g transform="matrix(1.000000, 0.000000, 0.000000, 1.000000, 0.000000, 0.000000)" class="text-container" x="1.0294117647063104" y="8" width="17" height="20" rx="0" ry="0"><defs><pattern patternUnits="objectBoundingBox" width="24" height="16" id="fill-0-render-3-0"><g><rect width="24" height="16" style="fill: rgb(171, 87, 245); fill-opacity: 1;"/></g></pattern></defs><g class="fills" id="fills-968aef07-4904-80cf-8007-eb3f431ffec8"><text x="1.0294117647063104" y="25.8984375" dominant-baseline="ideographic" textLength="24" lengthAdjust="spacingAndGlyphs" style="text-transform: none; font-family: &quot;Font Awesome 6 Pro&quot;; letter-spacing: normal; font-style: normal; font-weight: 400; white-space: pre; font-size: 16px; text-decoration: none; direction: ltr; fill: rgb(171, 87, 245); fill-opacity: 1;">stethoscope </text></g></g></g><g id="shape-968aef07-4904-80cf-8007-eb41162165e0" rx="0" ry="0" style="fill: rgb(0, 0, 0);"><g id="shape-968aef07-4904-80cf-8007-eb41162506bf" style="display: none;"><g class="fills" id="fills-968aef07-4904-80cf-8007-eb41162506bf"><rect width="16.94117647058738" height="15.058823529411711" x="9.52941176470631" transform="matrix(1.000000, 0.000000, 0.000000, 1.000000, 0.000000, 0.000000)" style="fill: none;" ry="0" fill="none" rx="0" y="10"/></g></g><g id="shape-968aef07-4904-80cf-8007-eb41162506c0"><g class="fills" id="fills-968aef07-4904-80cf-8007-eb41162506c0"><path d="M10.470703125,11.41162109375C10.470703125,10.63232421875,11.103515625,10,11.8828125,10L13.529296875,10C13.919921875,10,14.234375,10.31494140625,14.234375,10.7060546875C14.234375,11.09716796875,13.919921875,11.41162109375,13.529296875,11.41162109375L11.8828125,11.41162109375L11.8828125,15.17626953125C11.8828125,16.9970703125,13.35546875,18.470703125,15.17578125,18.470703125C16.99609375,18.470703125,18.470703125,16.9970703125,18.470703125,15.17626953125L18.470703125,11.41162109375L16.82421875,11.41162109375C16.431640625,11.41162109375,16.1171875,11.09716796875,16.1171875,10.7060546875C16.1171875,10.31494140625,16.431640625,10,16.82421875,10L18.470703125,10C19.25,10,19.8828125,10.63232421875,19.8828125,11.41162109375L19.8828125,15.17626953125C19.8828125,17.53515625,18.146484375,19.48828125,15.8828125,19.82958984375L15.8828125,21.05859375C15.8828125,23.0087890625,17.4609375,24.58837890625,19.412109375,24.58837890625C21.361328125,24.58837890625,22.94140625,23.0087890625,22.94140625,21.05859375L22.94140625,18C22.94140625,17.96484375,22.943359375,17.92919921875,22.94921875,17.89404296875C21.990234375,17.59716796875,21.294921875,16.703125,21.294921875,15.64697265625C21.294921875,14.34716796875,22.34765625,13.2939453125,23.646484375,13.2939453125C24.947265625,13.2939453125,26,14.34716796875,26,15.64697265625C26,16.703125,25.302734375,17.59716796875,24.34375,17.89404296875C24.349609375,17.92919921875,24.353515625,17.96484375,24.353515625,18L24.353515625,21.05859375C24.353515625,23.7880859375,22.140625,26,19.412109375,26C16.681640625,26,14.470703125,23.7880859375,14.470703125,21.05859375L14.470703125,19.82958984375C12.205078125,19.48828125,10.470703125,17.53515625,10.470703125,15.17626953125L10.470703125,11.41162109375ZM23.646484375,16.58837890625C24.166015625,16.58837890625,24.587890625,16.1669921875,24.587890625,15.64697265625C24.587890625,15.12744140625,24.166015625,14.7060546875,23.646484375,14.7060546875C23.126953125,14.7060546875,22.705078125,15.12744140625,22.705078125,15.64697265625C22.705078125,16.1669921875,23.126953125,16.58837890625,23.646484375,16.58837890625Z" style="fill: rgb(171, 87, 245); fill-opacity: 1;"/></g></g></g></g></g></g></g></g></g></g></g></g><g id="strokes-ac76850c-f5c1-805e-8007-f810deec5302-968aef07-4904-80cf-8007-eb3f431ffec6" class="strokes"><g class="inner-stroke-shape" transform="matrix(1.000000, 0.000000, 0.000000, 1.000000, 0.000000, 0.000000)"><defs><clipPath id="inner-stroke-render-1-968aef07-4904-80cf-8007-eb3f431ffec6-0"><use href="#stroke-shape-render-1-968aef07-4904-80cf-8007-eb3f431ffec6-0"/></clipPath><rect width="36" height="36" class="frame-background" x="0" id="stroke-shape-render-1-968aef07-4904-80cf-8007-eb3f431ffec6-0" style="fill: none; stroke-width: 2; stroke: rgb(171, 87, 245); stroke-opacity: 1;" ry="18" rx="18" y="0"/></defs><use href="#stroke-shape-render-1-968aef07-4904-80cf-8007-eb3f431ffec6-0" clip-path="url('#inner-stroke-render-1-968aef07-4904-80cf-8007-eb3f431ffec6-0')"/></g></g></g></g></g></svg>