<svg width="36" xmlns="http://www.w3.org/2000/svg" height="36" id="screenshot-d80ec607-0806-8081-8007-f84ab81ff826" viewBox="0 0 36 36" xmlns:xlink="http://www.w3.org/1999/xlink" fill="none" version="1.1"><style>@font-face {
    font-family: 'Font Awesome 6 Pro';
    font-style: normal;
    font-weight: 400;
    font-display: block;
    src: url(http://penpot-frontend:8080/assets/by-id/4ed145cd-9270-4543-9317-2b5c1c9b3bb8) format('woff');
  }</style><g id="shape-d80ec607-0806-8081-8007-f84ab81ff826"><g class="frame-container-wrapper" opacity="1"><g class="frame-container-blur"><g class="frame-container-shadows"><g fill="none"><g class="fills" id="fills-d80ec607-0806-8081-8007-f84ab81ff826"><rect width="36" height="36" class="frame-background" x="0" transform="matrix(1.000000, 0.000000, 0.000000, 1.000000, 0.000000, 0.000000)" style="fill: rgb(255, 255, 255); fill-opacity: 1;" ry="18" rx="18" y="0"/></g><g class="frame-children"><g id="shape-d80ec607-0806-8081-8007-f84ec1a8f2fa"><g class="fills" id="fills-d80ec607-0806-8081-8007-f84ec1a8f2fa"><ellipse cx="18" cy="18" rx="18" ry="18" transform="matrix(1.000000, 0.000000, 0.000000, 1.000000, 0.000000, 0.000000)"/></g><g id="strokes-683b1558-6738-8047-8007-f84fdecbe785-d80ec607-0806-8081-8007-f84ec1a8f2fa" class="strokes"><g class="inner-stroke-shape" transform="matrix(1.000000, 0.000000, 0.000000, 1.000000, 0.000000, 0.000000)"><defs><clipPath id="inner-stroke-render-2-d80ec607-0806-8081-8007-f84ec1a8f2fa-0"><use href="#stroke-shape-render-2-d80ec607-0806-8081-8007-f84ec1a8f2fa-0"/></clipPath><ellipse cx="18" cy="18" rx="18" ry="18" id="stroke-shape-render-2-d80ec607-0806-8081-8007-f84ec1a8f2fa-0" style="fill: none; stroke-width: 2; stroke: rgb(171, 87, 245); stroke-opacity: 1;"/></defs><use href="#stroke-shape-render-2-d80ec607-0806-8081-8007-f84ec1a8f2fa-0" clip-path="url('#inner-stroke-render-2-d80ec607-0806-8081-8007-f84ec1a8f2fa-0')"/></g></g></g><g id="shape-d80ec607-0806-8081-8007-f84ab81ff828"><g class="frame-container-wrapper" opacity="1"><g class="frame-container-blur"><g class="frame-container-shadows"><g fill="none"><g class="fills" id="fills-d80ec607-0806-8081-8007-f84ab81ff828"><rect rx="0" ry="0" x="10" y="10" width="16" height="16" transform="matrix(1.000000, 0.000000, 0.000000, 1.000000, 0.000000, 0.000000)" class="frame-background"/></g><g class="frame-children"><g id="shape-d80ec607-0806-8081-8007-f84ab81ff829" style="opacity: 1; display: none;"><g transform="matrix(1.000000, 0.000000, 0.000000, 1.000000, 0.000000, 0.000000)" class="text-container" x="1.0294117647063104" y="8" width="17" height="20" rx="0" ry="0"><defs><pattern patternUnits="objectBoundingBox" width="24" height="16" id="fill-0-render-4-0"><g><rect width="24" height="16" style="fill: rgb(171, 87, 245); fill-opacity: 1;"/></g></pattern></defs><g class="fills" id="fills-d80ec607-0806-8081-8007-f84ab81ff829"><text x="1.0294117647063104" y="25.8984375" dominant-baseline="ideographic" textLength="24" lengthAdjust="spacingAndGlyphs" style="text-transform: none; font-family: &quot;Font Awesome 6 Pro&quot;; letter-spacing: normal; font-style: normal; font-weight: 400; white-space: pre; font-size: 16px; text-decoration: none; direction: ltr; fill: rgb(171, 87, 245); fill-opacity: 1;">stethoscope </text></g></g></g><g id="shape-d80ec607-0806-8081-8007-f84ab81ff82a" rx="0" ry="0" style="fill: rgb(0, 0, 0);"><g id="shape-d80ec607-0806-8081-8007-f84ab81ff82b" style="display: none;"><g class="fills" id="fills-d80ec607-0806-8081-8007-f84ab81ff82b"><rect width="16.94117647058738" height="15.058823529411711" x="9.52941176470631" transform="matrix(1.000000, 0.000000, 0.000000, 1.000000, 0.000000, 0.000000)" style="fill: none;" ry="0" fill="none" rx="0" y="10"/></g></g><g id="shape-d80ec607-0806-8081-8007-f84ab81ff82c"><g class="fills" id="fills-d80ec607-0806-8081-8007-f84ab81ff82c"><path d="M10.470703125,11.41162109375C10.470703125,10.63232421875,11.103515625,10,11.8828125,10L13.529296875,10C13.919921875,10,14.234375,10.31494140625,14.234375,10.7060546875C14.234375,11.09716796875,13.919921875,11.41162109375,13.529296875,11.41162109375L11.8828125,11.41162109375L11.8828125,15.17626953125C11.8828125,16.9970703125,13.35546875,18.470703125,15.17578125,18.470703125C16.99609375,18.470703125,18.470703125,16.9970703125,18.470703125,15.17626953125L18.470703125,11.41162109375L16.82421875,11.41162109375C16.431640625,11.41162109375,16.1171875,11.09716796875,16.1171875,10.7060546875C16.1171875,10.31494140625,16.431640625,10,16.82421875,10L18.470703125,10C19.25,10,19.8828125,10.63232421875,19.8828125,11.41162109375L19.8828125,15.17626953125C19.8828125,17.53515625,18.146484375,19.48828125,15.8828125,19.82958984375L15.8828125,21.05859375C15.8828125,23.0087890625,17.4609375,24.58837890625,19.412109375,24.58837890625C21.361328125,24.58837890625,22.94140625,23.0087890625,22.94140625,21.05859375L22.94140625,18C22.94140625,17.96484375,22.943359375,17.92919921875,22.94921875,17.89404296875C21.990234375,17.59716796875,21.294921875,16.703125,21.294921875,15.64697265625C21.294921875,14.34716796875,22.34765625,13.2939453125,23.646484375,13.2939453125C24.947265625,13.2939453125,26,14.34716796875,26,15.64697265625C26,16.703125,25.302734375,17.59716796875,24.34375,17.89404296875C24.349609375,17.92919921875,24.353515625,17.96484375,24.353515625,18L24.353515625,21.05859375C24.353515625,23.7880859375,22.140625,26,19.412109375,26C16.681640625,26,14.470703125,23.7880859375,14.470703125,21.05859375L14.470703125,19.82958984375C12.205078125,19.48828125,10.470703125,17.53515625,10.470703125,15.17626953125L10.470703125,11.41162109375ZM23.646484375,16.58837890625C24.166015625,16.58837890625,24.587890625,16.1669921875,24.587890625,15.64697265625C24.587890625,15.12744140625,24.166015625,14.7060546875,23.646484375,14.7060546875C23.126953125,14.7060546875,22.705078125,15.12744140625,22.705078125,15.64697265625C22.705078125,16.1669921875,23.126953125,16.58837890625,23.646484375,16.58837890625Z" style="fill: rgb(171, 87, 245); fill-opacity: 1;"/></g></g></g></g></g></g></g></g></g><g id="shape-d80ec607-0806-8081-8007-f84ea8405261"><g class="frame-container-wrapper" opacity="1"><g class="frame-container-blur"><g class="frame-container-shadows"><g fill="none"><g class="fills" id="fills-d80ec607-0806-8081-8007-f84ea8405261"><rect width="18" height="17.99999999999818" class="frame-background" x="18" transform="matrix(1.000000, 0.000000, 0.000000, 1.000000, 0.000000, 0.000000)" style="fill: rgb(255, 255, 255); fill-opacity: 1;" ry="8.99999999999909" rx="8.99999999999909" y="0"/></g><g class="frame-children"><g id="shape-d80ec607-0806-8081-8007-f84ea8405262"><g class="frame-container-wrapper" opacity="1"><g class="frame-container-blur"><g class="frame-container-shadows"><g fill="none"><g class="fills" id="fills-d80ec607-0806-8081-8007-f84ea8405262"><rect rx="0" ry="0" x="22.999999999996362" y="4.9999999999990905" width="7.999999999996362" height="8" transform="matrix(1.000000, 0.000000, 0.000000, 1.000000, 0.000000, 0.000000)" class="frame-background"/></g><g class="frame-children"><g id="shape-d80ec607-0806-8081-8007-f84ea8405263" style="opacity: 1; display: none;"><g transform="matrix(1.000000, 0.000000, 0.000000, 1.000000, 0.000000, 0.000000)" class="text-container" x="18.7018934777916" y="4.2499999999990905" width="8" height="10" rx="0" ry="0"><defs><pattern patternUnits="objectBoundingBox" width="7.84375" height="8" id="fill-0-render-10-0"><g><rect width="7.84375" height="8" style="fill: rgb(0, 61, 165); fill-opacity: 1;"/></g></pattern></defs><g class="fills" id="fills-d80ec607-0806-8081-8007-f84ea8405263"><text x="18.7018934777916" y="13.04687499999909" dominant-baseline="ideographic" textLength="7.84375" lengthAdjust="spacingAndGlyphs" style="text-transform: none; font-family: &quot;Font Awesome 6 Pro&quot;; letter-spacing: normal; font-style: normal; font-weight: 400; white-space: pre; font-size: 7.84207px; text-decoration: none; direction: ltr; fill: rgb(0, 61, 165); fill-opacity: 1;"></text></g></g></g><g id="shape-d80ec607-0806-8081-8007-f84ea8405264" rx="0" ry="0" style="fill: rgb(0, 0, 0);"><g id="shape-d80ec607-0806-8081-8007-f84ea8405265" style="display: none;"><g class="fills" id="fills-d80ec607-0806-8081-8007-f84ea8405265"><rect width="8.5962130444168" height="7.641078261704024" x="22.7018934777916" transform="matrix(1.000000, 0.000000, 0.000000, 1.000000, 0.000000, 0.000000)" style="fill: none;" ry="0" fill="none" rx="0" y="5.358921738295976"/></g></g><g id="shape-d80ec607-0806-8081-8007-f84ea8405266"><g class="fills" id="fills-d80ec607-0806-8081-8007-f84ea8405266"><path d="M30.12890625,5.10498046875C29.98828125,4.96533203125,29.76171875,4.96533203125,29.623046875,5.10498046875C29.482421875,5.24560546875,29.482421875,5.47216796875,29.623046875,5.61083984375L29.845703125,5.83544921875L29.158203125,6.52294921875L28.216796875,5.5830078125C28.076171875,5.4423828125,27.8515625,5.4423828125,27.7109375,5.5830078125C27.57421875,5.72314453125,27.5703125,5.9501953125,27.7109375,6.0888671875L27.81640625,6.19287109375C26.029296875,7.98095703125,24.505859375,9.50390625,24.38671875,9.62109375C24.23046875,9.77734375,24.14453125,9.98974609375,24.14453125,10.21240234375L24.14453125,11.537109375L23.29296875,12.3876953125C23.15234375,12.5283203125,23.15234375,12.7548828125,23.29296875,12.89404296875C23.43359375,13.03271484375,23.66015625,13.0341796875,23.798828125,12.89404296875L24.650390625,12.0439453125L25.974609375,12.0439453125C26.197265625,12.0439453125,26.408203125,11.955078125,26.564453125,11.79833984375L29.994140625,8.37060546875L30.099609375,8.4755859375C30.240234375,8.615234375,30.46484375,8.615234375,30.60546875,8.4755859375C30.7421875,8.3349609375,30.74609375,8.107421875,30.60546875,7.96875L29.6640625,7.0283203125L30.3515625,6.3408203125L30.57421875,6.56494140625C30.71484375,6.70556640625,30.943359375,6.70556640625,31.080078125,6.56494140625C31.220703125,6.4248046875,31.220703125,6.19775390625,31.080078125,6.05908203125L30.126953125,5.103515625ZM29.48828125,7.8662109375L26.05859375,11.2939453125C26.037109375,11.31689453125,26.0078125,11.32861328125,25.974609375,11.32861328125L24.861328125,11.32861328125L24.861328125,10.21337890625C24.861328125,10.1826171875,24.87109375,10.1513671875,24.892578125,10.12841796875L25.455078125,9.56591796875L25.798828125,9.9091796875C25.939453125,10.04931640625,26.16796875,10.04931640625,26.3046875,9.9091796875C26.4453125,9.7685546875,26.4453125,9.5419921875,26.3046875,9.40380859375L25.9609375,9.06005859375L26.888671875,8.13330078125L27.232421875,8.4765625C27.373046875,8.61669921875,27.599609375,8.61669921875,27.73828125,8.4765625C27.876953125,8.3359375,27.87890625,8.109375,27.73828125,7.97119140625L27.39453125,7.62744140625L28.322265625,6.70068359375C28.708984375,7.0888671875,29.09765625,7.4765625,29.48828125,7.8662109375Z" style="fill: rgb(0, 61, 165); fill-opacity: 1;"/></g></g></g></g></g></g></g></g></g></g></g></g><g id="strokes-683b1558-6738-8047-8007-f84fded270f5-d80ec607-0806-8081-8007-f84ea8405261" class="strokes"><g class="inner-stroke-shape" transform="matrix(1.000000, 0.000000, 0.000000, 1.000000, 0.000000, 0.000000)"><defs><clipPath id="inner-stroke-render-8-d80ec607-0806-8081-8007-f84ea8405261-0"><use href="#stroke-shape-render-8-d80ec607-0806-8081-8007-f84ea8405261-0"/></clipPath><rect width="18" height="17.99999999999818" class="frame-background" x="18" id="stroke-shape-render-8-d80ec607-0806-8081-8007-f84ea8405261-0" style="fill: none; stroke-width: 2; stroke: rgb(0, 61, 165); stroke-opacity: 1;" ry="8.99999999999909" rx="8.99999999999909" y="0"/></defs><use href="#stroke-shape-render-8-d80ec607-0806-8081-8007-f84ea8405261-0" clip-path="url('#inner-stroke-render-8-d80ec607-0806-8081-8007-f84ea8405261-0')"/></g></g></g></g></g></g></g></g></g></g></g></svg>