<svg width="30" xmlns="http://www.w3.org/2000/svg" height="29" id="screenshot-354ae4a0-6ade-8042-8007-ef509188b5d0" viewBox="0 0 30 29" xmlns:xlink="http://www.w3.org/1999/xlink" fill="none" version="1.1"><g id="shape-354ae4a0-6ade-8042-8007-ef509188b5d0"><g class="frame-container-wrapper"><g class="frame-container-blur"><g class="frame-container-shadows"><g fill="none"><g class="fills" id="fills-354ae4a0-6ade-8042-8007-ef509188b5d0"><rect rx="0" ry="0" x="0" y="0" width="30" height="29" transform="matrix(1.000000, 0.000000, 0.000000, 1.000000, 0.000000, 0.000000)" class="frame-background"/></g><g class="frame-children"><g id="shape-354ae4a0-6ade-8042-8007-ef5b9ebef638" rx="0" ry="0" style="fill: rgb(0, 0, 0);"><g id="shape-354ae4a0-6ade-8042-8007-ef5b9ec07457" style="display: none;"><g class="fills" id="fills-354ae4a0-6ade-8042-8007-ef5b9ec07457"><rect width="21.75" height="29" x="4.125" transform="matrix(1.000000, 0.000000, 0.000000, 1.000000, 0.000000, 0.000000)" style="fill: none;" ry="0" fill="none" rx="0" y="0"/></g></g><g id="shape-354ae4a0-6ade-8042-8007-ef5b9ec0a0e4"><g class="fills" id="fills-354ae4a0-6ade-8042-8007-ef5b9ec0a0e4"><path d="M14.09375,2.71875L7.75,2.71875C7.251953125,2.71875,6.84375,3.12646484375,6.84375,3.625L6.84375,25.375C6.84375,25.87353515625,7.251953125,26.28125,7.75,26.28125L22.25,26.28125C22.748046875,26.28125,23.15625,25.87353515625,23.15625,25.375L23.15625,11.78125L18.171875,11.78125C15.91796875,11.78125,14.09375,9.95751953125,14.09375,7.703125L14.09375,2.71875ZM22.029296875,9.0625L16.8125,3.845703125L16.8125,7.703125C16.8125,8.45654296875,17.41796875,9.0625,18.171875,9.0625L22.029296875,9.0625ZM4.125,3.625C4.125,1.62548828125,5.75,0,7.75,0L15.3125,0C16.2734375,0,17.197265625,0.37939453125,17.876953125,1.05908203125L24.81640625,8.00341796875C25.49609375,8.68310546875,25.875,9.6064453125,25.875,10.5693359375L25.875,25.375C25.875,27.37451171875,24.25,29,22.25,29L7.75,29C5.75,29,4.125,27.37451171875,4.125,25.375L4.125,3.625Z" style="fill: rgb(27, 182, 104); fill-opacity: 1;"/></g></g></g></g></g></g></g></g></g></svg>