<svg width="25.375" xmlns="http://www.w3.org/2000/svg" height="29" id="screenshot-16d16d29-077d-8045-8007-fab62b3b126e" viewBox="-19985.688 -5223 25.375 29" xmlns:xlink="http://www.w3.org/1999/xlink" fill="none" version="1.1"><g id="shape-16d16d29-077d-8045-8007-fab62b3b126e"><g class="fills" id="fills-16d16d29-077d-8045-8007-fab62b3b126e"><path d="M-19984.328125,-5223C-19983.57421875,-5223,-19982.96875,-5222.3935546875,-19982.96875,-5221.640625L-19982.96875,-5220.0546875L-19978.154296875,-5221.255859375C-19975.994140625,-5221.7939453125,-19973.71875,-5221.5439453125,-19971.7265625,-5220.5478515625C-19969.1015625,-5219.2333984375,-19966.015625,-5219.2333984375,-19963.392578125,-5220.5478515625L-19962.8515625,-5220.8193359375C-19961.681640625,-5221.40869140625,-19960.3125,-5220.55908203125,-19960.3125,-5219.25634765625L-19960.3125,-5203.4140625C-19960.3125,-5202.66064453125,-19960.783203125,-5201.98095703125,-19961.4921875,-5201.71484375L-19963.45703125,-5200.978515625C-19966.072265625,-5199.99853515625,-19968.986328125,-5200.15087890625,-19971.48046875,-5201.39697265625C-19973.630859375,-5202.47314453125,-19976.09375,-5202.7392578125,-19978.419921875,-5202.15625L-19982.96875,-5201.0234375L-19982.96875,-5195.359375C-19982.96875,-5194.6064453125,-19983.57421875,-5194,-19984.328125,-5194C-19985.08203125,-5194,-19985.6875,-5194.6064453125,-19985.6875,-5195.359375L-19985.6875,-5221.640625C-19985.6875,-5222.3935546875,-19985.08203125,-5223,-19984.328125,-5223ZM-19982.96875,-5214.4638671875L-19978.4375,-5215.4501953125L-19978.4375,-5218.38916015625L-19982.96875,-5217.25634765625L-19982.96875,-5214.4638671875ZM-19982.96875,-5211.68359375L-19982.96875,-5209.0263671875L-19978.4375,-5210.0126953125L-19978.4375,-5212.66845703125L-19982.96875,-5211.68359375ZM-19982.96875,-5206.24609375L-19982.96875,-5203.8271484375L-19979.08203125,-5204.8017578125C-19978.869140625,-5204.85205078125,-19978.654296875,-5204.9033203125,-19978.4375,-5204.943359375L-19978.4375,-5207.23095703125L-19982.96875,-5206.24609375ZM-19975.71875,-5205.18115234375C-19973.841796875,-5205.1416015625,-19971.98828125,-5204.6884765625,-19970.28125,-5203.8388671875L-19970.28125,-5206.6591796875L-19973.41796875,-5207.58203125C-19974.16796875,-5207.8037109375,-19974.947265625,-5207.87158203125,-19975.71875,-5207.78662109375L-19975.71875,-5205.18115234375ZM-19967.5625,-5203.08544921875C-19966.50390625,-5203.00048828125,-19965.427734375,-5203.1474609375,-19964.412109375,-5203.52734375L-19963.03125,-5204.0419921875L-19963.03125,-5206.6875L-19964.486328125,-5206.35302734375C-19965.501953125,-5206.12109375,-19966.533203125,-5206.04150390625,-19967.5625,-5206.109375L-19967.5625,-5203.0791015625ZM-19963.03125,-5209.48583984375L-19963.03125,-5212.13037109375L-19964.486328125,-5211.796875C-19965.501953125,-5211.56396484375,-19966.533203125,-5211.4853515625,-19967.5625,-5211.55322265625L-19967.5625,-5208.84521484375C-19966.7421875,-5208.7666015625,-19965.91015625,-5208.8232421875,-19965.09765625,-5209.009765625L-19963.03125,-5209.48583984375ZM-19963.03125,-5214.92333984375L-19963.03125,-5217.744140625C-19964.482421875,-5217.154296875,-19966.0234375,-5216.85986328125,-19967.5625,-5216.85986328125L-19967.5625,-5214.28271484375C-19966.7421875,-5214.2041015625,-19965.91015625,-5214.2607421875,-19965.09765625,-5214.447265625L-19963.03125,-5214.92333984375ZM-19970.28125,-5217.16064453125C-19971.1953125,-5217.36962890625,-19972.0859375,-5217.6923828125,-19972.943359375,-5218.1171875C-19973.810546875,-5218.5537109375,-19974.763671875,-5218.78564453125,-19975.71875,-5218.81396484375L-19975.71875,-5215.9482421875C-19974.689453125,-5216.021484375,-19973.65234375,-5215.91455078125,-19972.65234375,-5215.6201171875L-19970.28125,-5214.92333984375L-19970.28125,-5217.154296875ZM-19970.28125,-5212.09130859375L-19973.41796875,-5213.0146484375C-19974.16796875,-5213.23486328125,-19974.947265625,-5213.302734375,-19975.71875,-5213.2177734375L-19975.71875,-5210.5107421875C-19974.689453125,-5210.583984375,-19973.65234375,-5210.47705078125,-19972.65234375,-5210.1826171875L-19970.28125,-5209.48583984375L-19970.28125,-5212.09130859375Z" style="fill: rgb(27, 182, 104); fill-opacity: 1;"/></g></g></svg>