<svg width="18" xmlns="http://www.w3.org/2000/svg" height="16" id="screenshot-d80ec607-0806-8081-8007-f84a83fc764b" viewBox="0 0 18 16" xmlns:xlink="http://www.w3.org/1999/xlink" fill="none" version="1.1"><g id="shape-d80ec607-0806-8081-8007-f84a83fc764b" rx="0" ry="0" style="fill: rgb(0, 0, 0);"><g id="shape-d80ec607-0806-8081-8007-f84a840583ab" style="display: none;"><g class="fills" id="fills-d80ec607-0806-8081-8007-f84a840583ab"><rect width="18" height="16" x="0" transform="matrix(1.000000, 0.000000, 0.000000, 1.000000, 0.000000, 0.000000)" style="fill: none;" ry="0" fill="none" rx="0" y="0"/></g></g><g id="shape-d80ec607-0806-8081-8007-f84a8405d6bb"><g class="fills" id="fills-d80ec607-0806-8081-8007-f84a8405d6bb"><path d="M5.5,0C4.396484375,0,3.5,0.89697265625,3.5,2L3.5,3.5L2,3.5C0.896484375,3.5,0,4.39697265625,0,5.5L0,14C0,15.10302734375,0.896484375,16,2,16L16,16C17.103515625,16,18,15.10302734375,18,14L18,5.5C18,4.39697265625,17.103515625,3.5,16,3.5L14.5,3.5L14.5,2C14.5,0.89697265625,13.603515625,0,12.5,0L5.5,0ZM5,2C5,1.72509765625,5.224609375,1.5,5.5,1.5L12.5,1.5C12.775390625,1.5,13,1.72509765625,13,2L13,4.25C13,4.66552734375,13.333984375,5,13.75,5L16,5C16.275390625,5,16.5,5.22509765625,16.5,5.5L16.5,14C16.5,14.27490234375,16.275390625,14.5,16,14.5L10.5,14.5L10.5,12C10.5,11.44677734375,10.052734375,11,9.5,11L8.5,11C7.947265625,11,7.5,11.44677734375,7.5,12L7.5,14.5L2,14.5C1.724609375,14.5,1.5,14.27490234375,1.5,14L1.5,5.5C1.5,5.22509765625,1.724609375,5,2,5L4.25,5C4.666015625,5,5,4.66552734375,5,4.25L5,2ZM3.5,7C3.224609375,7,3,7.22509765625,3,7.5L3,8.5C3,8.77490234375,3.224609375,9,3.5,9L4.5,9C4.775390625,9,5,8.77490234375,5,8.5L5,7.5C5,7.22509765625,4.775390625,7,4.5,7L3.5,7ZM3,10.5L3,11.5C3,11.77490234375,3.224609375,12,3.5,12L4.5,12C4.775390625,12,5,11.77490234375,5,11.5L5,10.5C5,10.22509765625,4.775390625,10,4.5,10L3.5,10C3.224609375,10,3,10.22509765625,3,10.5ZM13,10.5L13,11.5C13,11.77490234375,13.224609375,12,13.5,12L14.5,12C14.775390625,12,15,11.77490234375,15,11.5L15,10.5C15,10.22509765625,14.775390625,10,14.5,10L13.5,10C13.224609375,10,13,10.22509765625,13,10.5ZM13.5,7C13.224609375,7,13,7.22509765625,13,7.5L13,8.5C13,8.77490234375,13.224609375,9,13.5,9L14.5,9C14.775390625,9,15,8.77490234375,15,8.5L15,7.5C15,7.22509765625,14.775390625,7,14.5,7L13.5,7ZM8.25,3.25L8.25,4.25L7.25,4.25C6.974609375,4.25,6.75,4.47509765625,6.75,4.75L6.75,5.25C6.75,5.52490234375,6.974609375,5.75,7.25,5.75L8.25,5.75L8.25,6.75C8.25,7.02490234375,8.474609375,7.25,8.75,7.25L9.25,7.25C9.525390625,7.25,9.75,7.02490234375,9.75,6.75L9.75,5.75L10.75,5.75C11.025390625,5.75,11.25,5.52490234375,11.25,5.25L11.25,4.75C11.25,4.47509765625,11.025390625,4.25,10.75,4.25L9.75,4.25L9.75,3.25C9.75,2.97509765625,9.525390625,2.75,9.25,2.75L8.75,2.75C8.474609375,2.75,8.25,2.97509765625,8.25,3.25Z" style="fill: rgb(27, 182, 104); fill-opacity: 1;"/></g></g></g></svg>