<svg xmlns="http://www.w3.org/2000/svg" viewBox="0 0 576 512"><path fill="currentColor" d="M176 0c-35.3 0-64 28.7-64 64l0 64-48 0c-35.3 0-64 28.7-64 64L0 448c0 35.3 28.7 64 64 64l448 0c35.3 0 64-28.7 64-64l0-256c0-35.3-28.7-64-64-64l-48 0 0-64c0-35.3-28.7-64-64-64L176 0zM512 480l-160 0 0-80c0-26.5-21.5-48-48-48l-32 0c-26.5 0-48 21.5-48 48l0 80-160 0c-17.7 0-32-14.3-32-32l0-256c0-17.7 14.3-32 32-32l64 0c8.8 0 16-7.2 16-16l0-80c0-17.7 14.3-32 32-32l224 0c17.7 0 32 14.3 32 32l0 80c0 8.8 7.2 16 16 16l64 0c17.7 0 32 14.3 32 32l0 256c0 17.7-14.3 32-32 32zm-192 0l-64 0 0-80c0-8.8 7.2-16 16-16l32 0c8.8 0 16 7.2 16 16l0 80zM88 328l0 16c0 8.8 7.2 16 16 16l16 0c8.8 0 16-7.2 16-16l0-16c0-8.8-7.2-16-16-16l-16 0c-8.8 0-16 7.2-16 16zm16-112c-8.8 0-16 7.2-16 16l0 16c0 8.8 7.2 16 16 16l16 0c8.8 0 16-7.2 16-16l0-16c0-8.8-7.2-16-16-16l-16 0zM440 328l0 16c0 8.8 7.2 16 16 16l16 0c8.8 0 16-7.2 16-16l0-16c0-8.8-7.2-16-16-16l-16 0c-8.8 0-16 7.2-16 16zm16-112c-8.8 0-16 7.2-16 16l0 16c0 8.8 7.2 16 16 16l16 0c8.8 0 16-7.2 16-16l0-16c0-8.8-7.2-16-16-16l-16 0zM272 96l0 32-32 0c-8.8 0-16 7.2-16 16s7.2 16 16 16l32 0 0 32c0 8.8 7.2 16 16 16s16-7.2 16-16l0-32 32 0c8.8 0 16-7.2 16-16s-7.2-16-16-16l-32 0 0-32c0-8.8-7.2-16-16-16s-16 7.2-16 16z"/></svg>
