<svg width="16.003" xmlns="http://www.w3.org/2000/svg" height="16" id="screenshot-968aef07-4904-80cf-8007-eb40b7d0d0bb" viewBox="0 0 16.003 16" xmlns:xlink="http://www.w3.org/1999/xlink" fill="none" version="1.1"><g id="shape-968aef07-4904-80cf-8007-eb40b7d0d0bb" rx="0" ry="0" style="fill: rgb(0, 0, 0);"><g id="shape-968aef07-4904-80cf-8007-eb40b7d6b57f" style="display: none;"><g class="fills" id="fills-968aef07-4904-80cf-8007-eb40b7d6b57f"><rect width="15.99843765406331" height="15.9984376540624" x="0.004655959717638325" transform="matrix(1.000000, 0.000000, 0.000000, 1.000000, 0.000000, 0.000000)" style="fill: none;" ry="0" fill="none" rx="0" y="0.00156234593669069"/></g></g><g id="shape-968aef07-4904-80cf-8007-eb40b7d6edb4"><g class="fills" id="fills-968aef07-4904-80cf-8007-eb40b7d6edb4"><path d="M7.503499984741211,0.1923828125C7.788656234741211,-0.06396484375,8.220296859741211,-0.06396484375,8.503499984741211,0.1923828125L15.753499984741211,6.69140625C16.06209373474121,6.96630859375,16.08748435974121,7.44140625,15.810140609741211,7.7509765625C15.530843734741211,8.06005859375,15.060140609741211,8.0849609375,14.749593734741211,7.80712890625L14.499593734741211,7.58203125L14.499593734741211,13.9970703125C14.499593734741211,15.10009765625,13.603109359741211,15.9970703125,12.499593734741211,15.9970703125L3.501546859741211,15.9970703125C2.398031234741211,15.9970703125,1.501546859741211,15.10009765625,1.501546859741211,13.9970703125L1.501546859741211,7.58203125L1.251546859741211,7.80712890625C0.9429530501365662,8.08203125,0.47029680013656616,8.05712890625,0.19295305013656616,7.7509765625C-0.08634381741285324,7.44482421875,-0.05704694241285324,6.9697265625,0.24764055013656616,6.69140625L7.503499984741211,0.1923828125ZM8.003499984741211,1.7578125L3.003499984741211,6.24169921875L3.003499984741211,14C3.003499984741211,14.275390625,3.230062484741211,14.5,3.503499984741211,14.5L12.503499984741211,14.5C12.778890609741211,14.5,13.003499984741211,14.275390625,13.003499984741211,14L13.003499984741211,6.24169921875L8.003499984741211,1.7607421875ZM7.003499984741211,6.7509765625C7.003499984741211,6.47607421875,7.228109359741211,6.2509765625,7.503499984741211,6.2509765625L8.503499984741211,6.2509765625C8.778890609741211,6.2509765625,9.003499984741211,6.47607421875,9.003499984741211,6.7509765625L9.003499984741211,8.0009765625L10.253499984741211,8.0009765625C10.528890609741211,8.0009765625,10.753499984741211,8.2255859375,10.753499984741211,8.50048828125L10.753499984741211,9.50048828125C10.753499984741211,9.775390625,10.528890609741211,10.00048828125,10.253499984741211,10.00048828125L9.003499984741211,10.00048828125L9.003499984741211,11.25048828125C9.003499984741211,11.525390625,8.778890609741211,11.75048828125,8.503499984741211,11.75048828125L7.503499984741211,11.75048828125C7.228109359741211,11.75048828125,7.003499984741211,11.525390625,7.003499984741211,11.25048828125L7.003499984741211,10.00048828125L5.753499984741211,10.00048828125C5.480062484741211,10.00048828125,5.253499984741211,9.775390625,5.253499984741211,9.50048828125L5.253499984741211,8.50048828125C5.253499984741211,8.2255859375,5.480062484741211,8.0009765625,5.753499984741211,8.0009765625L7.003499984741211,8.0009765625L7.003499984741211,6.7509765625Z" style="fill: rgb(27, 182, 104); fill-opacity: 1;"/></g></g></g></svg>