<svg width="93" xmlns="http://www.w3.org/2000/svg" height="30" id="screenshot-4846f8c9-8139-800e-8006-dbc077a757a0" viewBox="0 0 93 30" xmlns:xlink="http://www.w3.org/1999/xlink" fill="none" version="1.1"><g id="shape-4846f8c9-8139-800e-8006-dbc077a757a0"><g class="frame-container-wrapper" opacity="1"><g class="frame-container-blur"><g class="frame-container-shadows"><g fill="none"><g class="fills" id="fills-4846f8c9-8139-800e-8006-dbc077a757a0"><rect width="93" height="30" class="frame-background" x="0" transform="matrix(1.000000, 0.000000, 0.000000, 1.000000, 0.000000, 0.000000)" style="fill: rgb(255, 255, 255); fill-opacity: 0;" ry="0" rx="0" y="0"/></g><g class="frame-children"><g id="shape-4846f8c9-8139-800e-8006-dbc077ea7b2e" style="opacity: 1;"><g class="fills" id="fills-4846f8c9-8139-800e-8006-dbc077ea7b2e"><path d="M17.9765625,0.2099609375L11.388671875,0.2099609375L11.388671875,30L32.37109375,30L32.37109375,24.0419921875L17.9765625,24.0419921875L17.9765625,0.2099609375Z" fill-rule="nonzero" style="fill: rgb(255, 255, 255); fill-opacity: 1;"/></g></g><g id="shape-4846f8c9-8139-800e-8006-dbc077ea7b30" style="opacity: 1;"><g class="fills" id="fills-4846f8c9-8139-800e-8006-dbc077ea7b30"><path d="M6.537109375,0.2099609375L0,0.2099609375L0,30L6.537109375,30L6.537109375,0.2099609375Z" fill-rule="nonzero" style="fill: rgb(255, 255, 255); fill-opacity: 1;"/></g></g><g id="shape-4846f8c9-8139-800e-8006-dbc077ea7b32" style="opacity: 1;"><g class="fills" id="fills-4846f8c9-8139-800e-8006-dbc077ea7b32"><path d="M22.775390625,11.53857421875L30.05078125,11.53857421875L30.05078125,16.15380859375L22.775390625,16.15380859375L22.775390625,11.53857421875Z" fill-rule="nonzero" style="fill: rgb(255, 255, 255); fill-opacity: 1;"/></g></g><g id="shape-4846f8c9-8139-800e-8006-dbc077ea7b34" style="opacity: 1;"><g class="fills" id="fills-4846f8c9-8139-800e-8006-dbc077ea7b34"><path d="M62.421875,15.02001953125C62.421875,7.31787109375,56.927734375,1.2685546875,48.728515625,0.33544921875L48.728515625,6.3564453125C52.8671875,7.2392578125,55.52734375,10.5966796875,55.52734375,15.10498046875L55.52734375,15.18994140625C55.52734375,20.466796875,51.88671875,24.0849609375,46.48828125,24.0849609375L41.392578125,24.0849609375L41.392578125,0.2099609375L34.796875,0.2099609375L34.796875,30L46.48828125,30C55.912109375,30,62.421875,23.4892578125,62.421875,15.10498046875L62.421875,15.02001953125Z" fill-rule="nonzero" style="fill: rgb(255, 255, 255); fill-opacity: 1;"/></g></g><g id="shape-4846f8c9-8139-800e-8006-dbc077ea7b36" style="opacity: 1;"><g class="fills" id="fills-4846f8c9-8139-800e-8006-dbc077ea7b36"><path d="M73.068359375,17.53173828125L77.044921875,7.87255859375L81.0234375,17.53173828125L73.068359375,17.53173828125ZM80.16796875,0L74.09375,0L61.26171875,30L67.9765625,30L70.71484375,23.31884765625L83.375,23.31884765625L86.11328125,30L93,30L80.16796875,0Z" fill-rule="nonzero" style="fill: rgb(255, 255, 255); fill-opacity: 1;"/></g></g></g></g></g></g></g></g></svg>