<svg width="20" xmlns="http://www.w3.org/2000/svg" height="20" id="screenshot-4846f8c9-8139-800e-8006-dbc0773a35d3" viewBox="5614 10679 20 20" style="-webkit-print-color-adjust::exact" xmlns:xlink="http://www.w3.org/1999/xlink" fill="none" version="1.1">
    <g id="shape-4846f8c9-8139-800e-8006-dbc0773a35d3" style="opacity:1">
        <defs></defs>
        <g class="fills" id="fills-4846f8c9-8139-800e-8006-dbc0773a35d3">
        <path d="M5623,10694L5625,10694L5625,10688L5623,10688L5623,10694ZM5624,10686C5624.283203125,10686,5624.52099609375,10685.904296875,5624.712890625,10685.7119140625C5624.90478515625,10685.51953125,5625.00048828125,10685.2822265625,5625,10685C5624.99951171875,10684.7177734375,5624.9033203125,10684.48046875,5624.7119140625,10684.2880859375C5624.5205078125,10684.095703125,5624.283203125,10684,5624,10684C5623.716796875,10684,5623.4794921875,10684.095703125,5623.2880859375,10684.2880859375C5623.0966796875,10684.48046875,5623.00048828125,10684.7177734375,5623,10685C5622.99951171875,10685.2822265625,5623.09521484375,10685.5205078125,5623.2880859375,10685.712890625C5623.48046875,10685.9052734375,5623.7177734375,10686.0009765625,5624,10686ZM5624,10699C5622.61669921875,10699,5621.31689453125,10698.7373046875,5620.10009765625,10698.2119140625C5618.88330078125,10697.6865234375,5617.8251953125,10696.974609375,5616.9248046875,10696.0751953125C5616.02490234375,10695.17578125,5615.3125,10694.1171875,5614.7880859375,10692.900390625C5614.26318359375,10691.6826171875,5614.00048828125,10690.3828125,5614,10689C5613.99951171875,10687.6171875,5614.26220703125,10686.3173828125,5614.7880859375,10685.099609375C5615.31396484375,10683.8828125,5616.0263671875,10682.82421875,5616.9248046875,10681.9248046875C5617.82373046875,10681.025390625,5618.8818359375,10680.3134765625,5620.10009765625,10679.7880859375C5621.31787109375,10679.2626953125,5622.6181640625,10679,5624,10679C5625.3818359375,10679,5626.68212890625,10679.2626953125,5627.89990234375,10679.7880859375C5629.1181640625,10680.3134765625,5630.17626953125,10681.025390625,5631.0751953125,10681.9248046875C5631.9736328125,10682.82421875,5632.6865234375,10683.8828125,5633.212890625,10685.099609375C5633.73974609375,10686.3173828125,5634.001953125,10687.6171875,5634,10689C5633.998046875,10690.3828125,5633.7353515625,10691.6826171875,5633.2119140625,10692.900390625C5632.6884765625,10694.1171875,5631.9765625,10695.17578125,5631.0751953125,10696.0751953125C5630.173828125,10696.974609375,5629.115234375,10697.6865234375,5627.89990234375,10698.212890625C5626.6845703125,10698.7392578125,5625.384765625,10699.0009765625,5624,10699Z" fill-rule="nonzero" style="fill:#848484;fill-opacity:1"></path>
        </g>
    </g>
</svg>