<svg xmlns="http://www.w3.org/2000/svg" id="logo_data_animado" viewBox="0 0 300 300"><style>
@keyframes a0_o { 0% { opacity: 0; } 87.778% { opacity: 0; } 88.889% { opacity: 1; } 93.333% { opacity: 1; } 94.444% { opacity: 0; } 100% { opacity: 0; } }
@keyframes a1_o { 0% { opacity: 0; } 82.222% { opacity: 0; } 83.333% { opacity: 1; } 87.778% { opacity: 1; } 88.889% { opacity: 0; } 100% { opacity: 0; } }
@keyframes a2_o { 0% { opacity: 0; } 76.667% { opacity: 0; } 77.778% { opacity: 1; } 82.222% { opacity: 1; } 83.333% { opacity: 0; } 100% { opacity: 0; } }
@keyframes a3_o { 0% { opacity: 0; } 71.111% { opacity: 0; } 72.222% { opacity: 1; } 76.667% { opacity: 1; } 77.778% { opacity: 0; } 100% { opacity: 0; } }
@keyframes a4_o { 0% { opacity: 0; } 65.556% { opacity: 0; } 66.667% { opacity: 1; } 71.111% { opacity: 1; } 72.222% { opacity: 0; } 100% { opacity: 0; } }
@keyframes a5_o { 0% { opacity: 0; } 60% { opacity: 0; } 61.111% { opacity: 1; } 65.556% { opacity: 1; } 66.667% { opacity: 0; } 100% { opacity: 0; } }
@keyframes a6_o { 0% { opacity: 0; } 54.444% { opacity: 0; } 55.556% { opacity: 1; } 60% { opacity: 1; } 61.111% { opacity: 0; } 100% { opacity: 0; } }
@keyframes a7_o { 0% { opacity: 0; } 48.889% { opacity: 0; } 50% { opacity: 1; } 54.444% { opacity: 1; } 55.556% { opacity: 0; } 100% { opacity: 0; } }
@keyframes a8_o { 0% { opacity: 0; } 43.333% { opacity: 0; } 44.444% { opacity: 1; } 48.889% { opacity: 1; } 50% { opacity: 0; } 100% { opacity: 0; } }
@keyframes a9_o { 0% { opacity: 0; } 37.778% { opacity: 0; } 38.889% { opacity: 1; } 43.333% { opacity: 1; } 44.444% { opacity: 0; } 100% { opacity: 0; } }
@keyframes a10_o { 0% { opacity: 0; } 32.222% { opacity: 0; } 33.333% { opacity: 1; } 37.778% { opacity: 1; } 38.889% { opacity: 0; } 100% { opacity: 0; } }
@keyframes a11_o { 0% { opacity: 0; } 26.667% { opacity: 0; } 27.778% { opacity: 1; } 32.222% { opacity: 1; } 33.333% { opacity: 0; } 100% { opacity: 0; } }
@keyframes a12_o { 0% { opacity: 0; } 21.111% { opacity: 0; } 22.222% { opacity: 1; } 26.667% { opacity: 1; } 27.778% { opacity: 0; } 100% { opacity: 0; } }
@keyframes a13_o { 0% { opacity: 0; } 15.556% { opacity: 0; } 16.667% { opacity: 1; } 21.111% { opacity: 1; } 22.222% { opacity: 0; } 100% { opacity: 0; } }
@keyframes a14_o { 0% { opacity: 0; } 10% { opacity: 0; } 11.111% { opacity: 1; } 15.556% { opacity: 1; } 16.667% { opacity: 0; } 100% { opacity: 0; } }
@keyframes a15_o { 0% { opacity: 0; } 4.444% { opacity: 0; } 5.556% { opacity: 1; } 10% { opacity: 1; } 11.111% { opacity: 0; } 100% { opacity: 0; } }
@keyframes a16_o { 0% { opacity: 0; } 1.111% { opacity: 1; } 4.444% { opacity: 1; } 5.556% { opacity: 0; } 100% { opacity: 0; } }
@keyframes a17_o { 0% { opacity: 0; } 93.333% { opacity: 0; } 94.444% { opacity: 1; } 98.889% { opacity: 1; } 100% { opacity: 0; } }
</style><path d="M437.5 438.7v-56.5c0-6.7-5.4-12.2-12.1-12.2c-6.7 0-12.1 5.5-12.1 12.2v54.8h15.1c3.2 0 6.3 .7 9.1 1.7Zm-36.2-1.7l-0.1-42.6c.1-6.8-5.4-12.2-12-12.2c-6.7 0-12.1 5.4-12.1 12.2v42.9c1-0.1 2-0.3 3-0.3h21.2Zm60.4 6.1c6.6 0 12.1-5.4 12.1-12.2l-0.1-36.5c.1-6.8-5.4-12.2-12-12.2c-6.7 0-12.1 5.4-12.1 12.2v36.5c0 6.8 5.4 12.2 12.1 12.2Zm36.2-36.5c-6.7 0-12.1 5.4-12.1 12.1v24.4c0 6.8 5.4 12.2 12.1 12.2c6.7 0 12.1-5.4 12.1-12.2v-24.4c0-6.7-5.4-12.1-12.1-12.1Zm-12.5 57.2c-4.7-2.9-8.3-7.4-10.1-12.7c-3.9 2.7-8.6 4.2-13.6 4.2c-2.9 0-5.6-0.6-8.2-1.5c1 3.3 2.1 6.9 2.1 10.7c0 15.1-12.2 27.4-27.2 27.4h-27.1c-3.4 0-6.1-2.8-6.1-6.1c0-3.4 2.7-6.1 6.1-6.1h27.1c8.4 0 15.1-6.8 15.1-15.2c0-8.5-6.7-15.3-15.1-15.3h-48.3c-8.3 0-15.1 6.8-15.1 15.3v24.1c0 12.6 6 24.6 16.2 32l20.1 14.8v29.6h84.5v-32.4c14.5-9.2 24.2-25.3 24.2-43.8v-24.7c-3.5 2.1-7.7 3.4-12.1 3.4c-4.6 0-8.9-1.4-12.5-3.7Z" opacity="0" fill="#0063f6" transform="translate(-292.6,-330.5)" style="animation: 9s linear infinite both a0_o;"/><path d="M499.2 453.3l-85.3 85.3l-12.4-12.4l1.3-1.3h-16.9c-3.2 0-5.8-2.6-5.8-5.9v-16.8l-1.3 1.3c-1.7 1.7-3 3.8-3.7 6.2l-8.4 28.6l28.6-8.4c2-0.7 4.5-2 6.2-3.7l12.4 12.4c-3.8 3.8-8.5 6.6-13.7 8.1l-44 12.9c-3 .9-6.4 .1-8.6-2.5c-2.3-1.9-3.1-5.3-2.2-8.4l12.9-44c1.5-5.1 4.3-9.8 8.1-13.6l85.3-85.3l47.5 47.5Zm25.9-59c9.2 9.1 9.2 23.9 0 33.1l-17.7 17.7l-47.5-47.5l17.7-17.7c9.2-9.2 24-9.2 33.1 0l14.4 14.4Z" opacity="0" fill="#0063f6" transform="translate(-293.5,-330.5)" style="animation: 9s linear infinite both a1_o;"/><path d="M432.7 374.5c3.3-2 8-2 11.6 0l62.7 35.9l1.3 .6v.3l17.8 10c4.6 2.6 6.9 8 5.5 13.1c-1.3 5.1-6 8.7-11.6 8.7h-163.6c-5 0-9.6-3.6-11-8.7c-1.4-5.1 .9-10.5 5.5-13.1l17.1-10v-0.3l2-0.6l62.7-35.9Zm-64.3 80.3h23.4v70.1h14.6v-70.1h23.3v70.1h17.6v-70.1h23.3v70.1h14.7v-70.1h23.3v71.7c.2 .1 .5-0.1 .7 .4l17.5 11.7c4.3 2.8 6.2 8.2 4.7 13.1c-1.5 4.9-6 8.3-11.2 8.3h-163.6c-5.2 0-9.7-3.4-11.2-8.3c-1.5-4.9 .4-10.3 4.7-13.1l17.5-11.7c.2-0.5 .5-0.3 .7-0.4v-71.7Z" opacity="0" fill="#0063f6" transform="translate(-293.5,-330.5)" style="animation: 9s linear infinite both a2_o;"/><path d="M410.8 465.8c1.8 7.6-6.6 13.5-13.2 9.4l-8.8-5.6l-18.6 29.8c-4.9 7.7 .7 17.9 9.9 17.9h11.7c6.4 0 11.7 5.2 11.7 11.6c0 6.5-5.3 11.7-11.7 11.7h-11.7c-27.5 0-44.3-30.2-29.7-53.6l18.5-29.7l-8.9-5.6c-6.6-4.2-4.9-14.3 2.7-16l33.4-7.7c3.1-0.7 6.3 1.2 7 4.4l7.7 33.4Zm37.6-60l15.1 24.2l-8.9 5.5c-6.6 4.1-5 14.2 2.7 16l33.3 7.7c3.2 .7 6.3-1.2 7.1-4.4l7.6-33.4c1.8-7.6-6.5-13.5-13.1-9.4l-8.9 5.6l-15.1-24.1c-13.7-22-45.7-22-59.4 0l-2.7 4.3c-3.4 5.4-1.8 12.6 3.7 16c5.4 3.5 12.7 1.8 16.1-3.6l2.7-4.4c4.6-7.4 15.3-7.1 19.8 0Zm78.2 81.2l-6.2-9.9c-3.4-5.5-10.6-7.2-16.1-3.7c-5.4 3.4-7.1 10.6-3.7 16.1l6.2 9.9c4.9 7.8-0.7 17.9-9.9 17.9h-35v-10.5c0-7.8-9.5-11.7-15-6.2l-24.3 24.2c-2.2 2.3-2.2 6 0 8.3l24.3 24.2c5.5 5.5 15 1.6 15-6.2v-10.4h35c27.5 0 44.3-30.3 29.7-53.7Z" opacity="0" fill="#0063f6" transform="translate(-293.5,-330.5)" style="animation: 9s linear infinite both a3_o;"/><path d="M508.6 379h-140.2c-12.9 0-23.4 10.5-23.4 23v104.9c0 13.6 10.5 23.7 23.4 23.7h35v30.4c0 3.6 4.1 5.6 7 3.5l45.6-33.9h52.6c12.9 0 23.4-10.4 23.4-23v-105.6c0-12.5-10.4-23-23.4-23Zm-72.6 116.9c-5 0-9.2-4.2-9.2-9.5c0-5.4 4.2-9.5 9.2-9.5c5.6 0 9.8 4.1 9.8 9.5c0 5.3-4.2 9.5-9.8 9.5Zm21.4-42.6l-14 8.4v.6c0 4-3.4 7.3-7.3 7.3c-4 0-7.3-3.3-7.3-7.3v-5.1c0-2.4 1.2-4.8 3.6-6.3l17.4-10.3c2.1-0.9 3.3-3 3.3-5.4c0-3.6-3-6.7-6.7-6.7h-15.8c-3.7 0-6.7 3.1-6.7 6.7c0 3.9-3.4 7.2-7.3 7.2c-4 0-7.3-3.3-7.3-7.2c0-11.8 9.4-21.1 21.3-21.1h15.8c11.9 0 21.3 9.3 21.3 21.1c0 7.2-3.9 14.2-10.3 18.1Z" opacity="0" fill="#0063f6" transform="translate(-293.5,-330.5)" style="animation: 9s linear infinite both a4_o;"/><path d="M426.2 385c0-6.6 5.7-12 12-12c6.9 0 12.3 5.4 12.3 12h57.5c1.6 0 3.1 .6 4.3 1.8l18 18c2.3 2.3 2.3 6.1 0 8.4l-18 18c-1.2 1.2-2.7 1.8-4.3 1.8h-141.8c-6.3 0-12-5.4-12-12v-24c0-6.6 5.7-12 12-12h60Zm96.3 108c0 6.6-5.4 12-12 12h-141.5c-1.6 0-3.1-0.7-4.2-1.8l-18-18c-2.4-2.3-2.4-6.1 0-8.4l18-18c1.1-1.2 2.6-2.1 4.2-2.1h57.2v-12h24.3v12h60c6.6 0 12 5.7 12 12v24.3Zm-84.3 72c-6.3 0-12-5.4-12-12v-36h24.3v36c0 6.6-5.4 12-12.3 12Z" opacity="0" fill="#0063f6" transform="translate(-293.6,-330.5)" style="animation: 9s linear infinite both a5_o;"/><path d="M477.6 479.6h-80.2c-7.3 0-13.3 6-13.3 13.3v13.4h106.8v-13.4c0-7.3-6-13.3-13.3-13.3Zm-93.5 80.1h106.8v-40.1h-106.8v40.1Zm93.5-180.3h-3.4v-10c0-12.9-10.4-23.4-23.3-23.4h-26.8c-12.9 0-23.3 10.5-23.3 23.4v10h-3.4c-29.5 0-53.4 23.9-53.4 53.4v100.2c0 14.8 11.9 26.7 26.7 26.7v-66.8c0-14.7 12-26.7 26.7-26.7h80.2c14.7 0 26.7 12 26.7 26.7v66.8c14.8 0 26.7-11.9 26.7-26.7v-100.2c0-29.5-23.9-53.4-53.4-53.4Zm-56.8-10c0-1.9 1.5-3.4 3.3-3.4h26.8c1.8 0 3.3 1.5 3.3 3.4v10h-33.4v-10Zm56.8 60.1c0 1.8-1.5 3.3-3.4 3.3h-73.4c-1.9 0-3.4-1.5-3.4-3.3v-6.7c0-1.8 1.5-3.3 3.4-3.3h73.4c1.9 0 3.4 1.5 3.4 3.3v6.7Z" opacity="0" fill="#0063f6" transform="translate(-292.6,-330.5)" style="animation: 9s linear infinite both a6_o;"/><path d="M517.2 480.2l.2 56.9c0 1-0.1 2-0.2 2.9v5.8c0 7.8-6.3 14.2-14.2 14.2h-5.7c-0.4 0-0.8-0.3-1.2 0c-0.5-0.3-1 0-1.5 0h-20.1c-7.8 0-14.2-6.4-14.2-14.2v-31.3c0-6.3-5.1-11.4-11.4-11.4h-22.8c-6.3 0-11.4 5.1-11.4 11.4v31.3c0 7.8-6.3 14.2-14.2 14.2h-19.9c-0.5 0-1.1 0-1.6-0.1c-0.4 .1-0.9 .1-1.3 .1h-5.7c-7.8 0-14.2-6.4-14.2-14.2v-39.8c0-0.4 0-0.7 0-1v-24.8h-11.4c-6.4 0-11.4-5-11.4-11.4c0-3.2 1.1-6 3.6-8.5l91.2-79.5c2.5-2.4 5.4-2.8 7.8-2.8c2.5 0 5.4 .7 7.6 2.5l37.9 33.3v-13c0-6.3 5.1-11.4 11.4-11.4h11.3c6.3 0 11.4 5.1 11.4 11.4v43l18.8 16.5c2.9 2.5 4.3 5.3 3.9 8.5c0 6.4-5.3 11.4-11.4 11.4h-11.3Z" opacity="0" fill="#0063f6" transform="translate(-291.5,-330.5)" style="animation: 9s linear infinite both a7_o;"/><path d="M492.8 426.6h6c6.8 0 12.2 5.4 12.2 12.1c0 6.8-5.4 12.2-12.2 12.2h-36.5c-6.7 0-12.1-5.4-12.1-12.2c0-6.7 5.4-12.1 12.1-12.1h6.1v-31.7l-2.2 .8c-6.4 2.1-13.3-1.3-15.4-7.7c-2.1-6.3 1.3-13.2 7.7-15.3l18.2-6.1c3.7-1.2 7.8-0.6 11 1.7c3.2 2.3 5 5.9 5 9.8v48.5Zm-85.6 109.1h6.1c7.1 0 12.2 5.5 12.2 12.2c0 6.7-5.1 12.1-12.2 12.1h-36.5c-6.3 0-11.8-5.4-11.8-12.1c0-6.7 5.5-12.2 11.8-12.2h6.1v-31.6l-1.9 .7c-6.4 2.1-13.2-1.3-15.4-7.7c-2.1-6.3 1.3-13.2 7.7-15.3l18.3-6.1c3.7-1.2 7.8-0.6 10.9 1.7c3.2 2.3 5.1 5.9 5.1 9.9l-0.4 48.5Zm-42.2-145.5c0-13.3 10.9-24.2 24-24.2h24.3c13.8 0 24.4 10.9 24.4 24.2v36.4c0 13.4-10.6 24.3-24.4 24.3h-24.3c-13.1 0-24-10.9-24-24.3v-36.4Zm48.3 0h-24.3v36.4h24.3v-36.4Zm73.4 84.9c13.4 0 24.3 10.9 24.3 24.3v36.3c0 13.4-10.9 24.3-24.3 24.3h-24.4c-13.4 0-24.6-10.9-24.6-24.2v-36.4c0-13.4 11.2-24.3 24.6-24.3h24.4Zm-24.4 60.6h24.4v-36.3h-24.4v36.3Z" opacity="0" fill="#0063f6" transform="translate(-293.1,-330.5)" style="animation: 9s linear infinite both a8_o;"/><path d="M529 418.8v79.2c0 36.9-30.1 67-67.1 67h-14.4c-20.3 0-39.5-7.9-53.9-22.3l-43.1-43.1c-3-3-4.5-6.9-4.5-10.8c0-8.1 6.5-15.2 15.2-15.2c4 0 7.9 1.5 10.8 4.5l22.8 22.7v-106.4c0-6.8 5.5-12.2 12.2-12.2c6.7 0 12.2 5.4 12.2 12.2v67c0 3.4 2.7 6.1 6.1 6.1c3.4 0 6.1-2.7 6.1-6.1v-79.2c0-6.7 5.5-12.2 12.2-12.2c6.7 0 12.2 5.5 12.2 12.2v79.2c0 3.4 2.7 6.1 6.1 6.1c3.4 0 6.1-2.7 6.1-6.1v-67c0-6.8 5.5-12.2 12.2-12.2c6.7 0 12.2 5.4 12.2 12.2v67c0 3.4 2.7 6.1 6.1 6.1c3.4 0 6.1-2.7 6.1-6.1v-42.6c0-6.8 5.5-12.2 12.2-12.2c6.7 0 12.2 5.4 12.2 12.2Z" opacity="0" fill="#0063f6" transform="translate(-294.5,-330.5)" style="animation: 9s linear infinite both a9_o;"/><path d="M454.7 392c4 0 8.4 2.4 10.5 6.3l36.5 67.6c4.6-1.1 9.5-1.9 14.5-1.9c26.4 0 47.8 21.5 47.8 48c0 26.5-21.4 48-47.8 48c-26.4 0-47.8-21.5-47.8-48c0-15.3 6.9-28.4 17.6-37.2l-8.1-15l-31.6 53.8c-1.7 2.7-4.6 4.4-7.8 4.4h-18.3c-2.9 23.7-23 42-47.4 42c-26.4 0-47.8-21.5-47.8-48c0-26.5 21.4-48 47.8-48c4 0 7.9 .5 11.7 1.4l9.9-19.9l-8.3-11.5h-16.3c-5 0-8.9-4-8.9-9c0-5 3.9-9 8.9-9h20.9c2.9 0 5.3 1.4 7.3 3.4l10.2 14.6h55.8l-12.9-24h-9.9c-4.7 0-9-4-9-9c0-5 4.3-9 9-9h13.5Zm34.6 120c0 14.9 12 27 26.9 27c14.9 0 26.9-12.1 26.9-27c0-14.9-12-27-26.9-27c-1.4 0-2.8 .1-4.2 .3l12.1 22.4c2.3 4.4 .7 9.8-3.6 12.2c-4.4 2.4-9.8 .8-12.2-3.6l-12-22.4c-4.4 4.8-7 11.1-7 18.1Zm-123.7-8.8l9.1-18.1c-0.6-0.1-1.3-0.1-2.2-0.1c-14.5 0-26.9 12.1-26.9 27c0 14.9 12.4 27 26.9 27c13.1 0 23.8-9 26.5-21h-24.3c-7.8 0-12.4-8-9.1-14.8Zm67.8-3.2l-27.2-38l-18.9 38h46.1Zm-12.3-48l22.3 31.1l18.2-31.1h-40.5Z" opacity="0" fill="#0063f6" transform="translate(-294.5,-330.5)" style="animation: 9s linear infinite both a10_o;"/><path d="M462.3 361v49.8l49.7-0.1l-49.7-49.7Zm-12.4 49.8v-49.8h-68.3c-10.3 0-18.6 8.4-18.6 18.7v161.6c0 10.3 8.3 18.7 18.6 18.7h111.8c10.3 0 18.6-8.4 18.6-18.7v-118.1h-49.3c-7.2 0-12.8-5.6-12.8-12.4Zm18.6 111.9h-62c-3.5 0-6.3-2.8-6.3-6.2c0-3.5 2.8-6.2 6.3-6.2l62-0.1c3.5 .1 6.2 2.8 6.2 6.3c0 3.4-2.7 6.2-6.2 6.2Zm0-24.9h-62c-3.5 0-6.3-2.8-6.3-6.2c0-3.4 2.8-6.2 6.3-6.2h62c3.5 0 6.2 2.8 6.2 6.2c0 3.4-2.7 6.2-6.2 6.2Zm6.2-31.1c0 3.4-2.7 6.2-6.2 6.2h-62c-3.5 0-6.3-2.8-6.3-6.2c0-3.4 2.8-6.2 6.3-6.2h62c3.5 0 6.2 2.8 6.2 6.2Z" opacity="0" fill="#0063f6" transform="translate(-292.6,-330.5)" style="animation: 9s linear infinite both a11_o;"/><path d="M514.5 420.1h-29.2l-0.1-17.6c.1-9.6-7.8-17.5-17.5-17.5h-58.4c-9.7 0-17.6 7.9-17.6 17.5l.1 17.6h-29.3c-9.6 0-17.5 7.8-17.5 17.5v105.2c0 9.7 7.9 17.5 17.5 17.5h152c9.6 0 17.5-7.8 17.5-17.5v-105.2c0-9.7-7.9-17.5-17.5-17.5Zm-105.2-17.6h58.4v17.6h-58.4v-17.6Zm70.1 97.2c0 3.2-2.6 5.8-5.8 5.8h-19.8v19.8c0 3.2-2.6 5.8-5.5 5.8h-19c-3.2 0-5.8-2.6-5.8-5.8v-19.4h-20.1c-3.2 0-5.8-2.7-5.8-5.9v-19c0-3.2 2.6-5.8 5.8-5.8h19.4v-20.1c0-3.2 2.6-5.8 5.9-5.8h19c3.2 0 5.5 2.6 5.5 5.8v19.7h20.4c3.2 0 5.8 2.7 5.8 5.9v19Z" opacity="0" fill="#0063f6" transform="translate(-293.6,-330.5)" style="animation: 9s linear infinite both a12_o;"/><path d="M428 554.6c-22-27.1-71-92.7-71-129.6c0-44.7 36.3-81 81-81c44.7 0 81 36.3 81 81c0 36.9-49.4 102.5-71 129.6c-5.2 6.5-14.8 6.5-20 0Zm10-102.6c14.9 0 27-12.1 27-27c0-14.9-12.1-27-27-27c-14.9 0-27 12.1-27 27c0 14.9 12.1 27 27 27Z" opacity="0" fill="#0063f6" transform="translate(-293.1,-330.5)" style="animation: 9s linear infinite both a13_o;"/><path d="M520.3 438.6c6.8 3.2 11.7 11.9 11.7 22.1c0 10.1-4.9 18.8-11.7 22v53.9c0 4.7-2.8 9-7.2 10.8c-4.4 1.8-9.4 .8-12.7-2.5l-16-16.3c-17.5-17.5-41.3-27-66.1-27h-3.2v46.7c0 6.5-5.2 11.7-11.7 11.7h-23.3c-6.5 0-11.7-5.2-11.7-11.7v-46.7c-12.9 0-23.4-10.5-23.4-23.4v-35.1c0-12.9 10.5-23.4 23.4-23.4h49.9c24.8 0 48.6-9.8 66.1-27.3l16-16c3.3-3.3 8.3-4.3 12.7-2.5c4.4 1.8 7.2 6.1 7.2 10.8v53.9Zm-102 4.5h-3.2v35.1h3.2c29.1 0 57.2 10.9 78.6 30.4v-95.9c-21.4 19.5-49.5 30.4-78.6 30.4Z" opacity="0" fill="#0063f6" transform="translate(-292.5,-330.2)" style="animation: 9s linear infinite both a14_o;"/><path d="M506.7 430.6h-148.8c-7.1 0-12.9 5.8-12.9 13v77.6c0 21.4 17.4 38.8 38.8 38.8h77.6c21.5 0 38.9-17.4 38.9-38.8h6.4c25 0 45.3-20.3 45.3-45.3c0-25-20.3-45.3-45.3-45.3Zm0 64.7h-6.4l-0.1-38.8h6.5c10.7 0 19.4 8.7 19.4 19.4c0 10.7-8.7 19.4-19.4 19.4Zm-118.1-101.6c5 2.6 8.1 8.4 8.1 14.3c0 5.3 4.4 9.6 9.8 9.6c5.3 0 9.7-4.7 9.7-9.7c0-12.7-6.8-24.6-17.8-30.9c-5-3-8.1-8.4-8.1-14.2c0-5.3-4.4-9.7-9.7-9.7c-5.4 0-9.7 4.4-9.7 9.7c0 12.7 6.8 24.5 17.7 30.9Zm45.3 0c5 2.6 8.1 8.4 8.1 14.3c0 5.3 4.4 9.6 9.7 9.6c5.4 0 9.7-4.7 9.7-9.7c0-12.7-6.8-24.6-17.7-30.9c-5-3-8.1-8.4-8.1-14.2c0-5.3-4.4-9.8-9.7-9.8c-5.4 0-9.7 4.5-9.7 9.8c0 12.7 6.7 24.5 17.7 30.9Z" opacity="0" fill="#0063f6" transform="translate(-293.7,-330.5)" style="animation: 9s linear infinite both a15_o;"/><path d="M527.6 451l-16.6-16.5c-2.1-2.2-5.1-3.4-8.2-3.4h-18.6l.1-17.6c-0.1-9.6-7.9-17.5-17.6-17.5h-58.4c-9.7 0-17.6 7.9-17.6 17.5l.1 17.6h-18.6c-3.1 0-6.1 1.2-8.2 3.4l-16.6 16.5c-2.2 2.2-3.4 5.2-3.4 8.3v36h46.8l-0.1-11.6c.1-3.3 2.6-5.9 5.9-5.9h11.7c3.2 0 5.8 2.6 5.8 5.9v11.6h46.8v-11.6c0-3.3 2.6-5.9 5.8-5.9h11.7c3.3 0 5.9 2.6 5.9 5.9v11.6h46.7v-36c0-3.1-1.2-6.1-3.4-8.3Zm-60.9-19.9h-58.4v-17.6h58.4v17.6Zm17.5 87.6c0 3.3-2.6 5.9-5.8 5.9h-11.7c-3.2 0-5.8-2.6-5.8-5.9v-11.7h-46.8v11.7c0 3.3-2.6 5.9-5.8 5.9h-11.7c-3.3 0-5.9-2.6-5.9-5.9v-11.7h-46.7v40.9c0 6.5 5.3 11.7 11.7 11.7h163.6c6.4 0 11.7-5.2 11.7-11.7v-40.9h-46.8v11.7Z" opacity="0" fill="#0063f6" transform="translate(-292.6,-329.8)" style="animation: 9s linear infinite both a16_o;"/><g transform="translate(-293.5,-330.5)"><path d="M213.9 506.4c15.8 0 28-5 36.5-14.8c8.6-9.9 12.8-23.4 12.8-40.4c0-15.3-4.3-27.9-12.9-38c-8.6-10.1-20.5-15.1-35.5-15.1h-18.3c-1.5 0-2.7 1.2-2.7 2.6v103c0 1.5 1.2 2.7 2.7 2.7h17.4Zm-83.9-152.7c0-5.1 4.1-9.3 9.2-9.3h70.7c23.8 0 44.7 4.4 62.4 13c17.8 8.6 31.6 21 41.4 37.2c9.7 16.1 14.6 35 14.6 56.6c0 35.7-10.6 62.8-31.7 81.2c-21.2 18.4-50.3 27.6-87.3 27.6h-70.1c-5.1 0-9.2-4.1-9.2-9.2v-197.1Z" clip-rule="evenodd" fill="#0063f6" fill-rule="evenodd" opacity="0" transform="translate(217.2,0)" style="animation: 9s linear infinite both a17_o;"/><path d="M525.3 617.1h-173.7c-3.7 0-6.7-3-6.7-6.7v-19.7c0-3.7 3-6.7 6.7-6.7h173.7c3.7 0 6.7 3 6.7 6.7v19.7c0 3.7-3 6.7-6.7 6.7Z" clip-rule="evenodd" fill="#0063f6" fill-rule="evenodd"/></g></svg>