<svg width="11.93" xmlns="http://www.w3.org/2000/svg" height="16" id="screenshot-5fafdfc4-1748-8085-8008-0f26be1988be" viewBox="-17063.556 -294.99 11.93 16" xmlns:xlink="http://www.w3.org/1999/xlink" fill="none" version="1.1"><g id="shape-5fafdfc4-1748-8085-8008-0f26be1988be"><g class="fills" id="fills-5fafdfc4-1748-8085-8008-0f26be1988be"><path d="M-17062.064453125,-289.1305847167969C-17062.064453125,-291.51971435546875,-17060.0859375,-293.4987487792969,-17057.58984375,-293.4987487792969C-17055.095703125,-293.4987487792969,-17053.1171875,-291.51971435546875,-17053.1171875,-289.1305847167969C-17053.1171875,-287.7138977050781,-17053.85546875,-285.9771728515625,-17054.947265625,-284.24981689453125C-17055.826171875,-282.85797119140625,-17056.841796875,-281.615234375,-17057.58984375,-280.76708984375C-17058.33984375,-281.615234375,-17059.3515625,-282.8548583984375,-17060.234375,-284.24981689453125C-17061.32421875,-285.9740905761719,-17062.064453125,-287.7138977050781,-17062.064453125,-289.1305847167969ZM-17057.58984375,-294.989990234375C-17060.8828125,-294.989990234375,-17063.5546875,-292.36785888671875,-17063.5546875,-289.1305847167969C-17063.5546875,-285.4241638183594,-17059.8203125,-280.9814453125,-17058.26171875,-279.2882385253906C-17057.89453125,-278.8905944824219,-17057.28515625,-278.8905944824219,-17056.919921875,-279.2882385253906C-17055.359375,-280.9814453125,-17051.625,-285.4241638183594,-17051.625,-289.1305847167969C-17051.625,-292.36785888671875,-17054.296875,-294.989990234375,-17057.58984375,-294.989990234375ZM-17058.583984375,-289.02496337890625C-17058.583984375,-289.5740051269531,-17058.138671875,-290.0191345214844,-17057.58984375,-290.0191345214844C-17057.041015625,-290.0191345214844,-17056.595703125,-289.5740051269531,-17056.595703125,-289.02496337890625C-17056.595703125,-288.47589111328125,-17057.041015625,-288.03076171875,-17057.58984375,-288.03076171875C-17058.138671875,-288.03076171875,-17058.583984375,-288.47589111328125,-17058.583984375,-289.02496337890625ZM-17055.10546875,-289.02496337890625C-17055.10546875,-290.3976135253906,-17056.21875,-291.5103759765625,-17057.58984375,-291.5103759765625C-17058.962890625,-291.5103759765625,-17060.076171875,-290.3976135253906,-17060.076171875,-289.02496337890625C-17060.076171875,-287.65228271484375,-17058.962890625,-286.5395202636719,-17057.58984375,-286.5395202636719C-17056.21875,-286.5395202636719,-17055.10546875,-287.65228271484375,-17055.10546875,-289.02496337890625Z" style="fill: currentColor; fill-opacity: 1;"/></g></g></svg>