<svg width="220" xmlns="http://www.w3.org/2000/svg" height="52" id="screenshot-4846f8c9-8139-800e-8006-dbc077897bdb" viewBox="0 0 220 52" xmlns:xlink="http://www.w3.org/1999/xlink" fill="none" version="1.1"><g id="shape-4846f8c9-8139-800e-8006-dbc077897bdb"><g class="frame-container-wrapper" opacity="1"><g class="frame-container-blur"><g class="frame-container-shadows"><g fill="none"><g class="fills" id="fills-4846f8c9-8139-800e-8006-dbc077897bdb"><rect rx="0" ry="0" x="0" y="0" width="220" height="52" transform="matrix(1.000000, 0.000000, 0.000000, 1.000000, 0.000000, 0.000000)" class="frame-background"/></g><g class="frame-children"><g id="shape-4846f8c9-8139-800e-8006-dbc077897bdd" rx="0" ry="0" style="opacity: 1;"><g id="shape-4846f8c9-8139-800e-8006-dbc077897be0" style="opacity: 1;"><g class="fills" id="fills-4846f8c9-8139-800e-8006-dbc077897be0"><path d="M70.14453125,31.16162109375L72.787109375,31.16162109375L71.466796875,27.3291015625L70.14453125,31.16162109375ZM72.857421875,22.59228515625L78.197265625,36.71435546875L74.70703125,36.71435546875L73.703125,33.82275390625L69.2109375,33.82275390625L68.224609375,36.71435546875L64.736328125,36.71435546875L70.07421875,22.59228515625L72.857421875,22.59228515625L72.857421875,22.59228515625Z" fill-rule="nonzero" style="fill: rgb(0, 61, 165); fill-opacity: 1;"/></g></g><g id="shape-4846f8c9-8139-800e-8006-dbc077897be3" style="opacity: 1;"><g class="fills" id="fills-4846f8c9-8139-800e-8006-dbc077897be3"><path d="M83.640625,36.71435546875L80.380859375,36.71435546875L80.380859375,25.8037109375L76.611328125,25.8037109375L76.611328125,22.8759765625L87.412109375,22.8759765625L87.412109375,25.8037109375L83.640625,25.8037109375L83.640625,36.71435546875Z" fill-rule="nonzero" style="fill: rgb(0, 61, 165); fill-opacity: 1;"/></g></g><g id="shape-4846f8c9-8139-800e-8006-dbc077897be6" style="opacity: 1;"><g class="fills" id="fills-4846f8c9-8139-800e-8006-dbc077897be6"><path d="M96.853515625,31.55224609375L96.853515625,22.8759765625L100.11328125,22.8759765625L100.11328125,31.62255859375C100.11328125,34.69140625,98.861328125,36.998046875,94.28125,36.998046875C89.701171875,36.998046875,88.44921875,34.69140625,88.44921875,31.62255859375L88.44921875,22.8759765625L91.708984375,22.8759765625L91.708984375,31.55224609375C91.708984375,32.935546875,91.97265625,34.0888671875,94.28125,34.0888671875C96.587890625,34.0888671875,96.853515625,32.935546875,96.853515625,31.55224609375L96.853515625,31.55224609375Z" fill-rule="nonzero" style="fill: rgb(0, 61, 165); fill-opacity: 1;"/></g></g><g id="shape-4846f8c9-8139-800e-8006-dbc077898f7d" style="opacity: 1;"><g class="fills" id="fills-4846f8c9-8139-800e-8006-dbc077898f7d"><path d="M109.853515625,32.47412109375C109.8359375,31.5341796875,109.236328125,31.16162109375,107.17578125,31.05517578125C104.375,30.9306640625,101.732421875,30.5048828125,101.66015625,27.22265625C101.58984375,24.01123046875,104.162109375,22.59228515625,107.052734375,22.59228515625C111.0859375,22.59228515625,113.025390625,24.33056640625,113.060546875,27.22265625L109.748046875,27.630859375C109.712890625,26.05126953125,108.779296875,25.48388671875,107.052734375,25.51953125C106.1015625,25.537109375,104.90234375,25.89208984375,104.919921875,27.15185546875C104.9375,27.9501953125,105.396484375,28.09228515625,107.31640625,28.2158203125C111.068359375,28.42919921875,113.025390625,28.99658203125,113.078125,32.40283203125C113.130859375,35.72119140625,110.240234375,36.998046875,107.31640625,36.998046875C102.876953125,36.998046875,101.34375,35.25927734375,101.30859375,32.3671875L104.62109375,31.9599609375C104.65625,33.53857421875,105.58984375,34.1240234375,107.31640625,34.07080078125C108.583984375,34.03515625,109.87109375,33.7158203125,109.853515625,32.47412109375L109.853515625,32.47412109375Z" fill-rule="nonzero" style="fill: rgb(0, 61, 165); fill-opacity: 1;"/></g></g><g id="shape-4846f8c9-8139-800e-8006-dbc077898f80" style="opacity: 1;"><g class="fills" id="fills-4846f8c9-8139-800e-8006-dbc077898f80"><path d="M124.455078125,22.8759765625L124.455078125,25.8037109375L117.744140625,25.8037109375L117.744140625,28.18115234375L123.505859375,28.18115234375L123.505859375,31.1083984375L117.744140625,31.1083984375L117.744140625,33.787109375L124.80859375,33.787109375L124.80859375,36.71435546875L114.484375,36.71435546875L114.484375,22.8759765625L124.455078125,22.8759765625Z" fill-rule="nonzero" style="fill: rgb(0, 61, 165); fill-opacity: 1;"/></g></g><g id="shape-4846f8c9-8139-800e-8006-dbc077898f83" style="opacity: 1;"><g class="fills" id="fills-4846f8c9-8139-800e-8006-dbc077898f83"><path d="M132.576171875,28.99658203125C133.263671875,28.99658203125,134.197265625,28.873046875,134.197265625,27.400390625C134.197265625,25.9453125,133.263671875,25.8037109375,132.576171875,25.8037109375L129.51171875,25.8037109375L129.51171875,28.99658203125L132.576171875,28.99658203125L132.576171875,28.99658203125ZM129.51171875,36.71435546875L126.251953125,36.71435546875L126.251953125,22.8759765625L132.330078125,22.8759765625C134.814453125,22.8759765625,137.509765625,23.58544921875,137.509765625,27.400390625C137.509765625,29.83056640625,136.453125,31.00146484375,135.04296875,31.5341796875L138.1796875,36.71435546875L134.267578125,36.71435546875L131.58984375,31.9423828125L129.51171875,31.9423828125L129.51171875,36.71435546875L129.51171875,36.71435546875Z" fill-rule="nonzero" style="fill: rgb(0, 61, 165); fill-opacity: 1;"/></g></g><g id="shape-4846f8c9-8139-800e-8006-dbc077898f86" style="opacity: 1;"><g class="fills" id="fills-4846f8c9-8139-800e-8006-dbc077898f86"><path d="M143.181640625,36.998046875L137.84375,22.8759765625L141.33203125,22.8759765625L144.57421875,32.26171875L147.814453125,22.8759765625L151.3046875,22.8759765625L145.96484375,36.998046875L143.181640625,36.998046875L143.181640625,36.998046875Z" fill-rule="nonzero" style="fill: rgb(0, 61, 165); fill-opacity: 1;"/></g></g><g id="shape-4846f8c9-8139-800e-8006-dbc077898f89" style="opacity: 1;"><g class="fills" id="fills-4846f8c9-8139-800e-8006-dbc077898f89"><path d="M155.408203125,22.8759765625L152.1484375,22.8759765625L152.1484375,36.71435546875L155.408203125,36.71435546875L155.408203125,22.8759765625Z" fill-rule="nonzero" style="fill: rgb(0, 61, 165); fill-opacity: 1;"/></g></g><g id="shape-4846f8c9-8139-800e-8006-dbc077898f8c" style="opacity: 1;"><g class="fills" id="fills-4846f8c9-8139-800e-8006-dbc077898f8c"><path d="M163.458984375,22.59228515625C167.23046875,22.59228515625,169.16796875,24.33056640625,169.203125,27.22265625L165.890625,27.630859375C165.85546875,26.05126953125,165.080078125,25.51953125,163.458984375,25.51953125C160.921875,25.51953125,160.53515625,27.5595703125,160.53515625,29.79541015625C160.53515625,32.0302734375,160.921875,34.07080078125,163.458984375,34.07080078125C165.080078125,34.07080078125,165.85546875,33.53857421875,165.890625,31.9599609375L169.203125,32.3671875C169.16796875,35.25927734375,167.23046875,36.998046875,163.458984375,36.998046875C158.931640625,36.998046875,157.240234375,34.1064453125,157.240234375,29.79541015625C157.240234375,25.48388671875,158.931640625,22.59228515625,163.458984375,22.59228515625L163.458984375,22.59228515625Z" fill-rule="nonzero" style="fill: rgb(0, 61, 165); fill-opacity: 1;"/></g></g><g id="shape-4846f8c9-8139-800e-8006-dbc077898f8f" style="opacity: 1;"><g class="fills" id="fills-4846f8c9-8139-800e-8006-dbc077898f8f"><path d="M173.974609375,22.8759765625L170.71484375,22.8759765625L170.71484375,36.71435546875L173.974609375,36.71435546875L173.974609375,22.8759765625Z" fill-rule="nonzero" style="fill: rgb(0, 61, 165); fill-opacity: 1;"/></g></g><g id="shape-4846f8c9-8139-800e-8006-dbc077898f92" style="opacity: 1;"><g class="fills" id="fills-4846f8c9-8139-800e-8006-dbc077898f92"><path d="M179.119140625,29.79541015625C179.119140625,32.0302734375,179.701171875,34.07080078125,182.30859375,34.07080078125C184.916015625,34.07080078125,185.49609375,32.0302734375,185.49609375,29.79541015625C185.49609375,27.5595703125,184.916015625,25.51953125,182.30859375,25.51953125C179.701171875,25.51953125,179.119140625,27.5595703125,179.119140625,29.79541015625ZM175.82421875,29.79541015625C175.82421875,25.48388671875,177.673828125,22.59228515625,182.30859375,22.59228515625C186.923828125,22.59228515625,188.791015625,25.48388671875,188.791015625,29.79541015625C188.791015625,34.1064453125,186.94140625,36.998046875,182.30859375,36.998046875C177.69140625,36.998046875,175.82421875,34.1064453125,175.82421875,29.79541015625Z" fill-rule="nonzero" style="fill: rgb(0, 61, 165); fill-opacity: 1;"/></g></g><g id="shape-4846f8c9-8139-800e-8006-dbc07789f678" style="opacity: 1;"><g class="fills" id="fills-4846f8c9-8139-800e-8006-dbc07789f678"><path d="M192.61328125,34.74462890625L190.640625,34.74462890625L190.640625,36.7138671875L192.61328125,36.7138671875L192.61328125,34.74462890625Z" fill-rule="nonzero" style="fill: rgb(0, 61, 165); fill-opacity: 1;"/></g></g><g id="shape-4846f8c9-8139-800e-8006-dbc07789f67b" style="opacity: 1;"><g class="fills" id="fills-4846f8c9-8139-800e-8006-dbc07789f67b"><path d="M195.009765625,31.71142578125L195.009765625,22.8759765625L196.806640625,22.8759765625L196.806640625,31.72900390625C196.806640625,33.7158203125,197.44140625,35.31298828125,200.541015625,35.31298828125C203.642578125,35.31298828125,204.27734375,33.7158203125,204.27734375,31.72900390625L204.27734375,22.8759765625L206.07421875,22.8759765625L206.07421875,31.71142578125C206.07421875,34.673828125,204.751953125,36.9267578125,200.541015625,36.9267578125C196.330078125,36.9267578125,195.009765625,34.673828125,195.009765625,31.71142578125L195.009765625,31.71142578125Z" fill-rule="nonzero" style="fill: rgb(0, 61, 165); fill-opacity: 1;"/></g></g><g id="shape-4846f8c9-8139-800e-8006-dbc07789f67e" style="opacity: 1;"><g class="fills" id="fills-4846f8c9-8139-800e-8006-dbc07789f67e"><path d="M213.76953125,29.4404296875L215.337890625,26.93896484375L217.96484375,22.8759765625L219.990234375,22.8759765625L214.65234375,30.9658203125L214.65234375,36.71435546875L212.888671875,36.71435546875L212.888671875,30.9658203125L207.55078125,22.8759765625L209.578125,22.8759765625L212.203125,26.93896484375L213.76953125,29.4404296875Z" fill-rule="nonzero" style="fill: rgb(0, 61, 165); fill-opacity: 1;"/></g></g><g id="shape-4846f8c9-8139-800e-8006-dbc07789f681" style="opacity: 1;"><g class="fills" id="fills-4846f8c9-8139-800e-8006-dbc07789f681"><path d="M8.033203125,28.59033203125L0,28.59033203125L0,51.94775390625L15.21484375,51.94775390625L8.033203125,28.59033203125L8.033203125,28.59033203125Z" fill-rule="nonzero" style="fill: rgb(0, 61, 165); fill-opacity: 1;"/></g></g><g id="shape-4846f8c9-8139-800e-8006-dbc07789f684" style="opacity: 1;"><g class="fills" id="fills-4846f8c9-8139-800e-8006-dbc07789f684"><path d="M47.865234375,15.154296875C43.9296875,15.154296875,40.638671875,12.32763671875,39.884765625,8.58349609375L22.015625,8.58349609375L18.76171875,51.947265625L51.59375,51.947265625L51.59375,14.23681640625C50.474609375,14.8193359375,49.208984375,15.154296875,47.865234375,15.154296875L47.865234375,15.154296875Z" fill-rule="nonzero" style="fill: rgb(0, 61, 165); fill-opacity: 1;"/></g></g><g id="shape-4846f8c9-8139-800e-8006-dbc07789f687" style="opacity: 1;"><g class="fills" id="fills-4846f8c9-8139-800e-8006-dbc07789f687"><path d="M33.353515625,26.52490234375C33.353515625,27.62939453125,32.083984375,28.52294921875,30.517578125,28.52294921875C28.951171875,28.52294921875,27.681640625,27.62939453125,27.681640625,26.52490234375L27.681640625,22.0849609375C27.681640625,20.97998046875,28.951171875,20.083984375,30.517578125,20.083984375C32.083984375,20.083984375,33.353515625,20.97998046875,33.353515625,22.0849609375L33.353515625,26.52490234375Z" fill-rule="nonzero" style="fill: rgb(255, 255, 255); fill-opacity: 1;"/></g></g><g id="shape-4846f8c9-8139-800e-8006-dbc07789f68a" style="opacity: 1;"><g class="fills" id="fills-4846f8c9-8139-800e-8006-dbc07789f68a"><path d="M46.27734375,26.52490234375C46.27734375,27.62939453125,45.005859375,28.52294921875,43.439453125,28.52294921875C41.875,28.52294921875,40.603515625,27.62939453125,40.603515625,26.52490234375L40.603515625,22.0849609375C40.603515625,20.97998046875,41.875,20.083984375,43.439453125,20.083984375C45.005859375,20.083984375,46.27734375,20.97998046875,46.27734375,22.0849609375L46.27734375,26.52490234375Z" fill-rule="nonzero" style="fill: rgb(255, 255, 255); fill-opacity: 1;"/></g></g><g id="shape-4846f8c9-8139-800e-8006-dbc07789f68d" style="opacity: 1;"><g class="fills" id="fills-4846f8c9-8139-800e-8006-dbc07789f68d"><path d="M33.353515625,42.95751953125C33.353515625,44.06005859375,32.083984375,44.95361328125,30.517578125,44.95361328125C28.951171875,44.95361328125,27.681640625,44.06005859375,27.681640625,42.95751953125L27.681640625,38.51513671875C27.681640625,37.41162109375,28.951171875,36.5166015625,30.517578125,36.5166015625C32.083984375,36.5166015625,33.353515625,37.41162109375,33.353515625,38.51513671875L33.353515625,42.95751953125Z" fill-rule="nonzero" style="fill: rgb(255, 255, 255); fill-opacity: 1;"/></g></g><g id="shape-4846f8c9-8139-800e-8006-dbc07789f690" style="opacity: 1;"><g class="fills" id="fills-4846f8c9-8139-800e-8006-dbc07789f690"><path d="M46.27734375,42.95751953125C46.27734375,44.06005859375,45.005859375,44.95361328125,43.439453125,44.95361328125C41.875,44.95361328125,40.603515625,44.06005859375,40.603515625,42.95751953125L40.603515625,38.51513671875C40.603515625,37.41162109375,41.875,36.5166015625,43.439453125,36.5166015625C45.005859375,36.5166015625,46.27734375,37.41162109375,46.27734375,38.51513671875L46.27734375,42.95751953125Z" fill-rule="nonzero" style="fill: rgb(255, 255, 255); fill-opacity: 1;"/></g></g><g id="shape-4846f8c9-8139-800e-8006-dbc07789f693" style="opacity: 1;"><g class="fills" id="fills-4846f8c9-8139-800e-8006-dbc07789f693"><path d="M50.841796875,5.7509765625L48.4296875,5.7509765625L48.4296875,3.162109375C48.4296875,2.59619140625,47.97265625,2.13720703125,47.412109375,2.13720703125C46.849609375,2.13720703125,46.39453125,2.59619140625,46.39453125,3.162109375L46.39453125,5.7509765625L43.986328125,5.7509765625C43.421875,5.7509765625,42.966796875,6.20849609375,42.966796875,6.77490234375C42.966796875,7.34033203125,43.421875,7.80029296875,43.986328125,7.80029296875L46.39453125,7.80029296875L46.39453125,10.06494140625C46.39453125,10.63037109375,46.849609375,11.08935546875,47.412109375,11.08935546875C47.97265625,11.08935546875,48.4296875,10.63037109375,48.4296875,10.06494140625L48.4296875,7.80029296875L50.841796875,7.80029296875C51.40234375,7.80029296875,51.859375,7.34033203125,51.859375,6.77490234375C51.859375,6.20849609375,51.40234375,5.7509765625,50.841796875,5.7509765625Z" fill-rule="nonzero" style="fill: rgb(18, 136, 72); fill-opacity: 1;"/></g></g><g id="shape-4846f8c9-8139-800e-8006-dbc07789f696" style="opacity: 1;"><g class="fills" id="fills-4846f8c9-8139-800e-8006-dbc07789f696"><path d="M43.986328125,6.3125C43.732421875,6.3125,43.525390625,6.5205078125,43.525390625,6.77490234375C43.525390625,7.03076171875,43.732421875,7.2392578125,43.986328125,7.2392578125L46.953125,7.2392578125L46.953125,10.0654296875C46.953125,10.3203125,47.16015625,10.5283203125,47.4140625,10.5283203125C47.66796875,10.5283203125,47.875,10.3203125,47.875,10.0654296875L47.875,7.2392578125L50.841796875,7.2392578125C51.095703125,7.2392578125,51.3046875,7.03076171875,51.3046875,6.77490234375C51.3046875,6.5205078125,51.095703125,6.3125,50.841796875,6.3125L47.875,6.3125L47.875,3.1630859375C47.875,2.90576171875,47.66796875,2.6982421875,47.4140625,2.6982421875C47.16015625,2.6982421875,46.953125,2.90576171875,46.953125,3.1630859375L46.953125,6.3125L43.986328125,6.3125L43.986328125,6.3125ZM47.4140625,11.650390625C46.544921875,11.650390625,45.837890625,10.93994140625,45.837890625,10.0654296875L45.837890625,8.361328125L43.986328125,8.361328125C43.119140625,8.361328125,42.412109375,7.64892578125,42.412109375,6.77490234375C42.412109375,5.90087890625,43.119140625,5.18994140625,43.986328125,5.18994140625L45.837890625,5.18994140625L45.837890625,3.1630859375C45.837890625,2.28759765625,46.544921875,1.576171875,47.4140625,1.576171875C48.28125,1.576171875,48.98828125,2.28759765625,48.98828125,3.1630859375L48.98828125,5.18994140625L50.841796875,5.18994140625C51.7109375,5.18994140625,52.41796875,5.90087890625,52.41796875,6.77490234375C52.41796875,7.64892578125,51.7109375,8.361328125,50.841796875,8.361328125L48.98828125,8.361328125L48.98828125,10.0654296875C48.98828125,10.93994140625,48.28125,11.650390625,47.4140625,11.650390625Z" fill-rule="nonzero" style="fill: rgb(18, 136, 72); fill-opacity: 1;"/></g></g><g id="shape-4846f8c9-8139-800e-8006-dbc0778a1f52" style="opacity: 1;"><g class="fills" id="fills-4846f8c9-8139-800e-8006-dbc0778a1f52"><path d="M6.658203125,0C2.98046875,0,0,3.40576171875,0,7.603515625L0,25.27685546875L0.015625,25.27587890625L9.248046875,25.27587890625C9.96875,25.27587890625,10.607421875,25.748046875,10.8203125,26.443359375L15.23828125,40.81787109375L15.24609375,40.81787109375C15.34765625,41.03759765625,15.576171875,41.27099609375,15.787109375,41.27099609375C16.0703125,41.27099609375,16.30078125,41.07177734375,16.30078125,40.82470703125L16.294921875,40.8037109375L18.845703125,6.80078125C18.91015625,5.93603515625,19.626953125,5.2685546875,20.48828125,5.2685546875L39.896484375,5.2685546875C40.361328125,3.04931640625,41.71875,1.16357421875,43.572265625,0L6.658203125,0L6.658203125,0Z" fill-rule="nonzero" style="fill: rgb(18, 136, 72); fill-opacity: 1;"/></g></g></g></g></g></g></g></g></g></svg>