<svg xmlns="http://www.w3.org/2000/svg" viewBox="0 0 512 512"><path fill="currentColor" d="M288 64a32 32 0 1 0 -64 0 32 32 0 1 0 64 0zm-96 0a64 64 0 1 1 128 0 64 64 0 1 1 -128 0zM96 112a24 24 0 1 0 0-48 24 24 0 1 0 0 48zm0-80a56 56 0 1 1 0 112 56 56 0 1 1 0-112zm320 80a24 24 0 1 0 0-48 24 24 0 1 0 0 48zm0-80a56 56 0 1 1 0 112 56 56 0 1 1 0-112zM127.2 193c-7.1 9.6-13.1 20-17.9 31-42.9 1.4-77.3 36.7-77.3 80 0 23.7 10.3 45 26.7 59.6 3.4 3 5.3 7.4 5.3 11.9L64 464c0 8.8-7.2 16-16 16s-16-7.2-16-16l0-81.6c-19.8-20.2-32-47.9-32-78.4 0-61.9 50.1-112 112-112 5.2 0 10.2 .3 15.2 1zm275.5 31c-4.8-11-10.9-21.4-17.9-31 5-.7 10.1-1 15.2-1 61.9 0 112 50.1 112 112 0 30.5-12.2 58.2-32 78.4l0 81.6c0 8.8-7.2 16-16 16s-16-7.2-16-16l0-88.4c0-4.6 1.9-8.9 5.3-11.9 16.4-14.7 26.7-35.9 26.7-59.6 0-43.3-34.4-78.5-77.3-80zM256 208c-44.2 0-80 35.8-80 80l0 16c0 23.7 10.3 45 26.7 59.6 3.4 3 5.3 7.4 5.3 11.9l0 80.4c0 13.3 10.7 24 24 24l48 0c13.3 0 24-10.7 24-24l0-80.4c0-4.6 1.9-8.9 5.3-11.9 16.4-14.7 26.7-35.9 26.7-59.6l0-16c0-44.2-35.8-80-80-80zM144 288c0-61.9 50.1-112 112-112s112 50.1 112 112l0 16c0 30.5-12.2 58.2-32 78.4l0 73.6c0 30.9-25.1 56-56 56l-48 0c-30.9 0-56-25.1-56-56l0-73.6c-19.8-20.2-32-47.9-32-78.4l0-16z"/></svg>
