<svg width="15.529" xmlns="http://www.w3.org/2000/svg" height="16" id="screenshot-968aef07-4904-80cf-8007-eb41162506c0" viewBox="-19751.529 -6713 15.529 16" xmlns:xlink="http://www.w3.org/1999/xlink" fill="none" version="1.1"><g id="shape-968aef07-4904-80cf-8007-eb41162506c0"><g class="fills" id="fills-968aef07-4904-80cf-8007-eb41162506c0"><path d="M-19751.529296875,-6711.58837890625C-19751.529296875,-6712.36767578125,-19750.896484375,-6713,-19750.1171875,-6713L-19748.470703125,-6713C-19748.080078125,-6713,-19747.765625,-6712.68505859375,-19747.765625,-6712.2939453125C-19747.765625,-6711.90283203125,-19748.080078125,-6711.58837890625,-19748.470703125,-6711.58837890625L-19750.1171875,-6711.58837890625L-19750.1171875,-6707.82373046875C-19750.1171875,-6706.0029296875,-19748.64453125,-6704.529296875,-19746.82421875,-6704.529296875C-19745.00390625,-6704.529296875,-19743.529296875,-6706.0029296875,-19743.529296875,-6707.82373046875L-19743.529296875,-6711.58837890625L-19745.17578125,-6711.58837890625C-19745.568359375,-6711.58837890625,-19745.8828125,-6711.90283203125,-19745.8828125,-6712.2939453125C-19745.8828125,-6712.68505859375,-19745.568359375,-6713,-19745.17578125,-6713L-19743.529296875,-6713C-19742.75,-6713,-19742.1171875,-6712.36767578125,-19742.1171875,-6711.58837890625L-19742.1171875,-6707.82373046875C-19742.1171875,-6705.46484375,-19743.853515625,-6703.51171875,-19746.1171875,-6703.17041015625L-19746.1171875,-6701.94140625C-19746.1171875,-6699.9912109375,-19744.5390625,-6698.41162109375,-19742.587890625,-6698.41162109375C-19740.638671875,-6698.41162109375,-19739.05859375,-6699.9912109375,-19739.05859375,-6701.94140625L-19739.05859375,-6705C-19739.05859375,-6705.03515625,-19739.056640625,-6705.07080078125,-19739.05078125,-6705.10595703125C-19740.009765625,-6705.40283203125,-19740.705078125,-6706.296875,-19740.705078125,-6707.35302734375C-19740.705078125,-6708.65283203125,-19739.65234375,-6709.7060546875,-19738.353515625,-6709.7060546875C-19737.052734375,-6709.7060546875,-19736,-6708.65283203125,-19736,-6707.35302734375C-19736,-6706.296875,-19736.697265625,-6705.40283203125,-19737.65625,-6705.10595703125C-19737.650390625,-6705.07080078125,-19737.646484375,-6705.03515625,-19737.646484375,-6705L-19737.646484375,-6701.94140625C-19737.646484375,-6699.2119140625,-19739.859375,-6697,-19742.587890625,-6697C-19745.318359375,-6697,-19747.529296875,-6699.2119140625,-19747.529296875,-6701.94140625L-19747.529296875,-6703.17041015625C-19749.794921875,-6703.51171875,-19751.529296875,-6705.46484375,-19751.529296875,-6707.82373046875L-19751.529296875,-6711.58837890625ZM-19738.353515625,-6706.41162109375C-19737.833984375,-6706.41162109375,-19737.412109375,-6706.8330078125,-19737.412109375,-6707.35302734375C-19737.412109375,-6707.87255859375,-19737.833984375,-6708.2939453125,-19738.353515625,-6708.2939453125C-19738.873046875,-6708.2939453125,-19739.294921875,-6707.87255859375,-19739.294921875,-6707.35302734375C-19739.294921875,-6706.8330078125,-19738.873046875,-6706.41162109375,-19738.353515625,-6706.41162109375Z" style="fill: rgb(171, 87, 245); fill-opacity: 1;"/></g></g></svg>