<svg xmlns="http://www.w3.org/2000/svg" viewBox="-17313.556 -294.99 10.667 16" xmlns:xlink="http://www.w3.org/1999/xlink" fill="none" version="1.1"><g id="shape-5fafdfc4-1748-8085-8008-0f26be1988b5"><g class="fills" id="fills-5fafdfc4-1748-8085-8008-0f26be1988b5"><path d="M-17308.4453125,-281.21221923828125L-17308.4453125,-279.65667724609375C-17308.4453125,-279.2872314453125,-17308.146484375,-278.989990234375,-17307.77734375,-278.989990234375C-17307.408203125,-278.989990234375,-17307.111328125,-279.2872314453125,-17307.111328125,-279.65667724609375L-17307.111328125,-284.7677917480469L-17306.22265625,-284.7677917480469C-17305.607421875,-284.7677917480469,-17305.111328125,-284.27056884765625,-17305.111328125,-283.65667724609375C-17305.111328125,-283.1177673339844,-17305.4921875,-282.6705627441406,-17306,-282.5677795410156L-17306,-281.22332763671875C-17304.751953125,-281.3344421386719,-17303.77734375,-282.38165283203125,-17303.77734375,-283.65667724609375C-17303.77734375,-285.00665283203125,-17304.873046875,-286.1011047363281,-17306.22265625,-286.1011047363281L-17307.111328125,-286.1011047363281L-17307.111328125,-291.4344482421875L-17305.22265625,-291.4344482421875C-17304.669921875,-291.4344482421875,-17304.22265625,-290.9872131347656,-17304.22265625,-290.4344482421875C-17304.22265625,-289.88165283203125,-17304.669921875,-289.4344482421875,-17305.22265625,-289.4344482421875L-17306,-289.4344482421875L-17306,-288.1011047363281L-17305.22265625,-288.1011047363281C-17303.93359375,-288.1011047363281,-17302.888671875,-289.14556884765625,-17302.888671875,-290.4344482421875C-17302.888671875,-291.72332763671875,-17303.93359375,-292.7677917480469,-17305.22265625,-292.7677917480469L-17307.111328125,-292.7677917480469L-17307.111328125,-294.3233337402344C-17307.111328125,-294.6927795410156,-17307.408203125,-294.989990234375,-17307.77734375,-294.989990234375C-17308.146484375,-294.989990234375,-17308.4453125,-294.6927795410156,-17308.4453125,-294.3233337402344L-17308.4453125,-292.7677917480469L-17312,-292.7677917480469C-17312.857421875,-292.7677917480469,-17313.5546875,-292.070556640625,-17313.5546875,-291.21221923828125C-17313.5546875,-290.3538818359375,-17312.857421875,-289.65667724609375,-17312,-289.65667724609375C-17311.142578125,-289.65667724609375,-17310.4453125,-290.3538818359375,-17310.4453125,-291.21221923828125L-17310.4453125,-291.4344482421875L-17308.4453125,-291.4344482421875L-17308.4453125,-286.1011047363281L-17309.4453125,-286.1011047363281C-17309.998046875,-286.1011047363281,-17310.4453125,-286.54833984375,-17310.4453125,-287.1011047363281C-17310.4453125,-287.614990234375,-17310.0546875,-288.0400085449219,-17309.5546875,-288.0955505371094L-17309.5546875,-289.4316711425781C-17310.791015625,-289.3733215332031,-17311.77734375,-288.3511047363281,-17311.77734375,-287.1011047363281C-17311.77734375,-285.8122253417969,-17310.732421875,-284.7677917480469,-17309.4453125,-284.7677917480469L-17308.4453125,-284.7677917480469L-17308.4453125,-282.5455627441406L-17309.333984375,-282.5455627441406C-17309.703125,-282.5455627441406,-17310,-282.2483215332031,-17310,-281.8788757324219C-17310,-281.5094299316406,-17309.703125,-281.21221923828125,-17309.333984375,-281.21221923828125L-17308.4453125,-281.21221923828125Z" style="fill: currentColor; fill-opacity: 1;"/></g></g></svg>