<svg width="30" xmlns="http://www.w3.org/2000/svg" height="29" id="screenshot-354ae4a0-6ade-8042-8007-ef580b62fffa" viewBox="0 0 30 29" xmlns:xlink="http://www.w3.org/1999/xlink" fill="none" version="1.1"><g id="shape-354ae4a0-6ade-8042-8007-ef580b62fffa"><g class="frame-container-wrapper"><g class="frame-container-blur"><g class="frame-container-shadows"><g fill="none"><g class="fills" id="fills-354ae4a0-6ade-8042-8007-ef580b62fffa"><rect rx="0" ry="0" x="0" y="0" width="30" height="29" transform="matrix(1.000000, 0.000000, 0.000000, 1.000000, 0.000000, 0.000000)" class="frame-background"/></g><g class="frame-children"><g id="shape-354ae4a0-6ade-8042-8007-ef5bd20b9127" rx="0" ry="0" style="fill: rgb(0, 0, 0);"><g id="shape-354ae4a0-6ade-8042-8007-ef5bd20e44cd" style="display: none;"><g class="fills" id="fills-354ae4a0-6ade-8042-8007-ef5bd20e44cd"><rect width="29" height="29" x="0.5" transform="matrix(1.000000, 0.000000, 0.000000, 1.000000, 0.000000, 0.000000)" style="fill: none;" ry="0" fill="none" rx="0" y="0"/></g></g><g id="shape-354ae4a0-6ade-8042-8007-ef5bd20eca0c"><g class="fills" id="fills-354ae4a0-6ade-8042-8007-ef5bd20eca0c"><path d="M15,0C17.001953125,0,18.625,1.623046875,18.625,3.625C18.625,5.626953125,17.001953125,7.25,15,7.25C12.998046875,7.25,11.375,5.626953125,11.375,3.625C11.375,1.623046875,12.998046875,0,15,0ZM2.765625,4.984375C2.765625,3.232421875,4.185546875,1.8125,5.9375,1.8125C7.689453125,1.8125,9.109375,3.232421875,9.109375,4.984375C9.109375,6.736328125,7.689453125,8.15625,5.9375,8.15625C4.185546875,8.15625,2.765625,6.736328125,2.765625,4.984375ZM6.33984375,13.6279296875C4.572265625,13.87109375,3.21875,15.38916015625,3.21875,17.21875C3.21875,18.345703125,3.728515625,19.3486328125,4.5390625,20.0166015625C4.849609375,20.27734375,5.03125,20.65673828125,5.03125,21.064453125L5.03125,25.828125C5.03125,26.58154296875,4.42578125,27.1875,3.671875,27.1875C2.91796875,27.1875,2.3125,26.58154296875,2.3125,25.828125L2.3125,21.6591796875C1.19140625,20.51513671875,0.5,18.9462890625,0.5,17.21875C0.5,13.712890625,3.337890625,10.875,6.84375,10.875C7.138671875,10.875,7.421875,10.89208984375,7.705078125,10.931640625C7.109375,11.73583984375,6.64453125,12.64794921875,6.33984375,13.6279296875ZM23.654296875,13.6279296875C23.349609375,12.64794921875,22.884765625,11.74169921875,22.2890625,10.931640625C22.572265625,10.89208984375,22.861328125,10.875,23.150390625,10.875C26.65625,10.875,29.494140625,13.712890625,29.494140625,17.21875C29.494140625,18.9462890625,28.802734375,20.51513671875,27.681640625,21.6591796875L27.681640625,25.828125C27.681640625,26.58154296875,27.076171875,27.1875,26.322265625,27.1875C25.568359375,27.1875,24.962890625,26.58154296875,24.962890625,25.828125L24.962890625,21.064453125C24.962890625,20.65673828125,25.14453125,20.27734375,25.455078125,20.0166015625C26.265625,19.3486328125,26.775390625,18.345703125,26.775390625,17.21875C26.775390625,15.38916015625,25.416015625,13.87109375,23.654296875,13.6279296875ZM27.234375,4.984375C27.234375,6.736328125,25.814453125,8.15625,24.0625,8.15625C22.310546875,8.15625,20.890625,6.736328125,20.890625,4.984375C20.890625,3.232421875,22.310546875,1.8125,24.0625,1.8125C25.814453125,1.8125,27.234375,3.232421875,27.234375,4.984375ZM15,12.6875C13,12.6875,11.375,14.31298828125,11.375,16.3125L11.375,17.21875C11.375,18.345703125,11.884765625,19.3486328125,12.6953125,20.0166015625C13.005859375,20.27734375,13.1875,20.65673828125,13.1875,21.064453125L13.1875,25.828125C13.1875,26.0771484375,13.390625,26.28125,13.640625,26.28125L16.359375,26.28125C16.609375,26.28125,16.8125,26.0771484375,16.8125,25.828125L16.8125,21.064453125C16.8125,20.65673828125,16.994140625,20.27734375,17.3046875,20.0166015625C18.115234375,19.3486328125,18.625,18.345703125,18.625,17.21875L18.625,16.3125C18.625,14.31298828125,17,12.6875,15,12.6875ZM8.65625,16.3125C8.65625,12.806640625,11.494140625,9.96875,15,9.96875C18.505859375,9.96875,21.34375,12.806640625,21.34375,16.3125L21.34375,17.21875C21.34375,18.9462890625,20.65234375,20.51513671875,19.53125,21.6591796875L19.53125,25.828125C19.53125,27.578125,18.109375,29,16.359375,29L13.640625,29C11.890625,29,10.46875,27.578125,10.46875,25.828125L10.46875,21.6591796875C9.34765625,20.51513671875,8.65625,18.9462890625,8.65625,17.21875L8.65625,16.3125Z" style="fill: rgb(27, 182, 104); fill-opacity: 1;"/></g></g></g></g></g></g></g></g></g></svg>