<svg width="36" xmlns="http://www.w3.org/2000/svg" height="36" id="screenshot-d80ec607-0806-8081-8007-f84ab81a2247" viewBox="0 0 36 36" xmlns:xlink="http://www.w3.org/1999/xlink" fill="none" version="1.1"><style>@font-face {
    font-family: 'Font Awesome 6 Pro';
    font-style: normal;
    font-weight: 400;
    font-display: block;
    src: url(http://penpot-frontend:8080/assets/by-id/4ed145cd-9270-4543-9317-2b5c1c9b3bb8) format('woff');
  }</style><g id="shape-d80ec607-0806-8081-8007-f84ab81a2247"><g class="frame-container-wrapper" opacity="1"><g class="frame-container-blur"><g class="frame-container-shadows"><g fill="none"><g class="fills" id="fills-d80ec607-0806-8081-8007-f84ab81a2247"><rect width="36" height="36" class="frame-background" x="0" transform="matrix(1.000000, 0.000000, 0.000000, 1.000000, 0.000000, 0.000000)" style="fill: rgb(255, 255, 255); fill-opacity: 1;" ry="18" rx="18" y="0"/></g><g class="frame-children"><g id="shape-d80ec607-0806-8081-8007-f84ebd25b62b"><g class="fills" id="fills-d80ec607-0806-8081-8007-f84ebd25b62b"><ellipse cx="18" cy="18" rx="18" ry="18" transform="matrix(1.000000, 0.000000, 0.000000, 1.000000, 0.000000, 0.000000)"/></g><g id="strokes-f2c2019c-b20c-802d-8007-f84fc879f7b4-d80ec607-0806-8081-8007-f84ebd25b62b" class="strokes"><g class="inner-stroke-shape" transform="matrix(1.000000, 0.000000, 0.000000, 1.000000, 0.000000, 0.000000)"><defs><clipPath id="inner-stroke-render-2-d80ec607-0806-8081-8007-f84ebd25b62b-0"><use href="#stroke-shape-render-2-d80ec607-0806-8081-8007-f84ebd25b62b-0"/></clipPath><ellipse cx="18" cy="18" rx="18" ry="18" id="stroke-shape-render-2-d80ec607-0806-8081-8007-f84ebd25b62b-0" style="fill: none; stroke-width: 2; stroke: rgb(27, 182, 104); stroke-opacity: 1;"/></defs><use href="#stroke-shape-render-2-d80ec607-0806-8081-8007-f84ebd25b62b-0" clip-path="url('#inner-stroke-render-2-d80ec607-0806-8081-8007-f84ebd25b62b-0')"/></g></g></g><g id="shape-d80ec607-0806-8081-8007-f84ab81a574c"><g class="frame-container-wrapper" opacity="1"><g class="frame-container-blur"><g class="frame-container-shadows"><g fill="none"><g class="fills" id="fills-d80ec607-0806-8081-8007-f84ab81a574c"><rect rx="0" ry="0" x="10" y="10" width="16" height="16" transform="matrix(1.000000, 0.000000, 0.000000, 1.000000, 0.000000, 0.000000)" class="frame-background"/></g><g class="frame-children"><g id="shape-d80ec607-0806-8081-8007-f84ab81a574d" style="opacity: 1; display: none;"><g transform="matrix(1.000000, 0.000000, 0.000000, 1.000000, 0.000000, 0.000000)" class="text-container" x="0.9984531931113452" y="8" width="18" height="20" rx="0" ry="0"><defs><pattern patternUnits="objectBoundingBox" width="18" height="16" id="fill-0-render-4-0"><g><rect width="18" height="16" style="fill: rgb(27, 182, 104); fill-opacity: 1;"/></g></pattern></defs><g class="fills" id="fills-d80ec607-0806-8081-8007-f84ab81a574d"><text x="0.9984531931113452" y="25.8984375" dominant-baseline="ideographic" textLength="18" lengthAdjust="spacingAndGlyphs" style="text-transform: none; font-family: &quot;Font Awesome 6 Pro&quot;; letter-spacing: normal; font-style: normal; font-weight: 400; white-space: pre; font-size: 16px; text-decoration: none; direction: ltr; fill: rgb(27, 182, 104); fill-opacity: 1;">house-medical</text></g></g></g><g id="shape-d80ec607-0806-8081-8007-f84ab81a574e" rx="0" ry="0" style="fill: rgb(0, 0, 0);"><g id="shape-d80ec607-0806-8081-8007-f84ab81a574f" style="display: none;"><g class="fills" id="fills-d80ec607-0806-8081-8007-f84ab81a574f"><rect width="15.99843765406331" height="15.9984376540624" x="10.003109152828983" transform="matrix(1.000000, 0.000000, 0.000000, 1.000000, 0.000000, 0.000000)" style="fill: none;" ry="0" fill="none" rx="0" y="10.00156234593669"/></g></g><g id="shape-d80ec607-0806-8081-8007-f84ab81a5750"><g class="fills" id="fills-d80ec607-0806-8081-8007-f84ab81a5750"><path d="M17.501953125,10.1923828125C17.787109375,9.93603515625,18.21875,9.93603515625,18.501953125,10.1923828125L25.751953125,16.69140625C26.060546875,16.96630859375,26.0859375,17.44140625,25.80859375,17.7509765625C25.529296875,18.06005859375,25.05859375,18.0849609375,24.748046875,17.80712890625L24.498046875,17.58203125L24.498046875,23.9970703125C24.498046875,25.10009765625,23.6015625,25.9970703125,22.498046875,25.9970703125L13.5,25.9970703125C12.396484375,25.9970703125,11.5,25.10009765625,11.5,23.9970703125L11.5,17.58203125L11.25,17.80712890625C10.94140625,18.08203125,10.46875,18.05712890625,10.19140625,17.7509765625C9.912109375,17.44482421875,9.94140625,16.9697265625,10.24609375,16.69140625L17.501953125,10.1923828125ZM18.001953125,11.7578125L13.001953125,16.24169921875L13.001953125,24C13.001953125,24.275390625,13.228515625,24.5,13.501953125,24.5L22.501953125,24.5C22.77734375,24.5,23.001953125,24.275390625,23.001953125,24L23.001953125,16.24169921875L18.001953125,11.7607421875ZM17.001953125,16.7509765625C17.001953125,16.47607421875,17.2265625,16.2509765625,17.501953125,16.2509765625L18.501953125,16.2509765625C18.77734375,16.2509765625,19.001953125,16.47607421875,19.001953125,16.7509765625L19.001953125,18.0009765625L20.251953125,18.0009765625C20.52734375,18.0009765625,20.751953125,18.2255859375,20.751953125,18.50048828125L20.751953125,19.50048828125C20.751953125,19.775390625,20.52734375,20.00048828125,20.251953125,20.00048828125L19.001953125,20.00048828125L19.001953125,21.25048828125C19.001953125,21.525390625,18.77734375,21.75048828125,18.501953125,21.75048828125L17.501953125,21.75048828125C17.2265625,21.75048828125,17.001953125,21.525390625,17.001953125,21.25048828125L17.001953125,20.00048828125L15.751953125,20.00048828125C15.478515625,20.00048828125,15.251953125,19.775390625,15.251953125,19.50048828125L15.251953125,18.50048828125C15.251953125,18.2255859375,15.478515625,18.0009765625,15.751953125,18.0009765625L17.001953125,18.0009765625L17.001953125,16.7509765625Z" style="fill: rgb(27, 182, 104); fill-opacity: 1;"/></g></g></g></g></g></g></g></g></g><g id="shape-d80ec607-0806-8081-8007-f84ea68b7642"><g class="frame-container-wrapper" opacity="1"><g class="frame-container-blur"><g class="frame-container-shadows"><g fill="none"><g class="fills" id="fills-d80ec607-0806-8081-8007-f84ea68b7642"><rect width="18" height="17.99999999999818" class="frame-background" x="18" transform="matrix(1.000000, 0.000000, 0.000000, 1.000000, 0.000000, 0.000000)" style="fill: rgb(255, 255, 255); fill-opacity: 1;" ry="8.99999999999909" rx="8.99999999999909" y="0"/></g><g class="frame-children"><g id="shape-d80ec607-0806-8081-8007-f84ea68b7643"><g class="frame-container-wrapper" opacity="1"><g class="frame-container-blur"><g class="frame-container-shadows"><g fill="none"><g class="fills" id="fills-d80ec607-0806-8081-8007-f84ea68b7643"><rect rx="0" ry="0" x="22.999999999996362" y="4.9999999999990905" width="7.999999999996362" height="8" transform="matrix(1.000000, 0.000000, 0.000000, 1.000000, 0.000000, 0.000000)" class="frame-background"/></g><g class="frame-children"><g id="shape-d80ec607-0806-8081-8007-f84ea68b7644" style="opacity: 1; display: none;"><g transform="matrix(1.000000, 0.000000, 0.000000, 1.000000, 0.000000, 0.000000)" class="text-container" x="18.7018934777916" y="4.2499999999990905" width="8" height="10" rx="0" ry="0"><defs><pattern patternUnits="objectBoundingBox" width="7.84375" height="8" id="fill-0-render-10-0"><g><rect width="7.84375" height="8" style="fill: rgb(0, 61, 165); fill-opacity: 1;"/></g></pattern></defs><g class="fills" id="fills-d80ec607-0806-8081-8007-f84ea68b7644"><text x="18.7018934777916" y="13.04687499999909" dominant-baseline="ideographic" textLength="7.84375" lengthAdjust="spacingAndGlyphs" style="text-transform: none; font-family: &quot;Font Awesome 6 Pro&quot;; letter-spacing: normal; font-style: normal; font-weight: 400; white-space: pre; font-size: 7.84207px; text-decoration: none; direction: ltr; fill: rgb(0, 61, 165); fill-opacity: 1;"></text></g></g></g><g id="shape-d80ec607-0806-8081-8007-f84ea68b7645" rx="0" ry="0" style="fill: rgb(0, 0, 0);"><g id="shape-d80ec607-0806-8081-8007-f84ea68b7646" style="display: none;"><g class="fills" id="fills-d80ec607-0806-8081-8007-f84ea68b7646"><rect width="8.5962130444168" height="7.641078261704024" x="22.7018934777916" transform="matrix(1.000000, 0.000000, 0.000000, 1.000000, 0.000000, 0.000000)" style="fill: none;" ry="0" fill="none" rx="0" y="5.358921738295976"/></g></g><g id="shape-d80ec607-0806-8081-8007-f84ea68b7647"><g class="fills" id="fills-d80ec607-0806-8081-8007-f84ea68b7647"><path d="M30.12890625,5.10498046875C29.98828125,4.96533203125,29.76171875,4.96533203125,29.623046875,5.10498046875C29.482421875,5.24560546875,29.482421875,5.47216796875,29.623046875,5.61083984375L29.845703125,5.83544921875L29.158203125,6.52294921875L28.216796875,5.5830078125C28.076171875,5.4423828125,27.8515625,5.4423828125,27.7109375,5.5830078125C27.57421875,5.72314453125,27.5703125,5.9501953125,27.7109375,6.0888671875L27.81640625,6.19287109375C26.029296875,7.98095703125,24.505859375,9.50390625,24.38671875,9.62109375C24.23046875,9.77734375,24.14453125,9.98974609375,24.14453125,10.21240234375L24.14453125,11.537109375L23.29296875,12.3876953125C23.15234375,12.5283203125,23.15234375,12.7548828125,23.29296875,12.89404296875C23.43359375,13.03271484375,23.66015625,13.0341796875,23.798828125,12.89404296875L24.650390625,12.0439453125L25.974609375,12.0439453125C26.197265625,12.0439453125,26.408203125,11.955078125,26.564453125,11.79833984375L29.994140625,8.37060546875L30.099609375,8.4755859375C30.240234375,8.615234375,30.46484375,8.615234375,30.60546875,8.4755859375C30.7421875,8.3349609375,30.74609375,8.107421875,30.60546875,7.96875L29.6640625,7.0283203125L30.3515625,6.3408203125L30.57421875,6.56494140625C30.71484375,6.70556640625,30.943359375,6.70556640625,31.080078125,6.56494140625C31.220703125,6.4248046875,31.220703125,6.19775390625,31.080078125,6.05908203125L30.126953125,5.103515625ZM29.48828125,7.8662109375L26.05859375,11.2939453125C26.037109375,11.31689453125,26.0078125,11.32861328125,25.974609375,11.32861328125L24.861328125,11.32861328125L24.861328125,10.21337890625C24.861328125,10.1826171875,24.87109375,10.1513671875,24.892578125,10.12841796875L25.455078125,9.56591796875L25.798828125,9.9091796875C25.939453125,10.04931640625,26.16796875,10.04931640625,26.3046875,9.9091796875C26.4453125,9.7685546875,26.4453125,9.5419921875,26.3046875,9.40380859375L25.9609375,9.06005859375L26.888671875,8.13330078125L27.232421875,8.4765625C27.373046875,8.61669921875,27.599609375,8.61669921875,27.73828125,8.4765625C27.876953125,8.3359375,27.87890625,8.109375,27.73828125,7.97119140625L27.39453125,7.62744140625L28.322265625,6.70068359375C28.708984375,7.0888671875,29.09765625,7.4765625,29.48828125,7.8662109375Z" style="fill: rgb(0, 61, 165); fill-opacity: 1;"/></g></g></g></g></g></g></g></g></g></g></g></g><g id="strokes-f2c2019c-b20c-802d-8007-f84fc8803521-d80ec607-0806-8081-8007-f84ea68b7642" class="strokes"><g class="inner-stroke-shape" transform="matrix(1.000000, 0.000000, 0.000000, 1.000000, 0.000000, 0.000000)"><defs><clipPath id="inner-stroke-render-8-d80ec607-0806-8081-8007-f84ea68b7642-0"><use href="#stroke-shape-render-8-d80ec607-0806-8081-8007-f84ea68b7642-0"/></clipPath><rect width="18" height="17.99999999999818" class="frame-background" x="18" id="stroke-shape-render-8-d80ec607-0806-8081-8007-f84ea68b7642-0" style="fill: none; stroke-width: 2; stroke: rgb(0, 61, 165); stroke-opacity: 1;" ry="8.99999999999909" rx="8.99999999999909" y="0"/></defs><use href="#stroke-shape-render-8-d80ec607-0806-8081-8007-f84ea68b7642-0" clip-path="url('#inner-stroke-render-8-d80ec607-0806-8081-8007-f84ea68b7642-0')"/></g></g></g></g></g></g></g></g></g></g></g></svg>