<svg width="36" xmlns="http://www.w3.org/2000/svg" height="36" id="screenshot-968aef07-4904-80cf-8007-eb3f4320abe4" viewBox="0 0 36 36" xmlns:xlink="http://www.w3.org/1999/xlink" fill="none" version="1.1"><style>@font-face {
    font-family: 'Font Awesome 6 Pro';
    font-style: normal;
    font-weight: 400;
    font-display: block;
    src: url(http://penpot-frontend:8080/assets/by-id/4ed145cd-9270-4543-9317-2b5c1c9b3bb8) format('woff');
  }</style><g id="shape-968aef07-4904-80cf-8007-eb3f4320abe4"><g class="frame-container-wrapper" opacity="1"><g class="frame-container-blur"><g class="frame-container-shadows"><g fill="none"><g class="fills" id="fills-968aef07-4904-80cf-8007-eb3f4320abe4"><rect width="36" height="36" class="frame-background" x="0" transform="matrix(1.000000, 0.000000, 0.000000, 1.000000, 0.000000, 0.000000)" style="fill: rgb(255, 255, 255); fill-opacity: 1;" ry="18" rx="18" y="0"/></g><g class="frame-children"><g id="shape-968aef07-4904-80cf-8007-eb3f4320abe5"><g class="frame-container-wrapper" opacity="1"><g class="frame-container-blur"><g class="frame-container-shadows"><g fill="none"><g class="fills" id="fills-968aef07-4904-80cf-8007-eb3f4320abe5"><rect rx="0" ry="0" x="10" y="10" width="16" height="16" transform="matrix(1.000000, 0.000000, 0.000000, 1.000000, 0.000000, 0.000000)" class="frame-background"/></g><g class="frame-children"><g id="shape-968aef07-4904-80cf-8007-eb3f4320abe6" style="opacity: 1; display: none;"><g transform="matrix(1.000000, 0.000000, 0.000000, 1.000000, 0.000000, 0.000000)" class="text-container" x="0.9984531931113452" y="8" width="18" height="20" rx="0" ry="0"><defs><pattern patternUnits="objectBoundingBox" width="18" height="16" id="fill-0-render-3-0"><g><rect width="18" height="16" style="fill: rgb(27, 182, 104); fill-opacity: 1;"/></g></pattern></defs><g class="fills" id="fills-968aef07-4904-80cf-8007-eb3f4320abe6"><text x="0.9984531931113452" y="25.8984375" dominant-baseline="ideographic" textLength="18" lengthAdjust="spacingAndGlyphs" style="text-transform: none; font-family: &quot;Font Awesome 6 Pro&quot;; letter-spacing: normal; font-style: normal; font-weight: 400; white-space: pre; font-size: 16px; text-decoration: none; direction: ltr; fill: rgb(27, 182, 104); fill-opacity: 1;">house-medical</text></g></g></g><g id="shape-968aef07-4904-80cf-8007-eb40b7d0d0bb" rx="0" ry="0" style="fill: rgb(0, 0, 0);"><g id="shape-968aef07-4904-80cf-8007-eb40b7d6b57f" style="display: none;"><g class="fills" id="fills-968aef07-4904-80cf-8007-eb40b7d6b57f"><rect width="15.99843765406331" height="15.9984376540624" x="10.003109152828983" transform="matrix(1.000000, 0.000000, 0.000000, 1.000000, 0.000000, 0.000000)" style="fill: none;" ry="0" fill="none" rx="0" y="10.00156234593669"/></g></g><g id="shape-968aef07-4904-80cf-8007-eb40b7d6edb4"><g class="fills" id="fills-968aef07-4904-80cf-8007-eb40b7d6edb4"><path d="M17.501953125,10.1923828125C17.787109375,9.93603515625,18.21875,9.93603515625,18.501953125,10.1923828125L25.751953125,16.69140625C26.060546875,16.96630859375,26.0859375,17.44140625,25.80859375,17.7509765625C25.529296875,18.06005859375,25.05859375,18.0849609375,24.748046875,17.80712890625L24.498046875,17.58203125L24.498046875,23.9970703125C24.498046875,25.10009765625,23.6015625,25.9970703125,22.498046875,25.9970703125L13.5,25.9970703125C12.396484375,25.9970703125,11.5,25.10009765625,11.5,23.9970703125L11.5,17.58203125L11.25,17.80712890625C10.94140625,18.08203125,10.46875,18.05712890625,10.19140625,17.7509765625C9.912109375,17.44482421875,9.94140625,16.9697265625,10.24609375,16.69140625L17.501953125,10.1923828125ZM18.001953125,11.7578125L13.001953125,16.24169921875L13.001953125,24C13.001953125,24.275390625,13.228515625,24.5,13.501953125,24.5L22.501953125,24.5C22.77734375,24.5,23.001953125,24.275390625,23.001953125,24L23.001953125,16.24169921875L18.001953125,11.7607421875ZM17.001953125,16.7509765625C17.001953125,16.47607421875,17.2265625,16.2509765625,17.501953125,16.2509765625L18.501953125,16.2509765625C18.77734375,16.2509765625,19.001953125,16.47607421875,19.001953125,16.7509765625L19.001953125,18.0009765625L20.251953125,18.0009765625C20.52734375,18.0009765625,20.751953125,18.2255859375,20.751953125,18.50048828125L20.751953125,19.50048828125C20.751953125,19.775390625,20.52734375,20.00048828125,20.251953125,20.00048828125L19.001953125,20.00048828125L19.001953125,21.25048828125C19.001953125,21.525390625,18.77734375,21.75048828125,18.501953125,21.75048828125L17.501953125,21.75048828125C17.2265625,21.75048828125,17.001953125,21.525390625,17.001953125,21.25048828125L17.001953125,20.00048828125L15.751953125,20.00048828125C15.478515625,20.00048828125,15.251953125,19.775390625,15.251953125,19.50048828125L15.251953125,18.50048828125C15.251953125,18.2255859375,15.478515625,18.0009765625,15.751953125,18.0009765625L17.001953125,18.0009765625L17.001953125,16.7509765625Z" style="fill: rgb(27, 182, 104); fill-opacity: 1;"/></g></g></g></g></g></g></g></g></g></g></g></g><g id="strokes-c8e93cc1-d58c-809b-8007-f8114e0d8abe-968aef07-4904-80cf-8007-eb3f4320abe4" class="strokes"><g class="inner-stroke-shape" transform="matrix(1.000000, 0.000000, 0.000000, 1.000000, 0.000000, 0.000000)"><defs><clipPath id="inner-stroke-render-1-968aef07-4904-80cf-8007-eb3f4320abe4-0"><use href="#stroke-shape-render-1-968aef07-4904-80cf-8007-eb3f4320abe4-0"/></clipPath><rect width="36" height="36" class="frame-background" x="0" id="stroke-shape-render-1-968aef07-4904-80cf-8007-eb3f4320abe4-0" style="fill: none; stroke-width: 2; stroke: rgb(27, 182, 104); stroke-opacity: 1;" ry="18" rx="18" y="0"/></defs><use href="#stroke-shape-render-1-968aef07-4904-80cf-8007-eb3f4320abe4-0" clip-path="url('#inner-stroke-render-1-968aef07-4904-80cf-8007-eb3f4320abe4-0')"/></g></g></g></g></g></svg>