<svg width="16.003" xmlns="http://www.w3.org/2000/svg" height="15.997" id="screenshot-968aef07-4904-80cf-8007-eb40b7d6edb4" viewBox="-19808.002 -6713 16.003 15.997" xmlns:xlink="http://www.w3.org/1999/xlink" fill="none" version="1.1"><g id="shape-968aef07-4904-80cf-8007-eb40b7d6edb4"><g class="fills" id="fills-968aef07-4904-80cf-8007-eb40b7d6edb4"><path d="M-19800.498046875,-6712.8076171875C-19800.212890625,-6713.06396484375,-19799.78125,-6713.06396484375,-19799.498046875,-6712.8076171875L-19792.248046875,-6706.30859375C-19791.939453125,-6706.03369140625,-19791.9140625,-6705.55859375,-19792.19140625,-6705.2490234375C-19792.470703125,-6704.93994140625,-19792.94140625,-6704.9150390625,-19793.251953125,-6705.19287109375L-19793.501953125,-6705.41796875L-19793.501953125,-6699.0029296875C-19793.501953125,-6697.89990234375,-19794.3984375,-6697.0029296875,-19795.501953125,-6697.0029296875L-19804.5,-6697.0029296875C-19805.603515625,-6697.0029296875,-19806.5,-6697.89990234375,-19806.5,-6699.0029296875L-19806.5,-6705.41796875L-19806.75,-6705.19287109375C-19807.05859375,-6704.91796875,-19807.53125,-6704.94287109375,-19807.80859375,-6705.2490234375C-19808.087890625,-6705.55517578125,-19808.05859375,-6706.0302734375,-19807.75390625,-6706.30859375L-19800.498046875,-6712.8076171875ZM-19799.998046875,-6711.2421875L-19804.998046875,-6706.75830078125L-19804.998046875,-6699C-19804.998046875,-6698.724609375,-19804.771484375,-6698.5,-19804.498046875,-6698.5L-19795.498046875,-6698.5C-19795.22265625,-6698.5,-19794.998046875,-6698.724609375,-19794.998046875,-6699L-19794.998046875,-6706.75830078125L-19799.998046875,-6711.2392578125ZM-19800.998046875,-6706.2490234375C-19800.998046875,-6706.52392578125,-19800.7734375,-6706.7490234375,-19800.498046875,-6706.7490234375L-19799.498046875,-6706.7490234375C-19799.22265625,-6706.7490234375,-19798.998046875,-6706.52392578125,-19798.998046875,-6706.2490234375L-19798.998046875,-6704.9990234375L-19797.748046875,-6704.9990234375C-19797.47265625,-6704.9990234375,-19797.248046875,-6704.7744140625,-19797.248046875,-6704.49951171875L-19797.248046875,-6703.49951171875C-19797.248046875,-6703.224609375,-19797.47265625,-6702.99951171875,-19797.748046875,-6702.99951171875L-19798.998046875,-6702.99951171875L-19798.998046875,-6701.74951171875C-19798.998046875,-6701.474609375,-19799.22265625,-6701.24951171875,-19799.498046875,-6701.24951171875L-19800.498046875,-6701.24951171875C-19800.7734375,-6701.24951171875,-19800.998046875,-6701.474609375,-19800.998046875,-6701.74951171875L-19800.998046875,-6702.99951171875L-19802.248046875,-6702.99951171875C-19802.521484375,-6702.99951171875,-19802.748046875,-6703.224609375,-19802.748046875,-6703.49951171875L-19802.748046875,-6704.49951171875C-19802.748046875,-6704.7744140625,-19802.521484375,-6704.9990234375,-19802.248046875,-6704.9990234375L-19800.998046875,-6704.9990234375L-19800.998046875,-6706.2490234375Z" style="fill: rgb(27, 182, 104); fill-opacity: 1;"/></g></g></svg>