<svg height="12" xmlns="http://www.w3.org/2000/svg" viewBox="0 0 576 512"><path fill="currentColor" d="M32 48C32 21.5 53.5 0 80 0l56 0c13.3 0 24 10.7 24 24s-10.7 24-24 24l-56 0 0 128c0 61.9 50.1 112 112 112s112-50.1 112-112l0-128-56 0c-13.3 0-24-10.7-24-24S234.7 0 248 0l56 0c26.5 0 48 21.5 48 48l0 128c0 80.2-59 146.6-136 158.2l0 41.8c0 66.3 53.7 120 120 120s120-53.7 120-120l0-104c0-1.2 .1-2.4 .3-3.6-32.6-10.1-56.3-40.5-56.3-76.4 0-44.2 35.8-80 80-80s80 35.8 80 80c0 35.9-23.7 66.3-56.3 76.4 .2 1.2 .3 2.4 .3 3.6l0 104c0 92.8-75.2 168-168 168S168 468.8 168 376l0-41.8C91 322.6 32 256.2 32 176L32 48zM480 224a32 32 0 1 0 0-64 32 32 0 1 0 0 64z" style="fill: #b46af6; fill-opacity: 1;"/></svg>
