<svg xmlns="http://www.w3.org/2000/svg" viewBox="0 0 576 512"><path fill="currentColor" d="M497.5-17c-9.4-9.4-24.6-9.4-33.9 0s-9.4 24.6 0 33.9l15 15-46.1 46.1-63-63c-9.4-9.4-24.6-9.4-33.9 0s-9.4 24.6 0 33.9l7 7c-119.8 119.8-221.8 221.8-229.7 229.7-10.5 10.5-16.4 24.7-16.4 39.6l0 88.8-57 57c-9.4 9.4-9.4 24.6 0 33.9s24.6 9.4 33.9 0l57-57 88.8 0c14.9 0 29.1-5.9 39.6-16.4l229.7-229.7 7 7c9.4 9.4 24.6 9.4 33.9 0s9.4-24.6 0-33.9l-63-63 46.1-46.1 15 15c9.4 9.4 24.6 9.4 33.9 0s9.4-24.6 0-33.9l-64-64zM454.6 168L224.9 397.7c-1.5 1.5-3.5 2.3-5.7 2.3l-74.7 0 0-74.7c0-2.1 .8-4.2 2.3-5.7l37.7-37.7 23 23c9.4 9.4 24.6 9.4 33.9 0s9.4-24.6 0-33.9l-23-23 62.1-62.1 23 23c9.4 9.4 24.6 9.4 33.9 0s9.4-24.6 0-33.9l-23-23 62.1-62.1c26 26 52 52 78.1 78.1z"/></svg>
