<svg width="18" xmlns="http://www.w3.org/2000/svg" height="16" id="screenshot-d80ec607-0806-8081-8007-f84a8405d6bb" viewBox="-19865 -6713 18 16" xmlns:xlink="http://www.w3.org/1999/xlink" fill="none" version="1.1"><g id="shape-d80ec607-0806-8081-8007-f84a8405d6bb"><g class="fills" id="fills-d80ec607-0806-8081-8007-f84a8405d6bb"><path d="M-19859.5,-6713C-19860.603515625,-6713,-19861.5,-6712.10302734375,-19861.5,-6711L-19861.5,-6709.5L-19863,-6709.5C-19864.103515625,-6709.5,-19865,-6708.60302734375,-19865,-6707.5L-19865,-6699C-19865,-6697.89697265625,-19864.103515625,-6697,-19863,-6697L-19849,-6697C-19847.896484375,-6697,-19847,-6697.89697265625,-19847,-6699L-19847,-6707.5C-19847,-6708.60302734375,-19847.896484375,-6709.5,-19849,-6709.5L-19850.5,-6709.5L-19850.5,-6711C-19850.5,-6712.10302734375,-19851.396484375,-6713,-19852.5,-6713L-19859.5,-6713ZM-19860,-6711C-19860,-6711.27490234375,-19859.775390625,-6711.5,-19859.5,-6711.5L-19852.5,-6711.5C-19852.224609375,-6711.5,-19852,-6711.27490234375,-19852,-6711L-19852,-6708.75C-19852,-6708.33447265625,-19851.666015625,-6708,-19851.25,-6708L-19849,-6708C-19848.724609375,-6708,-19848.5,-6707.77490234375,-19848.5,-6707.5L-19848.5,-6699C-19848.5,-6698.72509765625,-19848.724609375,-6698.5,-19849,-6698.5L-19854.5,-6698.5L-19854.5,-6701C-19854.5,-6701.55322265625,-19854.947265625,-6702,-19855.5,-6702L-19856.5,-6702C-19857.052734375,-6702,-19857.5,-6701.55322265625,-19857.5,-6701L-19857.5,-6698.5L-19863,-6698.5C-19863.275390625,-6698.5,-19863.5,-6698.72509765625,-19863.5,-6699L-19863.5,-6707.5C-19863.5,-6707.77490234375,-19863.275390625,-6708,-19863,-6708L-19860.75,-6708C-19860.333984375,-6708,-19860,-6708.33447265625,-19860,-6708.75L-19860,-6711ZM-19861.5,-6706C-19861.775390625,-6706,-19862,-6705.77490234375,-19862,-6705.5L-19862,-6704.5C-19862,-6704.22509765625,-19861.775390625,-6704,-19861.5,-6704L-19860.5,-6704C-19860.224609375,-6704,-19860,-6704.22509765625,-19860,-6704.5L-19860,-6705.5C-19860,-6705.77490234375,-19860.224609375,-6706,-19860.5,-6706L-19861.5,-6706ZM-19862,-6702.5L-19862,-6701.5C-19862,-6701.22509765625,-19861.775390625,-6701,-19861.5,-6701L-19860.5,-6701C-19860.224609375,-6701,-19860,-6701.22509765625,-19860,-6701.5L-19860,-6702.5C-19860,-6702.77490234375,-19860.224609375,-6703,-19860.5,-6703L-19861.5,-6703C-19861.775390625,-6703,-19862,-6702.77490234375,-19862,-6702.5ZM-19852,-6702.5L-19852,-6701.5C-19852,-6701.22509765625,-19851.775390625,-6701,-19851.5,-6701L-19850.5,-6701C-19850.224609375,-6701,-19850,-6701.22509765625,-19850,-6701.5L-19850,-6702.5C-19850,-6702.77490234375,-19850.224609375,-6703,-19850.5,-6703L-19851.5,-6703C-19851.775390625,-6703,-19852,-6702.77490234375,-19852,-6702.5ZM-19851.5,-6706C-19851.775390625,-6706,-19852,-6705.77490234375,-19852,-6705.5L-19852,-6704.5C-19852,-6704.22509765625,-19851.775390625,-6704,-19851.5,-6704L-19850.5,-6704C-19850.224609375,-6704,-19850,-6704.22509765625,-19850,-6704.5L-19850,-6705.5C-19850,-6705.77490234375,-19850.224609375,-6706,-19850.5,-6706L-19851.5,-6706ZM-19856.75,-6709.75L-19856.75,-6708.75L-19857.75,-6708.75C-19858.025390625,-6708.75,-19858.25,-6708.52490234375,-19858.25,-6708.25L-19858.25,-6707.75C-19858.25,-6707.47509765625,-19858.025390625,-6707.25,-19857.75,-6707.25L-19856.75,-6707.25L-19856.75,-6706.25C-19856.75,-6705.97509765625,-19856.525390625,-6705.75,-19856.25,-6705.75L-19855.75,-6705.75C-19855.474609375,-6705.75,-19855.25,-6705.97509765625,-19855.25,-6706.25L-19855.25,-6707.25L-19854.25,-6707.25C-19853.974609375,-6707.25,-19853.75,-6707.47509765625,-19853.75,-6707.75L-19853.75,-6708.25C-19853.75,-6708.52490234375,-19853.974609375,-6708.75,-19854.25,-6708.75L-19855.25,-6708.75L-19855.25,-6709.75C-19855.25,-6710.02490234375,-19855.474609375,-6710.25,-19855.75,-6710.25L-19856.25,-6710.25C-19856.525390625,-6710.25,-19856.75,-6710.02490234375,-19856.75,-6709.75Z" style="fill: rgb(27, 182, 104); fill-opacity: 1;"/></g></g></svg>