<svg width="36" xmlns="http://www.w3.org/2000/svg" height="36" id="screenshot-d80ec607-0806-8081-8007-f84956c5e16e" viewBox="0 0 36 36" xmlns:xlink="http://www.w3.org/1999/xlink" fill="none" version="1.1"><style>@font-face {
    font-family: 'Font Awesome 6 Pro';
    font-style: normal;
    font-weight: 400;
    font-display: block;
    src: url(http://penpot-frontend:8080/assets/by-id/4ed145cd-9270-4543-9317-2b5c1c9b3bb8) format('woff');
  }</style><g id="shape-d80ec607-0806-8081-8007-f84956c5e16e"><g class="frame-container-wrapper" opacity="1"><g class="frame-container-blur"><g class="frame-container-shadows"><g fill="none"><g class="fills" id="fills-d80ec607-0806-8081-8007-f84956c5e16e"><rect width="36" height="36" class="frame-background" x="0" transform="matrix(1.000000, 0.000000, 0.000000, 1.000000, 0.000000, 0.000000)" style="fill: rgb(255, 255, 255); fill-opacity: 1;" ry="18" rx="18" y="0"/></g><g class="frame-children"><g id="shape-d80ec607-0806-8081-8007-f84956c5e170"><g class="frame-container-wrapper" opacity="1"><g class="frame-container-blur"><g class="frame-container-shadows"><g fill="none"><g class="fills" id="fills-d80ec607-0806-8081-8007-f84956c5e170"><rect rx="0" ry="0" x="10" y="10" width="16" height="16" transform="matrix(1.000000, 0.000000, 0.000000, 1.000000, 0.000000, 0.000000)" class="frame-background"/></g><g class="frame-children"><g id="shape-d80ec607-0806-8081-8007-f84956c5e171" style="opacity: 1; display: none;"><g transform="matrix(1.000000, 0.000000, 0.000000, 1.000000, 0.000000, 0.000000)" class="text-container" x="-2" y="8" width="20" height="20" rx="0" ry="0"><defs><pattern patternUnits="objectBoundingBox" width="20" height="16" id="fill-0-render-3-0"><g><rect width="20" height="16" style="fill: rgb(39, 171, 205); fill-opacity: 1;"/></g></pattern></defs><g class="fills" id="fills-d80ec607-0806-8081-8007-f84956c5e171"><text x="-2" y="25.8984375" dominant-baseline="ideographic" textLength="20" lengthAdjust="spacingAndGlyphs" style="text-transform: none; font-family: &quot;Font Awesome 6 Pro&quot;; letter-spacing: normal; font-style: normal; font-weight: 400; white-space: pre; font-size: 16px; text-decoration: none; direction: ltr; fill: rgb(39, 171, 205); fill-opacity: 1;">hospital</text></g></g></g><g id="shape-1383a17a-2874-802b-8008-1f0005516205" width="27.5" height="22" rx="0" ry="0" style="fill: rgb(0, 0, 0);"><g id="shape-1383a17a-2874-802b-8008-1f000554eceb" rx="0" ry="0" style="fill: rgb(0, 0, 0);"><g id="shape-1383a17a-2874-802b-8008-1f0005565760"><g class="fills" id="fills-1383a17a-2874-802b-8008-1f0005565760"><path d="M15.400390625,10C14.15625,10,13.150390625,11.00634765625,13.150390625,12.25L13.150390625,12.5L10.400390625,12.5C9.15625,12.5,8.150390625,13.50634765625,8.150390625,14.75L8.150390625,23.75C8.150390625,24.99365234375,9.15625,26,10.400390625,26L10.40625,26L10.4140625,26L10.41796875,26L10.42578125,26L10.431640625,26L10.4375,26L10.4453125,26L10.44921875,26L10.45703125,26L10.462890625,26L10.46875,26L10.4765625,26L10.48046875,26L10.48828125,26L10.494140625,26L10.5,26L10.5078125,26L10.51171875,26L10.51953125,26L10.525390625,26L10.53125,26L10.5390625,26L10.54296875,26L10.55078125,26L10.556640625,26L10.5625,26L10.5703125,26L10.57421875,26L10.58203125,26L10.587890625,26L10.59375,26L10.6015625,26L10.60546875,26L10.61328125,26L10.619140625,26L10.625,26L10.6328125,26L10.63671875,26L10.64453125,26L10.650390625,26L10.65625,26L10.6640625,26L10.66796875,26L10.67578125,26L10.681640625,26L10.6875,26L10.6953125,26L10.69921875,26L10.70703125,26L10.712890625,26L10.71875,26L10.7265625,26L10.73046875,26L10.73828125,26L10.744140625,26L10.75,26L10.7578125,26L10.76171875,26L10.76953125,26L10.775390625,26L10.78125,26L10.7890625,26L10.79296875,26L10.80078125,26L10.806640625,26L10.8125,26L10.8203125,26L10.82421875,26L10.83203125,26L10.837890625,26L10.84375,26L10.8515625,26L10.85546875,26L10.86328125,26L10.869140625,26L10.875,26L10.8828125,26L10.88671875,26L10.89453125,26L10.900390625,26L10.90625,26L10.9140625,26L10.91796875,26L10.92578125,26L10.931640625,26L10.9375,26L10.9453125,26L10.94921875,26L10.95703125,26L10.962890625,26L10.96875,26L10.9765625,26L10.98046875,26L10.98828125,26L10.994140625,26L11,26L11.0078125,26L11.01171875,26L11.01953125,26L11.025390625,26L11.03125,26L11.0390625,26L11.04296875,26L11.05078125,26L11.056640625,26L11.0625,26L11.0703125,26L11.07421875,26L11.08203125,26L11.087890625,26L11.09375,26L11.1015625,26L11.10546875,26L11.11328125,26L11.119140625,26L11.125,26L11.1328125,26L11.13671875,26L11.14453125,26L11.150390625,26L11.15625,26L11.1640625,26L11.16796875,26L11.17578125,26L11.181640625,26L11.1875,26L11.1953125,26L11.19921875,26L11.20703125,26L11.212890625,26L11.21875,26L11.2265625,26L11.23046875,26L11.23828125,26L11.244140625,26L11.25,26L11.2578125,26L11.26171875,26L11.26953125,26L11.275390625,26L11.28125,26L11.2890625,26L11.29296875,26L11.30078125,26L11.306640625,26L11.3125,26L11.3203125,26L11.32421875,26L11.33203125,26L11.337890625,26L11.34375,26L11.3515625,26L11.35546875,26L11.36328125,26L11.369140625,26L11.375,26L11.3828125,26L11.38671875,26L11.39453125,26L11.400390625,26L11.40625,26L11.4140625,26L11.41796875,26L11.42578125,26L11.431640625,26L11.4375,26L11.4453125,26L11.44921875,26L11.45703125,26L11.462890625,26L11.46875,26L11.4765625,26L11.48046875,26L11.48828125,26L11.494140625,26L11.5,26L11.5078125,26L11.51171875,26L11.51953125,26L11.525390625,26L11.53125,26L11.5390625,26L11.54296875,26L11.55078125,26L11.556640625,26L11.5625,26L11.5703125,26L11.57421875,26L11.58203125,26L11.587890625,26L11.59375,26L11.6015625,26L11.60546875,26L11.61328125,26L11.619140625,26L11.625,26L11.6328125,26L11.63671875,26L11.64453125,26L11.650390625,26L11.65625,26L11.6640625,26L11.66796875,26L11.67578125,26L11.681640625,26L11.6875,26L11.6953125,26L11.69921875,26L11.70703125,26L11.712890625,26L11.71875,26L11.7265625,26L11.73046875,26L11.73828125,26L11.744140625,26L11.75,26L11.7578125,26L11.76171875,26L11.76953125,26L11.775390625,26L11.78125,26L11.7890625,26L11.79296875,26L11.80078125,26L11.806640625,26L11.8125,26L11.8203125,26L11.82421875,26L11.83203125,26L11.837890625,26L11.84375,26L11.8515625,26L11.85546875,26L11.86328125,26L11.869140625,26L11.875,26L11.8828125,26L11.88671875,26L11.89453125,26L11.900390625,26L11.90625,26L11.9140625,26L11.91796875,26L11.92578125,26L11.931640625,26L11.9375,26L11.9453125,26L11.94921875,26L11.95703125,26L11.962890625,26L11.96875,26L11.9765625,26L11.98046875,26L11.98828125,26L11.994140625,26L12,26L12.0078125,26L12.01171875,26L12.01953125,26L12.025390625,26L12.03125,26L12.0390625,26L12.04296875,26L12.05078125,26L12.056640625,26L12.0625,26L12.0703125,26L12.07421875,26L12.08203125,26L12.087890625,26L12.09375,26L12.1015625,26L12.10546875,26L12.11328125,26L12.119140625,26L12.125,26L12.1328125,26L12.13671875,26L12.14453125,26L12.150390625,26L12.15625,26L12.1640625,26L12.16796875,26L12.17578125,26L12.181640625,26L12.1875,26L12.1953125,26L12.19921875,26L12.20703125,26L12.212890625,26L12.21875,26L12.2265625,26L12.23046875,26L12.23828125,26L12.244140625,26L12.25,26L12.2578125,26L12.26171875,26L12.26953125,26L12.275390625,26L12.28125,26L12.2890625,26L12.29296875,26L12.30078125,26L12.306640625,26L12.3125,26L12.3203125,26L12.32421875,26L12.33203125,26L12.337890625,26L12.34375,26L12.3515625,26L12.35546875,26L12.36328125,26L12.369140625,26L12.375,26L12.3828125,26L12.38671875,26L12.39453125,26L12.400390625,26L12.40625,26L12.4140625,26L12.41796875,26L12.42578125,26L12.431640625,26L12.4375,26L12.4453125,26L12.44921875,26L12.45703125,26L12.462890625,26L12.46875,26L12.4765625,26L12.48046875,26L12.48828125,26L12.494140625,26L12.5,26L12.5078125,26L12.51171875,26L12.51953125,26L12.525390625,26L12.53125,26L12.5390625,26L12.54296875,26L12.55078125,26L12.556640625,26L12.5625,26L12.5703125,26L12.57421875,26L12.58203125,26L12.587890625,26L12.59375,26L12.6015625,26L12.60546875,26L12.61328125,26L12.619140625,26L12.625,26L12.6328125,26L12.63671875,26L12.64453125,26L12.650390625,26L12.65625,26L12.6640625,26L12.66796875,26L12.67578125,26L12.681640625,26L12.6875,26L12.6953125,26L12.69921875,26L12.70703125,26L12.712890625,26L12.71875,26L12.7265625,26L12.73046875,26L12.73828125,26L12.744140625,26L12.75,26L12.7578125,26L12.76171875,26L12.76953125,26L12.775390625,26L12.78125,26L12.7890625,26L12.79296875,26L12.80078125,26L12.806640625,26L12.8125,26L12.8203125,26L12.82421875,26L12.83203125,26L12.837890625,26L12.84375,26L12.8515625,26L12.85546875,26L12.86328125,26L12.869140625,26L12.875,26L12.8828125,26L12.88671875,26L12.89453125,26L12.900390625,26L12.90625,26L12.9140625,26L12.91796875,26L12.92578125,26L12.931640625,26L12.9375,26L12.9453125,26L12.94921875,26L12.95703125,26L12.962890625,26L12.96875,26L12.9765625,26L12.98046875,26L12.98828125,26L12.994140625,26L13,26L13.0078125,26L13.01171875,26L13.01953125,26L13.025390625,26L13.03125,26L13.0390625,26L13.04296875,26L13.05078125,26L13.056640625,26L13.0625,26L13.0703125,26L13.07421875,26L13.08203125,26L13.087890625,26L13.09375,26L13.1015625,26L13.10546875,26L13.11328125,26L13.119140625,26L13.125,26L13.1328125,26L13.13671875,26L13.14453125,26L13.150390625,26L13.15625,26L13.1640625,26L13.16796875,26L13.17578125,26L13.181640625,26L13.1875,26L13.1953125,26L13.19921875,26L13.20703125,26L13.212890625,26L13.21875,26L13.2265625,26L13.23046875,26L13.23828125,26L13.244140625,26L13.25,26L13.2578125,26L13.26171875,26L13.26953125,26L13.275390625,26L13.28125,26L13.2890625,26L13.29296875,26L13.30078125,26L13.306640625,26L13.3125,26L13.3203125,26L13.32421875,26L13.33203125,26L13.337890625,26L13.34375,26L13.3515625,26L13.35546875,26L13.36328125,26L13.369140625,26L13.375,26L13.3828125,26L13.38671875,26L13.39453125,26L13.400390625,26L13.40625,26L13.4140625,26L13.41796875,26L13.42578125,26L13.431640625,26L13.4375,26L13.4453125,26L13.44921875,26L13.45703125,26L13.462890625,26L13.46875,26L13.4765625,26L13.48046875,26L13.48828125,26L13.494140625,26L13.5,26L13.5078125,26L13.51171875,26L13.51953125,26L13.525390625,26L13.53125,26L13.5390625,26L13.54296875,26L13.55078125,26L13.556640625,26L13.5625,26L13.5703125,26L13.57421875,26L13.58203125,26L13.587890625,26L13.59375,26L13.6015625,26C13.6015625,26,13.6015625,26,13.6015625,26L22.1015625,26L22.3515625,26C22.3515625,26,22.3515625,26,22.3515625,26L25.6015625,26C26.84375,26,27.8515625,24.99365234375,27.8515625,23.75L27.8515625,14.75C27.8515625,13.50634765625,26.84375,12.5,25.6015625,12.5L22.8515625,12.5L22.8515625,12.25C22.8515625,11.00634765625,21.84375,10,20.6015625,10L15.400390625,10L15.400390625,10M23.150390625,14L25.900390625,14C26.31640625,14,26.650390625,14.33447265625,26.650390625,14.75L26.650390625,16L24.900390625,16C24.484375,16,24.150390625,16.33447265625,24.150390625,16.75C24.150390625,17.16552734375,24.484375,17.5,24.900390625,17.5L26.650390625,17.5L26.650390625,19L24.900390625,19C24.484375,19,24.150390625,19.33447265625,24.150390625,19.75C24.150390625,20.16552734375,24.484375,20.5,24.900390625,20.5L26.650390625,20.5L26.650390625,23.75C26.650390625,24.16552734375,26.31640625,24.5,25.900390625,24.5L23.150390625,24.5L23.150390625,20.5L23.150390625,14L23.150390625,14M10.400390625,14L13.150390625,14L13.150390625,24.5C13.150390625,24.5,13.150390625,24.5,13.1484375,24.5L13.140625,24.5L13.134765625,24.5L13.12890625,24.5L13.12109375,24.5L13.1171875,24.5L13.109375,24.5L13.103515625,24.5L13.09765625,24.5L13.08984375,24.5L13.0859375,24.5L13.078125,24.5L13.072265625,24.5L13.06640625,24.5L13.05859375,24.5L13.0546875,24.5L13.046875,24.5L13.041015625,24.5L13.03515625,24.5L13.02734375,24.5L13.0234375,24.5L13.015625,24.5L13.009765625,24.5L13.00390625,24.5L12.99609375,24.5L12.9921875,24.5L12.984375,24.5L12.978515625,24.5L12.97265625,24.5L12.96484375,24.5L12.9609375,24.5L12.953125,24.5L12.947265625,24.5L12.94140625,24.5L12.93359375,24.5L12.9296875,24.5L12.921875,24.5L12.916015625,24.5L12.91015625,24.5L12.90234375,24.5L12.8984375,24.5L12.890625,24.5L12.884765625,24.5L12.87890625,24.5L12.87109375,24.5L12.8671875,24.5L12.859375,24.5L12.853515625,24.5L12.84765625,24.5L12.83984375,24.5L12.8359375,24.5L12.828125,24.5L12.822265625,24.5L12.81640625,24.5L12.80859375,24.5L12.8046875,24.5L12.796875,24.5L12.791015625,24.5L12.78515625,24.5L12.77734375,24.5L12.7734375,24.5L12.765625,24.5L12.759765625,24.5L12.75390625,24.5L12.74609375,24.5L12.7421875,24.5L12.734375,24.5L12.728515625,24.5L12.72265625,24.5L12.71484375,24.5L12.7109375,24.5L12.703125,24.5L12.697265625,24.5L12.69140625,24.5L12.68359375,24.5L12.6796875,24.5L12.671875,24.5L12.666015625,24.5L12.66015625,24.5L12.65234375,24.5L12.6484375,24.5L12.640625,24.5L12.634765625,24.5L12.62890625,24.5L12.62109375,24.5L12.6171875,24.5L12.609375,24.5L12.603515625,24.5L12.59765625,24.5L12.58984375,24.5L12.5859375,24.5L12.578125,24.5L12.572265625,24.5L12.56640625,24.5L12.55859375,24.5L12.5546875,24.5L12.546875,24.5L12.541015625,24.5L12.53515625,24.5L12.52734375,24.5L12.5234375,24.5L12.515625,24.5L12.509765625,24.5L12.50390625,24.5L12.49609375,24.5L12.4921875,24.5L12.484375,24.5L12.478515625,24.5L12.47265625,24.5L12.46484375,24.5L12.4609375,24.5L12.453125,24.5L12.447265625,24.5L12.44140625,24.5L12.43359375,24.5L12.4296875,24.5L12.421875,24.5L12.416015625,24.5L12.41015625,24.5L12.40234375,24.5L12.3984375,24.5L12.390625,24.5L12.384765625,24.5L12.37890625,24.5L12.37109375,24.5L12.3671875,24.5L12.359375,24.5L12.353515625,24.5L12.34765625,24.5L12.33984375,24.5L12.3359375,24.5L12.328125,24.5L12.322265625,24.5L12.31640625,24.5L12.30859375,24.5L12.3046875,24.5L12.296875,24.5L12.291015625,24.5L12.28515625,24.5L12.27734375,24.5L12.2734375,24.5L12.265625,24.5L12.259765625,24.5L12.25390625,24.5L12.24609375,24.5L12.2421875,24.5L12.234375,24.5L12.228515625,24.5L12.22265625,24.5L12.21484375,24.5L12.2109375,24.5L12.203125,24.5L12.197265625,24.5L12.19140625,24.5L12.18359375,24.5L12.1796875,24.5L12.171875,24.5L12.166015625,24.5L12.16015625,24.5L12.15234375,24.5L12.1484375,24.5L12.140625,24.5L12.134765625,24.5L12.12890625,24.5L12.12109375,24.5L12.1171875,24.5L12.109375,24.5L12.103515625,24.5L12.09765625,24.5L12.08984375,24.5L12.0859375,24.5L12.078125,24.5L12.072265625,24.5L12.06640625,24.5L12.05859375,24.5L12.0546875,24.5L12.046875,24.5L12.041015625,24.5L12.03515625,24.5L12.02734375,24.5L12.0234375,24.5L12.015625,24.5L12.009765625,24.5L12.00390625,24.5L11.99609375,24.5L11.9921875,24.5L11.984375,24.5L11.978515625,24.5L11.97265625,24.5L11.96484375,24.5L11.9609375,24.5L11.953125,24.5L11.947265625,24.5L11.94140625,24.5L11.93359375,24.5L11.9296875,24.5L11.921875,24.5L11.916015625,24.5L11.91015625,24.5L11.90234375,24.5L11.8984375,24.5L11.890625,24.5L11.884765625,24.5L11.87890625,24.5L11.87109375,24.5L11.8671875,24.5L11.859375,24.5L11.853515625,24.5L11.84765625,24.5L11.83984375,24.5L11.8359375,24.5L11.828125,24.5L11.822265625,24.5L11.81640625,24.5L11.80859375,24.5L11.8046875,24.5L11.796875,24.5L11.791015625,24.5L11.78515625,24.5L11.77734375,24.5L11.7734375,24.5L11.765625,24.5L11.759765625,24.5L11.75390625,24.5L11.74609375,24.5L11.7421875,24.5L11.734375,24.5L11.728515625,24.5L11.72265625,24.5L11.71484375,24.5L11.7109375,24.5L11.703125,24.5L11.697265625,24.5L11.69140625,24.5L11.68359375,24.5L11.6796875,24.5L11.671875,24.5L11.666015625,24.5L11.66015625,24.5L11.65234375,24.5L11.6484375,24.5L11.640625,24.5L11.634765625,24.5L11.62890625,24.5L11.62109375,24.5L11.6171875,24.5L11.609375,24.5L11.603515625,24.5L11.59765625,24.5L11.58984375,24.5L11.5859375,24.5L11.578125,24.5L11.572265625,24.5L11.56640625,24.5L11.55859375,24.5L11.5546875,24.5L11.546875,24.5L11.541015625,24.5L11.53515625,24.5L11.52734375,24.5L11.5234375,24.5L11.515625,24.5L11.509765625,24.5L11.50390625,24.5L11.49609375,24.5L11.4921875,24.5L11.484375,24.5L11.478515625,24.5L11.47265625,24.5L11.46484375,24.5L11.4609375,24.5L11.453125,24.5L11.447265625,24.5L11.44140625,24.5L11.43359375,24.5L11.4296875,24.5L11.421875,24.5L11.416015625,24.5L11.41015625,24.5L11.40234375,24.5L11.3984375,24.5L11.390625,24.5L11.384765625,24.5L11.37890625,24.5L11.37109375,24.5L11.3671875,24.5L11.359375,24.5L11.353515625,24.5L11.34765625,24.5L11.33984375,24.5L11.3359375,24.5L11.328125,24.5L11.322265625,24.5L11.31640625,24.5L11.30859375,24.5L11.3046875,24.5L11.296875,24.5L11.291015625,24.5L11.28515625,24.5L11.27734375,24.5L11.2734375,24.5L11.265625,24.5L11.259765625,24.5L11.25390625,24.5L11.24609375,24.5L11.2421875,24.5L11.234375,24.5L11.228515625,24.5L11.22265625,24.5L11.21484375,24.5L11.2109375,24.5L11.203125,24.5L11.197265625,24.5L11.19140625,24.5L11.18359375,24.5L11.1796875,24.5L11.171875,24.5L11.166015625,24.5L11.16015625,24.5L11.15234375,24.5L11.1484375,24.5L11.140625,24.5L11.134765625,24.5L11.12890625,24.5L11.12109375,24.5L11.1171875,24.5L11.109375,24.5L11.103515625,24.5L11.09765625,24.5L11.08984375,24.5L11.0859375,24.5L11.078125,24.5L11.072265625,24.5L11.06640625,24.5L11.05859375,24.5L11.0546875,24.5L11.046875,24.5L11.041015625,24.5L11.03515625,24.5L11.02734375,24.5L11.0234375,24.5L11.015625,24.5L11.009765625,24.5L11.00390625,24.5L10.99609375,24.5L10.9921875,24.5L10.984375,24.5L10.978515625,24.5L10.97265625,24.5L10.96484375,24.5L10.9609375,24.5L10.953125,24.5L10.947265625,24.5L10.94140625,24.5L10.93359375,24.5L10.9296875,24.5L10.921875,24.5L10.916015625,24.5L10.91015625,24.5L10.90234375,24.5L10.8984375,24.5L10.890625,24.5L10.884765625,24.5L10.87890625,24.5L10.87109375,24.5L10.8671875,24.5L10.859375,24.5L10.853515625,24.5L10.84765625,24.5L10.83984375,24.5L10.8359375,24.5L10.828125,24.5L10.822265625,24.5L10.81640625,24.5L10.80859375,24.5L10.8046875,24.5L10.796875,24.5L10.791015625,24.5L10.78515625,24.5L10.77734375,24.5L10.7734375,24.5L10.765625,24.5L10.759765625,24.5L10.75390625,24.5L10.74609375,24.5L10.7421875,24.5L10.734375,24.5L10.728515625,24.5L10.72265625,24.5L10.71484375,24.5L10.7109375,24.5L10.703125,24.5L10.697265625,24.5L10.69140625,24.5L10.68359375,24.5L10.6796875,24.5L10.671875,24.5L10.666015625,24.5L10.66015625,24.5L10.65234375,24.5L10.6484375,24.5L10.640625,24.5L10.634765625,24.5L10.62890625,24.5L10.62109375,24.5L10.6171875,24.5L10.609375,24.5L10.603515625,24.5L10.59765625,24.5L10.58984375,24.5L10.5859375,24.5L10.578125,24.5L10.572265625,24.5C10.16015625,24.5,9.822265625,24.16552734375,9.822265625,23.75L9.822265625,20.5L11.572265625,20.5C11.98828125,20.5,12.322265625,20.16552734375,12.322265625,19.75C12.322265625,19.33447265625,11.98828125,19,11.572265625,19L9.822265625,19L9.822265625,17.5L11.572265625,17.5C11.98828125,17.5,12.322265625,17.16552734375,12.322265625,16.75C12.322265625,16.33447265625,11.98828125,16,11.572265625,16L9.822265625,16L9.822265625,14.75C9.822265625,14.33447265625,10.15625,14,10.572265625,14L10.400390625,14M14.650390625,12.25C14.650390625,11.83447265625,14.984375,11.5,15.400390625,11.5L20.900390625,11.5C21.31640625,11.5,21.650390625,11.83447265625,21.650390625,12.25L21.650390625,20.5L21.650390625,24.5L19.650390625,24.5L19.650390625,22.5C19.650390625,21.671875,18.978515625,21,18.150390625,21C17.322265625,21,16.650390625,21.671875,16.650390625,22.5L16.650390625,24.5L14.650390625,24.5L14.650390625,12.25L14.650390625,12.25M17.400390625,13L17.400390625,13.75L16.650390625,13.75C16.375,13.75,16.150390625,13.97509765625,16.150390625,14.25L16.150390625,14.75C16.150390625,15.02490234375,16.375,15.25,16.650390625,15.25L17.400390625,15.25L17.400390625,16C17.400390625,16.27490234375,17.625,16.5,17.900390625,16.5L18.400390625,16.5C18.67578125,16.5,18.900390625,16.27490234375,18.900390625,16L18.900390625,15.25L19.650390625,15.25C19.92578125,15.25,20.150390625,15.02490234375,20.150390625,14.75L20.150390625,14.25C20.150390625,13.97509765625,19.92578125,13.75,19.650390625,13.75L18.900390625,13.75L18.900390625,13C18.900390625,12.72509765625,18.67578125,12.5,18.400390625,12.5L17.900390625,12.5C17.625,12.5,17.400390625,12.72509765625,17.400390625,13L17.400390625,13" class="fills" style="fill: rgb(39, 171, 205); fill-opacity: 1;"/></g></g></g></g></g></g></g></g></g></g></g></g></g><g id="strokes-9fd1f458-52ce-80a0-8008-1f00e5dfb581-d80ec607-0806-8081-8007-f84956c5e16e" class="strokes"><g class="inner-stroke-shape" transform="matrix(1.000000, 0.000000, 0.000000, 1.000000, 0.000000, 0.000000)"><defs><clipPath id="inner-stroke-render-1-d80ec607-0806-8081-8007-f84956c5e16e-0"><use href="#stroke-shape-render-1-d80ec607-0806-8081-8007-f84956c5e16e-0"/></clipPath><rect width="36" height="36" class="frame-background" x="0" id="stroke-shape-render-1-d80ec607-0806-8081-8007-f84956c5e16e-0" style="fill: none; stroke-width: 2; stroke: rgb(39, 171, 205); stroke-opacity: 1;" ry="18" rx="18" y="0"/></defs><use href="#stroke-shape-render-1-d80ec607-0806-8081-8007-f84956c5e16e-0" clip-path="url('#inner-stroke-render-1-d80ec607-0806-8081-8007-f84956c5e16e-0')"/></g></g></g></g></g></svg>