<svg width="36" xmlns="http://www.w3.org/2000/svg" height="36" id="screenshot-d80ec607-0806-8081-8007-f84a2118a6a4" viewBox="0 0 36 36" xmlns:xlink="http://www.w3.org/1999/xlink" fill="none" version="1.1"><style>@font-face {
    font-family: 'Font Awesome 6 Pro';
    font-style: normal;
    font-weight: 400;
    font-display: block;
    src: url(http://penpot-frontend:8080/assets/by-id/4ed145cd-9270-4543-9317-2b5c1c9b3bb8) format('woff');
  }</style><g id="shape-d80ec607-0806-8081-8007-f84a2118a6a4"><g class="frame-container-wrapper" opacity="1"><g class="frame-container-blur"><g class="frame-container-shadows"><g fill="none"><g class="fills" id="fills-d80ec607-0806-8081-8007-f84a2118a6a4"><rect width="36" height="36" class="frame-background" x="0" transform="matrix(1.000000, 0.000000, 0.000000, 1.000000, 0.000000, 0.000000)" style="fill: rgb(255, 255, 255); fill-opacity: 1;" ry="18" rx="18" y="0"/></g><g class="frame-children"><g id="shape-d80ec607-0806-8081-8007-f84a2118a6a5"><g class="frame-container-wrapper" opacity="1"><g class="frame-container-blur"><g class="frame-container-shadows"><g fill="none"><g class="fills" id="fills-d80ec607-0806-8081-8007-f84a2118a6a5"><rect rx="0" ry="0" x="10" y="10" width="16" height="16" transform="matrix(1.000000, 0.000000, 0.000000, 1.000000, 0.000000, 0.000000)" class="frame-background"/></g><g class="frame-children"><g id="shape-d80ec607-0806-8081-8007-f84a2118a6a6" style="opacity: 1; display: none;"><g transform="matrix(1.000000, 0.000000, 0.000000, 1.000000, 0.000000, 0.000000)" class="text-container" x="-1" y="8" width="20" height="20" rx="0" ry="0"><defs><pattern patternUnits="objectBoundingBox" width="20" height="16" id="fill-0-render-3-0"><g><rect width="20" height="16" style="fill: rgb(27, 182, 104); fill-opacity: 1;"/></g></pattern></defs><g class="fills" id="fills-d80ec607-0806-8081-8007-f84a2118a6a6"><text x="-1" y="25.8984375" dominant-baseline="ideographic" textLength="20" lengthAdjust="spacingAndGlyphs" style="text-transform: none; font-family: &quot;Font Awesome 6 Pro&quot;; letter-spacing: normal; font-style: normal; font-weight: 400; white-space: pre; font-size: 16px; text-decoration: none; direction: ltr; fill: rgb(27, 182, 104); fill-opacity: 1;">hospital</text></g></g></g><g id="shape-d80ec607-0806-8081-8007-f84a6aa1cffe" rx="0" ry="0" style="display: none; fill: rgb(0, 0, 0);"><g id="shape-d80ec607-0806-8081-8007-f84a6aaa26a4" style="display: none;"><g class="fills" id="fills-d80ec607-0806-8081-8007-f84a6aaa26a4"><rect width="18" height="16" x="10" transform="matrix(1.000000, 0.000000, 0.000000, 1.000000, 0.000000, 0.000000)" style="fill: none;" ry="0" fill="none" rx="0" y="10"/></g></g><g id="shape-d80ec607-0806-8081-8007-f84a6aaaa4d6"><g class="fills" id="fills-d80ec607-0806-8081-8007-f84a6aaaa4d6"><path d="M15.5,10C14.396484375,10,13.5,10.89697265625,13.5,12L13.5,14L12,14C10.896484375,14,10,14.89697265625,10,16L10,24C10,25.10302734375,10.896484375,26,12,26L26,26C27.103515625,26,28,25.10302734375,28,24L28,16C28,14.89697265625,27.103515625,14,26,14L24.5,14L24.5,12C24.5,10.89697265625,23.603515625,10,22.5,10L15.5,10ZM26,25L21,25L21,22.5C21,21.671875,20.328125,21,19.5,21L18.5,21C17.671875,21,17,21.671875,17,22.5L17,25L12,25C11.447265625,25,11,24.55322265625,11,24L11,16C11,15.44677734375,11.447265625,15,12,15L14,15C14.275390625,15,14.5,14.77490234375,14.5,14.5L14.5,12C14.5,11.44677734375,14.947265625,11,15.5,11L22.5,11C23.052734375,11,23.5,11.44677734375,23.5,12L23.5,14.5C23.5,14.77490234375,23.724609375,15,24,15L26,15C26.552734375,15,27,15.44677734375,27,16L27,24C27,24.55322265625,26.552734375,25,26,25ZM20,25L18,25L18,22.5C18,22.22509765625,18.224609375,22,18.5,22L19.5,22C19.775390625,22,20,22.22509765625,20,22.5L20,25ZM12.75,20.25L12.75,20.75C12.75,21.02490234375,12.974609375,21.25,13.25,21.25L13.75,21.25C14.025390625,21.25,14.25,21.02490234375,14.25,20.75L14.25,20.25C14.25,19.97509765625,14.025390625,19.75,13.75,19.75L13.25,19.75C12.974609375,19.75,12.75,19.97509765625,12.75,20.25ZM13.25,16.75C12.974609375,16.75,12.75,16.97509765625,12.75,17.25L12.75,17.75C12.75,18.02490234375,12.974609375,18.25,13.25,18.25L13.75,18.25C14.025390625,18.25,14.25,18.02490234375,14.25,17.75L14.25,17.25C14.25,16.97509765625,14.025390625,16.75,13.75,16.75L13.25,16.75ZM23.75,20.25L23.75,20.75C23.75,21.02490234375,23.974609375,21.25,24.25,21.25L24.75,21.25C25.025390625,21.25,25.25,21.02490234375,25.25,20.75L25.25,20.25C25.25,19.97509765625,25.025390625,19.75,24.75,19.75L24.25,19.75C23.974609375,19.75,23.75,19.97509765625,23.75,20.25ZM24.25,16.75C23.974609375,16.75,23.75,16.97509765625,23.75,17.25L23.75,17.75C23.75,18.02490234375,23.974609375,18.25,24.25,18.25L24.75,18.25C25.025390625,18.25,25.25,18.02490234375,25.25,17.75L25.25,17.25C25.25,16.97509765625,25.025390625,16.75,24.75,16.75L24.25,16.75ZM18.5,13L18.5,14L17.5,14C17.224609375,14,17,14.22509765625,17,14.5C17,14.77490234375,17.224609375,15,17.5,15L18.5,15L18.5,16C18.5,16.27490234375,18.724609375,16.5,19,16.5C19.275390625,16.5,19.5,16.27490234375,19.5,16L19.5,15L20.5,15C20.775390625,15,21,14.77490234375,21,14.5C21,14.22509765625,20.775390625,14,20.5,14L19.5,14L19.5,13C19.5,12.72509765625,19.275390625,12.5,19,12.5C18.724609375,12.5,18.5,12.72509765625,18.5,13Z" style="fill: rgb(0, 0, 0);"/></g></g></g><g id="shape-d80ec607-0806-8081-8007-f84a83fc764b" rx="0" ry="0" style="fill: rgb(0, 0, 0);"><g id="shape-d80ec607-0806-8081-8007-f84a840583ab" style="display: none;"><g class="fills" id="fills-d80ec607-0806-8081-8007-f84a840583ab"><rect width="18" height="16" x="9" transform="matrix(1.000000, 0.000000, 0.000000, 1.000000, 0.000000, 0.000000)" style="fill: none;" ry="0" fill="none" rx="0" y="10"/></g></g><g id="shape-d80ec607-0806-8081-8007-f84a8405d6bb"><g class="fills" id="fills-d80ec607-0806-8081-8007-f84a8405d6bb"><path d="M14.5,10C13.396484375,10,12.5,10.89697265625,12.5,12L12.5,13.5L11,13.5C9.896484375,13.5,9,14.39697265625,9,15.5L9,24C9,25.10302734375,9.896484375,26,11,26L25,26C26.103515625,26,27,25.10302734375,27,24L27,15.5C27,14.39697265625,26.103515625,13.5,25,13.5L23.5,13.5L23.5,12C23.5,10.89697265625,22.603515625,10,21.5,10L14.5,10ZM14,12C14,11.72509765625,14.224609375,11.5,14.5,11.5L21.5,11.5C21.775390625,11.5,22,11.72509765625,22,12L22,14.25C22,14.66552734375,22.333984375,15,22.75,15L25,15C25.275390625,15,25.5,15.22509765625,25.5,15.5L25.5,24C25.5,24.27490234375,25.275390625,24.5,25,24.5L19.5,24.5L19.5,22C19.5,21.44677734375,19.052734375,21,18.5,21L17.5,21C16.947265625,21,16.5,21.44677734375,16.5,22L16.5,24.5L11,24.5C10.724609375,24.5,10.5,24.27490234375,10.5,24L10.5,15.5C10.5,15.22509765625,10.724609375,15,11,15L13.25,15C13.666015625,15,14,14.66552734375,14,14.25L14,12ZM12.5,17C12.224609375,17,12,17.22509765625,12,17.5L12,18.5C12,18.77490234375,12.224609375,19,12.5,19L13.5,19C13.775390625,19,14,18.77490234375,14,18.5L14,17.5C14,17.22509765625,13.775390625,17,13.5,17L12.5,17ZM12,20.5L12,21.5C12,21.77490234375,12.224609375,22,12.5,22L13.5,22C13.775390625,22,14,21.77490234375,14,21.5L14,20.5C14,20.22509765625,13.775390625,20,13.5,20L12.5,20C12.224609375,20,12,20.22509765625,12,20.5ZM22,20.5L22,21.5C22,21.77490234375,22.224609375,22,22.5,22L23.5,22C23.775390625,22,24,21.77490234375,24,21.5L24,20.5C24,20.22509765625,23.775390625,20,23.5,20L22.5,20C22.224609375,20,22,20.22509765625,22,20.5ZM22.5,17C22.224609375,17,22,17.22509765625,22,17.5L22,18.5C22,18.77490234375,22.224609375,19,22.5,19L23.5,19C23.775390625,19,24,18.77490234375,24,18.5L24,17.5C24,17.22509765625,23.775390625,17,23.5,17L22.5,17ZM17.25,13.25L17.25,14.25L16.25,14.25C15.974609375,14.25,15.75,14.47509765625,15.75,14.75L15.75,15.25C15.75,15.52490234375,15.974609375,15.75,16.25,15.75L17.25,15.75L17.25,16.75C17.25,17.02490234375,17.474609375,17.25,17.75,17.25L18.25,17.25C18.525390625,17.25,18.75,17.02490234375,18.75,16.75L18.75,15.75L19.75,15.75C20.025390625,15.75,20.25,15.52490234375,20.25,15.25L20.25,14.75C20.25,14.47509765625,20.025390625,14.25,19.75,14.25L18.75,14.25L18.75,13.25C18.75,12.97509765625,18.525390625,12.75,18.25,12.75L17.75,12.75C17.474609375,12.75,17.25,12.97509765625,17.25,13.25Z" style="fill: rgb(27, 182, 104); fill-opacity: 1;"/></g></g></g></g></g></g></g></g></g></g></g></g><g id="strokes-814948ed-1a89-8074-8007-f84f842be577-d80ec607-0806-8081-8007-f84a2118a6a4" class="strokes"><g class="inner-stroke-shape" transform="matrix(1.000000, 0.000000, 0.000000, 1.000000, 0.000000, 0.000000)"><defs><clipPath id="inner-stroke-render-1-d80ec607-0806-8081-8007-f84a2118a6a4-0"><use href="#stroke-shape-render-1-d80ec607-0806-8081-8007-f84a2118a6a4-0"/></clipPath><rect width="36" height="36" class="frame-background" x="0" id="stroke-shape-render-1-d80ec607-0806-8081-8007-f84a2118a6a4-0" style="fill: none; stroke-width: 2; stroke: rgb(27, 182, 104); stroke-opacity: 1;" ry="18" rx="18" y="0"/></defs><use href="#stroke-shape-render-1-d80ec607-0806-8081-8007-f84a2118a6a4-0" clip-path="url('#inner-stroke-render-1-d80ec607-0806-8081-8007-f84a2118a6a4-0')"/></g></g></g></g></g></svg>