<svg width="36" xmlns="http://www.w3.org/2000/svg" height="36" id="screenshot-d80ec607-0806-8081-8007-f84ab82638fd" viewBox="0 0 36 36" xmlns:xlink="http://www.w3.org/1999/xlink" fill="none" version="1.1"><style>@font-face {
    font-family: 'Font Awesome 6 Pro';
    font-style: normal;
    font-weight: 400;
    font-display: block;
    src: url(http://penpot-frontend:8080/assets/by-id/4ed145cd-9270-4543-9317-2b5c1c9b3bb8) format('woff');
  }</style><g id="shape-d80ec607-0806-8081-8007-f84ab82638fd"><g class="frame-container-wrapper" opacity="1"><g class="frame-container-blur"><g class="frame-container-shadows"><g fill="none"><g class="fills" id="fills-d80ec607-0806-8081-8007-f84ab82638fd"><rect width="36" height="36" class="frame-background" x="0" transform="matrix(1.000000, 0.000000, 0.000000, 1.000000, 0.000000, 0.000000)" style="fill: rgb(255, 255, 255); fill-opacity: 1;" ry="18" rx="18" y="0"/></g><g class="frame-children"><g id="shape-d80ec607-0806-8081-8007-f84e2b589498"><g class="fills" id="fills-d80ec607-0806-8081-8007-f84e2b589498"><ellipse cx="18" cy="18" rx="18" ry="18" transform="matrix(1.000000, 0.000000, 0.000000, 1.000000, 0.000000, 0.000000)"/></g><g id="strokes-3e5bee4c-832b-80d2-8007-f84f9c05caa8-d80ec607-0806-8081-8007-f84e2b589498" class="strokes"><g class="inner-stroke-shape" transform="matrix(1.000000, 0.000000, 0.000000, 1.000000, 0.000000, 0.000000)"><defs><clipPath id="inner-stroke-render-2-d80ec607-0806-8081-8007-f84e2b589498-0"><use href="#stroke-shape-render-2-d80ec607-0806-8081-8007-f84e2b589498-0"/></clipPath><ellipse cx="18" cy="18" rx="18" ry="18" id="stroke-shape-render-2-d80ec607-0806-8081-8007-f84e2b589498-0" style="fill: none; stroke-width: 2; stroke: rgb(27, 182, 104); stroke-opacity: 1;"/></defs><use href="#stroke-shape-render-2-d80ec607-0806-8081-8007-f84e2b589498-0" clip-path="url('#inner-stroke-render-2-d80ec607-0806-8081-8007-f84e2b589498-0')"/></g></g></g><g id="shape-d80ec607-0806-8081-8007-f84ab82638ff"><g class="frame-container-wrapper" opacity="1"><g class="frame-container-blur"><g class="frame-container-shadows"><g fill="none"><g class="fills" id="fills-d80ec607-0806-8081-8007-f84ab82638ff"><rect rx="0" ry="0" x="10" y="10" width="16" height="16" transform="matrix(1.000000, 0.000000, 0.000000, 1.000000, 0.000000, 0.000000)" class="frame-background"/></g><g class="frame-children"><g id="shape-d80ec607-0806-8081-8007-f84ab8263900" style="opacity: 1; display: none;"><g transform="matrix(1.000000, 0.000000, 0.000000, 1.000000, 0.000000, 0.000000)" class="text-container" x="-1" y="8" width="20" height="20" rx="0" ry="0"><defs><pattern patternUnits="objectBoundingBox" width="20" height="16" id="fill-0-render-4-0"><g><rect width="20" height="16" style="fill: rgb(27, 182, 104); fill-opacity: 1;"/></g></pattern></defs><g class="fills" id="fills-d80ec607-0806-8081-8007-f84ab8263900"><text x="-1" y="25.8984375" dominant-baseline="ideographic" textLength="20" lengthAdjust="spacingAndGlyphs" style="text-transform: none; font-family: &quot;Font Awesome 6 Pro&quot;; letter-spacing: normal; font-style: normal; font-weight: 400; white-space: pre; font-size: 16px; text-decoration: none; direction: ltr; fill: rgb(27, 182, 104); fill-opacity: 1;">hospital</text></g></g></g><g id="shape-d80ec607-0806-8081-8007-f84ab8263904" rx="0" ry="0" style="fill: rgb(0, 0, 0);"><g id="shape-d80ec607-0806-8081-8007-f84ab8263906"><g class="fills" id="fills-d80ec607-0806-8081-8007-f84ab8263906"><path d="M14.5,10C13.396484375,10,12.5,10.89697265625,12.5,12L12.5,13.5L11,13.5C9.896484375,13.5,9,14.39697265625,9,15.5L9,24C9,25.10302734375,9.896484375,26,11,26L25,26C26.103515625,26,27,25.10302734375,27,24L27,15.5C27,14.39697265625,26.103515625,13.5,25,13.5L23.5,13.5L23.5,12C23.5,10.89697265625,22.603515625,10,21.5,10L14.5,10ZM14,12C14,11.72509765625,14.224609375,11.5,14.5,11.5L21.5,11.5C21.775390625,11.5,22,11.72509765625,22,12L22,14.25C22,14.66552734375,22.333984375,15,22.75,15L25,15C25.275390625,15,25.5,15.22509765625,25.5,15.5L25.5,24C25.5,24.27490234375,25.275390625,24.5,25,24.5L19.5,24.5L19.5,22C19.5,21.44677734375,19.052734375,21,18.5,21L17.5,21C16.947265625,21,16.5,21.44677734375,16.5,22L16.5,24.5L11,24.5C10.724609375,24.5,10.5,24.27490234375,10.5,24L10.5,15.5C10.5,15.22509765625,10.724609375,15,11,15L13.25,15C13.666015625,15,14,14.66552734375,14,14.25L14,12ZM12.5,17C12.224609375,17,12,17.22509765625,12,17.5L12,18.5C12,18.77490234375,12.224609375,19,12.5,19L13.5,19C13.775390625,19,14,18.77490234375,14,18.5L14,17.5C14,17.22509765625,13.775390625,17,13.5,17L12.5,17ZM12,20.5L12,21.5C12,21.77490234375,12.224609375,22,12.5,22L13.5,22C13.775390625,22,14,21.77490234375,14,21.5L14,20.5C14,20.22509765625,13.775390625,20,13.5,20L12.5,20C12.224609375,20,12,20.22509765625,12,20.5ZM22,20.5L22,21.5C22,21.77490234375,22.224609375,22,22.5,22L23.5,22C23.775390625,22,24,21.77490234375,24,21.5L24,20.5C24,20.22509765625,23.775390625,20,23.5,20L22.5,20C22.224609375,20,22,20.22509765625,22,20.5ZM22.5,17C22.224609375,17,22,17.22509765625,22,17.5L22,18.5C22,18.77490234375,22.224609375,19,22.5,19L23.5,19C23.775390625,19,24,18.77490234375,24,18.5L24,17.5C24,17.22509765625,23.775390625,17,23.5,17L22.5,17ZM17.25,13.25L17.25,14.25L16.25,14.25C15.974609375,14.25,15.75,14.47509765625,15.75,14.75L15.75,15.25C15.75,15.52490234375,15.974609375,15.75,16.25,15.75L17.25,15.75L17.25,16.75C17.25,17.02490234375,17.474609375,17.25,17.75,17.25L18.25,17.25C18.525390625,17.25,18.75,17.02490234375,18.75,16.75L18.75,15.75L19.75,15.75C20.025390625,15.75,20.25,15.52490234375,20.25,15.25L20.25,14.75C20.25,14.47509765625,20.025390625,14.25,19.75,14.25L18.75,14.25L18.75,13.25C18.75,12.97509765625,18.525390625,12.75,18.25,12.75L17.75,12.75C17.474609375,12.75,17.25,12.97509765625,17.25,13.25Z" style="fill: rgb(27, 182, 104); fill-opacity: 1;"/></g></g></g></g></g></g></g></g></g><g id="shape-d80ec607-0806-8081-8007-f84da272a3cb"><g class="frame-container-wrapper" opacity="1"><g class="frame-container-blur"><g class="frame-container-shadows"><g fill="none"><g class="fills" id="fills-d80ec607-0806-8081-8007-f84da272a3cb"><rect width="18" height="17.99999999999818" class="frame-background" x="18" transform="matrix(1.000000, 0.000000, 0.000000, 1.000000, 0.000000, 0.000000)" style="fill: rgb(255, 255, 255); fill-opacity: 1;" ry="8.99999999999909" rx="8.99999999999909" y="0"/></g><g class="frame-children"><g id="shape-d80ec607-0806-8081-8007-f84da272a3d0"><g class="frame-container-wrapper" opacity="1"><g class="frame-container-blur"><g class="frame-container-shadows"><g fill="none"><g class="fills" id="fills-d80ec607-0806-8081-8007-f84da272a3d0"><rect rx="0" ry="0" x="22.999999999996362" y="4.9999999999990905" width="7.999999999996362" height="8" transform="matrix(1.000000, 0.000000, 0.000000, 1.000000, 0.000000, 0.000000)" class="frame-background"/></g><g class="frame-children"><g id="shape-d80ec607-0806-8081-8007-f84da272a3d1" style="opacity: 1; display: none;"><g transform="matrix(1.000000, 0.000000, 0.000000, 1.000000, 0.000000, 0.000000)" class="text-container" x="18.7018934777916" y="4.2499999999990905" width="8" height="10" rx="0" ry="0"><defs><pattern patternUnits="objectBoundingBox" width="7.84375" height="8" id="fill-0-render-9-0"><g><rect width="7.84375" height="8" style="fill: rgb(0, 61, 165); fill-opacity: 1;"/></g></pattern></defs><g class="fills" id="fills-d80ec607-0806-8081-8007-f84da272a3d1"><text x="18.7018934777916" y="13.04687499999909" dominant-baseline="ideographic" textLength="7.84375" lengthAdjust="spacingAndGlyphs" style="text-transform: none; font-family: &quot;Font Awesome 6 Pro&quot;; letter-spacing: normal; font-style: normal; font-weight: 400; white-space: pre; font-size: 7.84207px; text-decoration: none; direction: ltr; fill: rgb(0, 61, 165); fill-opacity: 1;"></text></g></g></g><g id="shape-d80ec607-0806-8081-8007-f84da272a3d2" rx="0" ry="0" style="fill: rgb(0, 0, 0);"><g id="shape-d80ec607-0806-8081-8007-f84da272a3d3" style="display: none;"><g class="fills" id="fills-d80ec607-0806-8081-8007-f84da272a3d3"><rect width="8.5962130444168" height="7.641078261704024" x="22.7018934777916" transform="matrix(1.000000, 0.000000, 0.000000, 1.000000, 0.000000, 0.000000)" style="fill: none;" ry="0" fill="none" rx="0" y="5.358921738295976"/></g></g><g id="shape-d80ec607-0806-8081-8007-f84da272a3d4"><g class="fills" id="fills-d80ec607-0806-8081-8007-f84da272a3d4"><path d="M30.12890625,5.10498046875C29.98828125,4.96533203125,29.76171875,4.96533203125,29.623046875,5.10498046875C29.482421875,5.24560546875,29.482421875,5.47216796875,29.623046875,5.61083984375L29.845703125,5.83544921875L29.158203125,6.52294921875L28.216796875,5.5830078125C28.076171875,5.4423828125,27.8515625,5.4423828125,27.7109375,5.5830078125C27.57421875,5.72314453125,27.5703125,5.9501953125,27.7109375,6.0888671875L27.81640625,6.19287109375C26.029296875,7.98095703125,24.505859375,9.50390625,24.38671875,9.62109375C24.23046875,9.77734375,24.14453125,9.98974609375,24.14453125,10.21240234375L24.14453125,11.537109375L23.29296875,12.3876953125C23.15234375,12.5283203125,23.15234375,12.7548828125,23.29296875,12.89404296875C23.43359375,13.03271484375,23.66015625,13.0341796875,23.798828125,12.89404296875L24.650390625,12.0439453125L25.974609375,12.0439453125C26.197265625,12.0439453125,26.408203125,11.955078125,26.564453125,11.79833984375L29.994140625,8.37060546875L30.099609375,8.4755859375C30.240234375,8.615234375,30.46484375,8.615234375,30.60546875,8.4755859375C30.7421875,8.3349609375,30.74609375,8.107421875,30.60546875,7.96875L29.6640625,7.0283203125L30.3515625,6.3408203125L30.57421875,6.56494140625C30.71484375,6.70556640625,30.943359375,6.70556640625,31.080078125,6.56494140625C31.220703125,6.4248046875,31.220703125,6.19775390625,31.080078125,6.05908203125L30.126953125,5.103515625ZM29.48828125,7.8662109375L26.05859375,11.2939453125C26.037109375,11.31689453125,26.0078125,11.32861328125,25.974609375,11.32861328125L24.861328125,11.32861328125L24.861328125,10.21337890625C24.861328125,10.1826171875,24.87109375,10.1513671875,24.892578125,10.12841796875L25.455078125,9.56591796875L25.798828125,9.9091796875C25.939453125,10.04931640625,26.16796875,10.04931640625,26.3046875,9.9091796875C26.4453125,9.7685546875,26.4453125,9.5419921875,26.3046875,9.40380859375L25.9609375,9.06005859375L26.888671875,8.13330078125L27.232421875,8.4765625C27.373046875,8.61669921875,27.599609375,8.61669921875,27.73828125,8.4765625C27.876953125,8.3359375,27.87890625,8.109375,27.73828125,7.97119140625L27.39453125,7.62744140625L28.322265625,6.70068359375C28.708984375,7.0888671875,29.09765625,7.4765625,29.48828125,7.8662109375Z" style="fill: rgb(0, 61, 165); fill-opacity: 1;"/></g></g></g></g></g></g></g></g></g></g></g></g><g id="strokes-3e5bee4c-832b-80d2-8007-f84f9c0c156b-d80ec607-0806-8081-8007-f84da272a3cb" class="strokes"><g class="inner-stroke-shape" transform="matrix(1.000000, 0.000000, 0.000000, 1.000000, 0.000000, 0.000000)"><defs><clipPath id="inner-stroke-render-7-d80ec607-0806-8081-8007-f84da272a3cb-0"><use href="#stroke-shape-render-7-d80ec607-0806-8081-8007-f84da272a3cb-0"/></clipPath><rect width="18" height="17.99999999999818" class="frame-background" x="18" id="stroke-shape-render-7-d80ec607-0806-8081-8007-f84da272a3cb-0" style="fill: none; stroke-width: 2; stroke: rgb(0, 61, 165); stroke-opacity: 1;" ry="8.99999999999909" rx="8.99999999999909" y="0"/></defs><use href="#stroke-shape-render-7-d80ec607-0806-8081-8007-f84da272a3cb-0" clip-path="url('#inner-stroke-render-7-d80ec607-0806-8081-8007-f84da272a3cb-0')"/></g></g></g></g></g></g></g></g></g></g></g></svg>