<svg width="36.25" xmlns="http://www.w3.org/2000/svg" height="29" id="screenshot-354ae4a0-6ade-8042-8007-ef580ab9bbd0" viewBox="-3.125 0 36.25 29" xmlns:xlink="http://www.w3.org/1999/xlink" fill="none" version="1.1"><g id="shape-354ae4a0-6ade-8042-8007-ef580ab9bbd0"><g class="frame-container-wrapper"><g class="frame-container-blur"><g class="frame-container-shadows"><g fill="none"><g class="fills" id="fills-354ae4a0-6ade-8042-8007-ef580ab9bbd0"><rect rx="0" ry="0" x="0" y="0" width="30" height="29" transform="matrix(1.000000, 0.000000, 0.000000, 1.000000, 0.000000, 0.000000)" class="frame-background"/></g><g class="frame-children"><g id="shape-354ae4a0-6ade-8042-8007-ef580ab9bbd2" rx="0" ry="0" style="fill: rgb(0, 0, 0);"><g id="shape-354ae4a0-6ade-8042-8007-ef580ab9bbd3" style="display: none;"><g class="fills" id="fills-354ae4a0-6ade-8042-8007-ef580ab9bbd3"><rect width="36.25" height="29" x="-3.125" transform="matrix(1.000000, 0.000000, 0.000000, 1.000000, 0.000000, 0.000000)" style="fill: none;" ry="0" fill="none" rx="0" y="0"/></g></g><g id="shape-354ae4a0-6ade-8042-8007-ef580ab9bbd4"><g class="fills" id="fills-354ae4a0-6ade-8042-8007-ef580ab9bbd4"><path d="M5.9375,4.53125L27.6875,4.53125C28.1875,4.53125,28.59375,4.939453125,28.59375,5.4375L28.59375,7.07470703125C26.96875,8.0146484375,25.875,9.7705078125,25.875,11.78125C25.875,13.7919921875,26.96875,15.55322265625,28.59375,16.48779296875L28.59375,18.125C28.59375,18.623046875,28.1875,19.03125,27.6875,19.03125L5.9375,19.03125C5.4375,19.03125,5.03125,18.623046875,5.03125,18.125L5.03125,16.48779296875C6.65625,15.5478515625,7.75,13.7919921875,7.75,11.78125C7.75,9.7705078125,6.65625,8.00927734375,5.03125,7.07470703125L5.03125,5.4375C5.03125,4.939453125,5.4375,4.53125,5.9375,4.53125ZM5.9375,1.8125C3.9375,1.8125,2.3125,3.4384765625,2.3125,5.4375L2.3125,8.15625C2.3125,8.654296875,2.73046875,9.0458984375,3.201171875,9.20947265625C4.265625,9.57763671875,5.03125,10.591796875,5.03125,11.78125C5.03125,12.970703125,4.265625,13.98486328125,3.201171875,14.35302734375C2.73046875,14.5166015625,2.3125,14.908203125,2.3125,15.40625L2.3125,18.125C2.3125,20.1240234375,3.9375,21.75,5.9375,21.75L27.6875,21.75C29.6875,21.75,31.3125,20.1240234375,31.3125,18.125L31.3125,15.40625C31.3125,14.908203125,30.89453125,14.5166015625,30.423828125,14.35302734375C29.359375,13.98486328125,28.59375,12.970703125,28.59375,11.78125C28.59375,10.591796875,29.359375,9.57763671875,30.423828125,9.20947265625C30.89453125,9.0458984375,31.3125,8.654296875,31.3125,8.15625L31.3125,5.4375C31.3125,3.4384765625,29.6875,1.8125,27.6875,1.8125L5.9375,1.8125ZM-1.765625,7.25C-2.51953125,7.25,-3.125,7.8564453125,-3.125,8.609375L-3.125,23.109375C-3.125,25.36328125,-1.302734375,27.1875,0.953125,27.1875L24.515625,27.1875C25.26953125,27.1875,25.875,26.5810546875,25.875,25.828125C25.875,25.0751953125,25.26953125,24.46875,24.515625,24.46875L0.953125,24.46875C0.19921875,24.46875,-0.40625,23.8623046875,-0.40625,23.109375L-0.40625,8.609375C-0.40625,7.8564453125,-1.01171875,7.25,-1.765625,7.25ZM20.4375,13.59375L13.1875,13.59375L13.1875,9.96875L20.4375,9.96875L20.4375,13.59375ZM10.46875,9.515625L10.46875,14.046875C10.46875,15.29833984375,11.48046875,16.3125,12.734375,16.3125L20.890625,16.3125C22.14453125,16.3125,23.15625,15.29833984375,23.15625,14.046875L23.15625,9.515625C23.15625,8.26416015625,22.14453125,7.25,20.890625,7.25L12.734375,7.25C11.48046875,7.25,10.46875,8.26416015625,10.46875,9.515625Z" style="fill: rgb(27, 182, 104); fill-opacity: 1;"/></g></g></g></g></g></g></g></g></g></svg>