<svg width="30" xmlns="http://www.w3.org/2000/svg" height="29" id="screenshot-354ae4a0-6ade-8042-8007-ef580a29f07c" viewBox="0 0 30 29" xmlns:xlink="http://www.w3.org/1999/xlink" fill="none" version="1.1"><g id="shape-354ae4a0-6ade-8042-8007-ef580a29f07c"><g class="frame-container-wrapper"><g class="frame-container-blur"><g class="frame-container-shadows"><g fill="none"><g class="fills" id="fills-354ae4a0-6ade-8042-8007-ef580a29f07c"><rect rx="0" ry="0" x="0" y="0" width="30" height="29" transform="matrix(1.000000, 0.000000, 0.000000, 1.000000, 0.000000, 0.000000)" class="frame-background"/></g><g class="frame-children"><g id="shape-354ae4a0-6ade-8042-8007-ef5830d4d3d0" rx="0" ry="0" style="fill: rgb(0, 0, 0);"><g id="shape-354ae4a0-6ade-8042-8007-ef5830d78775" style="display: none;"><g class="fills" id="fills-354ae4a0-6ade-8042-8007-ef5830d78775"><rect width="29" height="29" x="0.5" transform="matrix(1.000000, 0.000000, 0.000000, 1.000000, 0.000000, 0.000000)" style="fill: none;" ry="0" fill="none" rx="0" y="0"/></g></g><g id="shape-354ae4a0-6ade-8042-8007-ef5830d7e767"><g class="fills" id="fills-354ae4a0-6ade-8042-8007-ef5830d7e767"><path d="M26.78125,14.5C26.78125,7.9931640625,21.505859375,2.71875,15,2.71875C8.494140625,2.71875,3.21875,7.9931640625,3.21875,14.5C3.21875,21.0068359375,8.494140625,26.28125,15,26.28125C21.505859375,26.28125,26.78125,21.0068359375,26.78125,14.5ZM0.5,14.5C0.5,6.49169921875,6.9921875,0,15,0C23.0078125,0,29.5,6.49169921875,29.5,14.5C29.5,22.50830078125,23.0078125,29,15,29C6.9921875,29,0.5,22.50830078125,0.5,14.5ZM16.359375,6.796875L16.359375,14.08642578125L19.7578125,19.18408203125C20.177734375,19.80712890625,20.0078125,20.6513671875,19.37890625,21.0703125C18.75,21.4892578125,17.912109375,21.3193359375,17.4921875,20.69091796875L13.8671875,15.25341796875C13.720703125,15.0322265625,13.640625,14.76611328125,13.640625,14.5L13.640625,6.796875C13.640625,6.04345703125,14.24609375,5.4375,15,5.4375C15.75390625,5.4375,16.359375,6.04345703125,16.359375,6.796875Z" style="fill: rgb(27, 182, 104); fill-opacity: 1;"/></g></g></g></g></g></g></g></g></g></svg>