<svg width="36" xmlns="http://www.w3.org/2000/svg" height="36" id="screenshot-968aef07-4904-80cf-8007-eb3f4320e4eb" viewBox="0 0 36 36" xmlns:xlink="http://www.w3.org/1999/xlink" fill="none" version="1.1"><style>@font-face {
    font-family: 'Font Awesome 6 Pro';
    font-style: normal;
    font-weight: 400;
    font-display: block;
    src: url(http://penpot-frontend:8080/assets/by-id/4ed145cd-9270-4543-9317-2b5c1c9b3bb8) format('woff');
  }</style><g id="shape-968aef07-4904-80cf-8007-eb3f4320e4eb"><g class="frame-container-wrapper" opacity="1"><g class="frame-container-blur"><g class="frame-container-shadows"><g fill="none"><g class="fills" id="fills-968aef07-4904-80cf-8007-eb3f4320e4eb"><rect width="36" height="36" class="frame-background" x="0" transform="matrix(1.000000, 0.000000, 0.000000, 1.000000, 0.000000, 0.000000)" style="fill: rgb(0, 61, 165); fill-opacity: 0.25;" ry="18" rx="18" y="0"/></g><g class="frame-children"><g id="shape-968aef07-4904-80cf-8007-eb3f4320e4ec"><g class="frame-container-wrapper" opacity="1"><g class="frame-container-blur"><g class="frame-container-shadows"><g fill="none"><g class="fills" id="fills-968aef07-4904-80cf-8007-eb3f4320e4ec"><rect rx="0" ry="0" x="10" y="10" width="16" height="16" transform="matrix(1.000000, 0.000000, 0.000000, 1.000000, 0.000000, 0.000000)" class="frame-background"/></g><g class="frame-children"><g id="shape-968aef07-4904-80cf-8007-eb3f4320e4ed" style="opacity: 1; display: none;"><g transform="matrix(1.000000, 0.000000, 0.000000, 1.000000, 0.000000, 0.000000)" class="text-container" x="1.5294117647063104" y="8" width="16" height="20" rx="0" ry="0"><defs><pattern patternUnits="objectBoundingBox" width="16" height="16" id="fill-0-render-3-0"><g><rect width="16" height="16" style="fill: rgb(0, 61, 165); fill-opacity: 1;"/></g></pattern></defs><g class="fills" id="fills-968aef07-4904-80cf-8007-eb3f4320e4ed"><text x="1.5294117647063104" y="25.8984375" dominant-baseline="ideographic" textLength="16" lengthAdjust="spacingAndGlyphs" style="text-transform: none; font-family: &quot;Font Awesome 6 Pro&quot;; letter-spacing: normal; font-style: normal; font-weight: 400; white-space: pre; font-size: 16px; text-decoration: none; direction: ltr; fill: rgb(0, 61, 165); fill-opacity: 1;">location</text></g></g></g><g id="shape-968aef07-4904-80cf-8007-eb40694e6bbc" rx="0" ry="0" style="fill: rgb(0, 0, 0);"><g id="shape-968aef07-4904-80cf-8007-eb406952d956" style="display: none;"><g class="fills" id="fills-968aef07-4904-80cf-8007-eb406952d956"><rect width="16.94117647058738" height="15.058823529411711" x="9.52941176470631" transform="matrix(1.000000, 0.000000, 0.000000, 1.000000, 0.000000, 0.000000)" style="fill: none;" ry="0" fill="none" rx="0" y="10.47058823529369"/></g></g><g id="shape-968aef07-4904-80cf-8007-eb4069535999"><g class="fills" id="fills-968aef07-4904-80cf-8007-eb4069535999"><path d="M18,10C18.390625,10,18.705078125,10.31494140625,18.705078125,10.7060546875L18.705078125,11.4501953125C21.78125,11.7763671875,24.22265625,14.220703125,24.548828125,17.29443359375L25.29296875,17.29443359375C25.685546875,17.29443359375,26,17.6083984375,26,18C26,18.3916015625,25.685546875,18.70556640625,25.29296875,18.70556640625L24.548828125,18.70556640625C24.22265625,21.779296875,21.78125,24.2236328125,18.705078125,24.5498046875L18.705078125,25.2939453125C18.705078125,25.68505859375,18.390625,26,18,26C17.609375,26,17.294921875,25.68505859375,17.294921875,25.2939453125L17.294921875,24.5498046875C14.21875,24.2236328125,11.77734375,21.779296875,11.451171875,18.70556640625L10.70703125,18.70556640625C10.314453125,18.70556640625,10,18.3916015625,10,18C10,17.6083984375,10.314453125,17.29443359375,10.70703125,17.29443359375L11.451171875,17.29443359375C11.77734375,14.220703125,14.21875,11.7763671875,17.294921875,11.4501953125L17.294921875,10.7060546875C17.294921875,10.31494140625,17.609375,10,18,10ZM23.17578125,18C23.17578125,15.14111328125,20.857421875,12.82373046875,18,12.82373046875C15.142578125,12.82373046875,12.82421875,15.14111328125,12.82421875,18C12.82421875,20.85888671875,15.142578125,23.17626953125,18,23.17626953125C20.857421875,23.17626953125,23.17578125,20.85888671875,23.17578125,18ZM19.8828125,18C19.8828125,16.96044921875,19.041015625,16.11767578125,18,16.11767578125C16.958984375,16.11767578125,16.1171875,16.96044921875,16.1171875,18C16.1171875,19.03955078125,16.958984375,19.88232421875,18,19.88232421875C19.041015625,19.88232421875,19.8828125,19.03955078125,19.8828125,18ZM14.705078125,18C14.705078125,16.1806640625,16.1796875,14.70556640625,18,14.70556640625C19.8203125,14.70556640625,21.294921875,16.1806640625,21.294921875,18C21.294921875,19.8193359375,19.8203125,21.29443359375,18,21.29443359375C16.1796875,21.29443359375,14.705078125,19.8193359375,14.705078125,18Z" style="fill: rgb(0, 61, 165); fill-opacity: 1;"/></g></g></g></g></g></g></g></g></g></g></g></g></g></g></g></svg>