<svg width="17.192" xmlns="http://www.w3.org/2000/svg" height="16" id="screenshot-968aef07-4904-80cf-8007-eb3f432027d7" viewBox="-0.596 0 17.192 16" xmlns:xlink="http://www.w3.org/1999/xlink" fill="none" version="1.1"><style>@font-face {
    font-family: 'Font Awesome 6 Pro';
    font-style: normal;
    font-weight: 400;
    font-display: block;
    src: url(http://penpot-frontend:8080/assets/by-id/4ed145cd-9270-4543-9317-2b5c1c9b3bb8) format('woff');
  }</style><g id="shape-968aef07-4904-80cf-8007-eb3f432027d7"><g class="frame-container-wrapper" opacity="1"><g class="frame-container-blur"><g class="frame-container-shadows"><g fill="none"><g class="fills" id="fills-968aef07-4904-80cf-8007-eb3f432027d7"><rect rx="0" ry="0" x="0" y="0" width="16" height="16" transform="matrix(1.000000, 0.000000, 0.000000, 1.000000, 0.000000, 0.000000)" class="frame-background"/></g><g class="frame-children"><g id="shape-968aef07-4904-80cf-8007-eb3f432027d8" style="opacity: 1; display: none;"><g transform="matrix(1.000000, 0.000000, 0.000000, 1.000000, 0.000000, 0.000000)" class="text-container" x="-8.5962130444168" y="-1.5" width="16" height="20" rx="0" ry="0"><defs><pattern patternUnits="objectBoundingBox" width="16" height="16" id="fill-0-render-2-0"><g><rect width="16" height="16" style="fill: rgb(0, 61, 165); fill-opacity: 1;"/></g></pattern></defs><g class="fills" id="fills-968aef07-4904-80cf-8007-eb3f432027d8"><text x="-8.5962130444168" y="16.3984375" dominant-baseline="ideographic" textLength="16" lengthAdjust="spacingAndGlyphs" style="text-transform: none; font-family: &quot;Font Awesome 6 Pro&quot;; letter-spacing: normal; font-style: normal; font-weight: 400; white-space: pre; font-size: 16px; text-decoration: none; direction: ltr; fill: rgb(0, 61, 165); fill-opacity: 1;"></text></g></g></g><g id="shape-968aef07-4904-80cf-8007-eb4101047741" rx="0" ry="0" style="fill: rgb(0, 0, 0);"><g id="shape-968aef07-4904-80cf-8007-eb41010912e8" style="display: none;"><g class="fills" id="fills-968aef07-4904-80cf-8007-eb41010912e8"><rect width="17.1924260888336" height="15.282156523406229" x="-0.5962130444167997" transform="matrix(1.000000, 0.000000, 0.000000, 1.000000, 0.000000, 0.000000)" style="fill: none;" ry="0" fill="none" rx="0" y="0.7178434765937709"/></g></g><g id="shape-968aef07-4904-80cf-8007-eb41010912e9"><g class="fills" id="fills-968aef07-4904-80cf-8007-eb41010912e9"><path d="M14.25390625,0.21044921875C13.97265625,-0.0703125,13.51953125,-0.0703125,13.2421875,0.21044921875C12.962890625,0.4912109375,12.9609375,0.94482421875,13.2421875,1.22216796875L13.689453125,1.669921875L12.3125,3.0458984375L10.431640625,1.16552734375C10.15234375,0.884765625,9.69921875,0.884765625,9.419921875,1.16552734375C9.142578125,1.4462890625,9.140625,1.89990234375,9.419921875,2.17724609375L9.62890625,2.38623046875C6.0546875,5.9619140625,3.009765625,9.0068359375,2.7734375,9.2421875C2.4609375,9.5556640625,2.283203125,9.9794921875,2.283203125,10.42431640625L2.283203125,13.07470703125L0.58203125,14.7763671875C0.302734375,15.056640625,0.302734375,15.51025390625,0.58203125,15.7880859375C0.86328125,16.0654296875,1.31640625,16.06884765625,1.59375,15.7880859375L3.296875,14.0869140625L5.947265625,14.0869140625C6.390625,14.0869140625,6.814453125,13.91064453125,7.12890625,13.59716796875L13.984375,6.7412109375L14.193359375,6.9501953125C14.474609375,7.23046875,14.927734375,7.23046875,15.205078125,6.9501953125C15.482421875,6.66943359375,15.486328125,6.2158203125,15.205078125,5.9384765625L13.32421875,4.0576171875L14.701171875,2.681640625L15.1484375,3.12939453125C15.4296875,3.41015625,15.8828125,3.41015625,16.16015625,3.12939453125C16.4375,2.84912109375,16.44140625,2.3955078125,16.16015625,2.11767578125L14.25,0.20751953125ZM12.97265625,5.732421875L6.1171875,12.58837890625C6.072265625,12.63330078125,6.01171875,12.6572265625,5.947265625,12.6572265625L3.716796875,12.6572265625L3.716796875,10.42724609375C3.716796875,10.36474609375,3.740234375,10.30224609375,3.78515625,10.25732421875L4.91015625,9.1318359375L5.59765625,9.818359375C5.876953125,10.09912109375,6.33203125,10.09912109375,6.609375,9.818359375C6.88671875,9.5380859375,6.890625,9.083984375,6.609375,8.806640625L5.921875,8.1201171875L7.775390625,6.2666015625L8.462890625,6.953125C8.744140625,7.23388671875,9.197265625,7.23388671875,9.474609375,6.953125C9.751953125,6.67236328125,9.755859375,6.21875,9.474609375,5.94140625L8.787109375,5.2548828125L10.640625,3.4013671875C11.41796875,4.17724609375,12.193359375,4.953125,12.97265625,5.732421875Z" style="fill: rgb(0, 61, 165); fill-opacity: 1;"/></g></g></g></g></g></g></g></g></g></svg>