<svg width="36" xmlns="http://www.w3.org/2000/svg" height="36" id="screenshot-968aef07-4904-80cf-8007-eb3f432027d6" viewBox="0 0 36 36" xmlns:xlink="http://www.w3.org/1999/xlink" fill="none" version="1.1"><style>@font-face {
    font-family: 'Font Awesome 6 Pro';
    font-style: normal;
    font-weight: 400;
    font-display: block;
    src: url(http://penpot-frontend:8080/assets/by-id/4ed145cd-9270-4543-9317-2b5c1c9b3bb8) format('woff');
  }</style><g id="shape-968aef07-4904-80cf-8007-eb3f432027d6"><g class="frame-container-wrapper" opacity="1"><g class="frame-container-blur"><g class="frame-container-shadows"><g fill="none"><g class="fills" id="fills-968aef07-4904-80cf-8007-eb3f432027d6"><rect width="36" height="36" class="frame-background" x="0" transform="matrix(1.000000, 0.000000, 0.000000, 1.000000, 0.000000, 0.000000)" style="fill: rgb(255, 255, 255); fill-opacity: 1;" ry="18" rx="18" y="0"/></g><g class="frame-children"><g id="shape-968aef07-4904-80cf-8007-eb3f432027d7"><g class="frame-container-wrapper" opacity="1"><g class="frame-container-blur"><g class="frame-container-shadows"><g fill="none"><g class="fills" id="fills-968aef07-4904-80cf-8007-eb3f432027d7"><rect rx="0" ry="0" x="10" y="10" width="16" height="16" transform="matrix(1.000000, 0.000000, 0.000000, 1.000000, 0.000000, 0.000000)" class="frame-background"/></g><g class="frame-children"><g id="shape-968aef07-4904-80cf-8007-eb3f432027d8" style="opacity: 1; display: none;"><g transform="matrix(1.000000, 0.000000, 0.000000, 1.000000, 0.000000, 0.000000)" class="text-container" x="1.4037869555832003" y="8.5" width="16" height="20" rx="0" ry="0"><defs><pattern patternUnits="objectBoundingBox" width="16" height="16" id="fill-0-render-3-0"><g><rect width="16" height="16" style="fill: rgb(0, 61, 165); fill-opacity: 1;"/></g></pattern></defs><g class="fills" id="fills-968aef07-4904-80cf-8007-eb3f432027d8"><text x="1.4037869555832003" y="26.3984375" dominant-baseline="ideographic" textLength="16" lengthAdjust="spacingAndGlyphs" style="text-transform: none; font-family: &quot;Font Awesome 6 Pro&quot;; letter-spacing: normal; font-style: normal; font-weight: 400; white-space: pre; font-size: 16px; text-decoration: none; direction: ltr; fill: rgb(0, 61, 165); fill-opacity: 1;"></text></g></g></g><g id="shape-968aef07-4904-80cf-8007-eb4101047741" rx="0" ry="0" style="fill: rgb(0, 0, 0);"><g id="shape-968aef07-4904-80cf-8007-eb41010912e8" style="display: none;"><g class="fills" id="fills-968aef07-4904-80cf-8007-eb41010912e8"><rect width="17.1924260888336" height="15.282156523406229" x="9.4037869555832" transform="matrix(1.000000, 0.000000, 0.000000, 1.000000, 0.000000, 0.000000)" style="fill: none;" ry="0" fill="none" rx="0" y="10.717843476593771"/></g></g><g id="shape-968aef07-4904-80cf-8007-eb41010912e9"><g class="fills" id="fills-968aef07-4904-80cf-8007-eb41010912e9"><path d="M24.25390625,10.21044921875C23.97265625,9.9296875,23.51953125,9.9296875,23.2421875,10.21044921875C22.962890625,10.4912109375,22.9609375,10.94482421875,23.2421875,11.22216796875L23.689453125,11.669921875L22.3125,13.0458984375L20.431640625,11.16552734375C20.15234375,10.884765625,19.69921875,10.884765625,19.419921875,11.16552734375C19.142578125,11.4462890625,19.140625,11.89990234375,19.419921875,12.17724609375L19.62890625,12.38623046875C16.0546875,15.9619140625,13.009765625,19.0068359375,12.7734375,19.2421875C12.4609375,19.5556640625,12.283203125,19.9794921875,12.283203125,20.42431640625L12.283203125,23.07470703125L10.58203125,24.7763671875C10.302734375,25.056640625,10.302734375,25.51025390625,10.58203125,25.7880859375C10.86328125,26.0654296875,11.31640625,26.06884765625,11.59375,25.7880859375L13.296875,24.0869140625L15.947265625,24.0869140625C16.390625,24.0869140625,16.814453125,23.91064453125,17.12890625,23.59716796875L23.984375,16.7412109375L24.193359375,16.9501953125C24.474609375,17.23046875,24.927734375,17.23046875,25.205078125,16.9501953125C25.482421875,16.66943359375,25.486328125,16.2158203125,25.205078125,15.9384765625L23.32421875,14.0576171875L24.701171875,12.681640625L25.1484375,13.12939453125C25.4296875,13.41015625,25.8828125,13.41015625,26.16015625,13.12939453125C26.4375,12.84912109375,26.44140625,12.3955078125,26.16015625,12.11767578125L24.25,10.20751953125ZM22.97265625,15.732421875L16.1171875,22.58837890625C16.072265625,22.63330078125,16.01171875,22.6572265625,15.947265625,22.6572265625L13.716796875,22.6572265625L13.716796875,20.42724609375C13.716796875,20.36474609375,13.740234375,20.30224609375,13.78515625,20.25732421875L14.91015625,19.1318359375L15.59765625,19.818359375C15.876953125,20.09912109375,16.33203125,20.09912109375,16.609375,19.818359375C16.88671875,19.5380859375,16.890625,19.083984375,16.609375,18.806640625L15.921875,18.1201171875L17.775390625,16.2666015625L18.462890625,16.953125C18.744140625,17.23388671875,19.197265625,17.23388671875,19.474609375,16.953125C19.751953125,16.67236328125,19.755859375,16.21875,19.474609375,15.94140625L18.787109375,15.2548828125L20.640625,13.4013671875C21.41796875,14.17724609375,22.193359375,14.953125,22.97265625,15.732421875Z" style="fill: rgb(0, 61, 165); fill-opacity: 1;"/></g></g></g></g></g></g></g></g></g></g></g></g><g id="strokes-9b35ed44-0404-800d-8007-eb45b8c51404-968aef07-4904-80cf-8007-eb3f432027d6" class="strokes"><g class="inner-stroke-shape" transform="matrix(1.000000, 0.000000, 0.000000, 1.000000, 0.000000, 0.000000)"><defs><clipPath id="inner-stroke-render-1-968aef07-4904-80cf-8007-eb3f432027d6-0"><use href="#stroke-shape-render-1-968aef07-4904-80cf-8007-eb3f432027d6-0"/></clipPath><rect width="36" height="36" class="frame-background" x="0" id="stroke-shape-render-1-968aef07-4904-80cf-8007-eb3f432027d6-0" style="fill: none; stroke-width: 2; stroke: rgb(0, 61, 165); stroke-opacity: 1;" ry="18" rx="18" y="0"/></defs><use href="#stroke-shape-render-1-968aef07-4904-80cf-8007-eb3f432027d6-0" clip-path="url('#inner-stroke-render-1-968aef07-4904-80cf-8007-eb3f432027d6-0')"/></g></g></g></g></g></svg>