
<svg version="1.1" id="Layer_1" xmlns="http://www.w3.org/2000/svg" xmlns:xlink="http://www.w3.org/1999/xlink" x="0px" y="0px"
	 viewBox="0 0 64 46.2" style="enable-background:new 0 0 64 46.2;" xml:space="preserve">
<style type="text/css">
	.st0{fill:#0A2F47;}
	.st1{fill:#FFFFFF;}
	.st2{fill:#0A2F47;stroke:#0A2F47;stroke-width:0.4988;stroke-miterlimit:10;}
	.st3{fill:#03ABCD;}
</style>
<g>
	<path class="st0" d="M36.9,7.9c-1-0.6-2.2-0.6-3.1,0.1c-0.9,0.6-1.4,1.8-1.2,2.9l1.8-0.4c-0.1-0.3,0.1-0.8,0.4-0.9
		c0.3-0.2,0.8-0.2,1.1,0c0.3,0.2,0.5,0.6,0.4,0.9l1.8,0.4C38.4,9.7,37.9,8.5,36.9,7.9L36.9,7.9z"/>
	<path class="st1" d="M35.1,1.7L35.1,1.7c-0.4,0.1-0.7,0.5-0.6,0.9v2.8c0,0.5,0.4,1,0.9,1c0.5,0,1-0.4,0.9-1V2.7
		C36.4,2,35.7,1.5,35.1,1.7z"/>
	<path class="st1" d="M40.8,3.6L40.8,3.6c-0.1,0.1-0.3,0.1-0.4,0.2l-1.9,1.9c-0.4,0.3-0.5,1-0.1,1.4c0.4,0.4,1,0.4,1.4,0l1.9-1.9
		C42.5,4.5,41.7,3.3,40.8,3.6L40.8,3.6z"/>
	<path class="st1" d="M29.4,3.6L29.4,3.6c-0.7,0.2-0.9,1.1-0.4,1.6L31,7.1c0.4,0.4,1,0.5,1.4,0c0.4-0.4,0.3-1.1-0.1-1.4l-1.9-1.9
		C30.1,3.6,29.7,3.5,29.4,3.6z"/>
	<path class="st1" d="M5.7,10.3v29.3h49.8c0,0,1.9-10-1-13.7c-3-3.9-10.9-15.6-10.9-15.6H5.7z"/>
	<polyline class="st2" points="54.4,25.9 43.6,25.9 43.6,10.3 	"/>
	<rect x="5.7" y="13.3" class="st0" width="3.1" height="22.4"/>
	<path class="st3" d="M24.9,16.5c3.4,0,6.6,3.2,6.6,6.6c0,3.4-3.2,6.6-6.6,6.6c-3.4,0-6.6-3.2-6.6-6.6
		C18.3,19.7,21.5,16.5,24.9,16.5z M24.9,14.6c-4.5,0-8.5,4-8.5,8.5c0,4.5,4,8.5,8.5,8.5c4.5,0,8.5-4,8.5-8.5
		C33.4,18.5,29.4,14.6,24.9,14.6z"/>
	<path class="st0" d="M24.6,18.3L24.6,18.3c-0.4,0.1-0.7,0.5-0.6,0.9v7.5c0,0.5,0.4,1,0.9,1c0.5,0,1-0.4,0.9-1v-7.5
		C25.9,18.6,25.2,18.1,24.6,18.3z"/>
	<path class="st0" d="M20.8,22.1L20.8,22.1c-1.3,0.2-1,2.1,0.3,1.9h7.6c0.5,0,1-0.4,1-0.9c0-0.5-0.4-1-1-0.9h-7.6
		C21,22.1,20.9,22.1,20.8,22.1z"/>
	<circle class="st3" cx="43.6" cy="41" r="3.9"/>
	<circle class="st3" cx="16.7" cy="41" r="3.9"/>
</g>
</svg>
