<svg width="500" height="162" viewBox="0 0 500 162" fill="none" xmlns="http://www.w3.org/2000/svg">
<path d="M97.0689 1.14917H61.6887V161.974H174.393V129.807H97.0689V1.14917Z" fill="#252135"/>
<path d="M35.3831 1.14795H0V161.973H35.3831V1.14795Z" fill="#252135"/>
<path d="M122.844 62.3174H161.507V87.3107H122.844V62.3174Z" fill="#252135"/>
<path d="M335.469 81.1021C335.469 39.5224 305.994 6.86581 262.011 1.82691V34.3319C284.217 39.0967 298.479 57.2227 298.479 81.5599V82.0207C298.479 110.507 278.95 130.039 250 130.039H222.662V1.15039H187.282V161.972H250C300.546 161.972 335.469 126.823 335.469 81.5599V81.1021Z" fill="#252135"/>
<path d="M392.938 94.6573L414.304 42.5041L435.669 94.6573H392.938ZM431.077 0H398.452L329.526 161.974H365.597L380.303 125.903H448.307L463.01 161.974H500L431.077 0Z" fill="#252135"/>
</svg>
