<svg width="740" height="360" viewBox="0 0 740 360" fill="none" xmlns="http://www.w3.org/2000/svg">
<g id="logo/data_uruguay" clip-path="url(#clip0_0_34)">
<g id="logo_data">
<g id="Uruguay">
<path id="Fill-6" fill-rule="evenodd" clip-rule="evenodd" d="M443.169 351.035C440.384 348.096 438.994 344.208 438.994 339.371V318.183H448.231V339.475C448.231 341.911 448.882 343.756 450.188 345.008C451.492 346.261 453.292 346.886 455.589 346.886C457.884 346.886 459.676 346.261 460.963 345.008C462.251 343.756 462.894 341.911 462.894 339.475V318.183H472.132V339.371C472.132 344.242 470.749 348.139 467.982 351.061C465.217 353.983 461.085 355.444 455.589 355.444C450.091 355.444 445.951 353.975 443.169 351.035Z" fill="#0063F6"/>
<path id="Fill-7" fill-rule="evenodd" clip-rule="evenodd" d="M500.207 335.457C502.05 335.457 503.477 335.101 504.487 334.387C505.495 333.674 506 332.448 506 330.708C506 328.899 505.504 327.655 504.512 326.977C503.52 326.298 502.085 325.959 500.207 325.959H494.675V335.457H500.207ZM485.438 318.183H501.825C506.103 318.183 509.452 319.262 511.871 321.419C514.288 323.576 515.498 326.672 515.498 330.708C515.498 333.421 514.905 335.735 513.723 337.649C512.54 339.562 510.87 340.988 508.713 341.928L515.184 354.661H505.686L499.895 343.233H494.675V354.661H485.438V318.183Z" fill="#0063F6"/>
<path id="Fill-8" fill-rule="evenodd" clip-rule="evenodd" d="M531.936 351.035C529.151 348.096 527.761 344.208 527.761 339.371V318.183H536.998V339.475C536.998 341.911 537.649 343.756 538.955 345.008C540.259 346.261 542.059 346.886 544.356 346.886C546.651 346.886 548.443 346.261 549.73 345.008C551.018 343.756 551.661 341.911 551.661 339.475V318.183H560.899V339.371C560.899 344.242 559.516 348.139 556.749 351.061C553.984 353.983 549.853 355.444 544.356 355.444C538.858 355.444 534.718 353.975 531.936 351.035Z" fill="#0063F6"/>
<path id="Fill-9" fill-rule="evenodd" clip-rule="evenodd" d="M582.583 353.148C579.573 351.618 577.25 349.417 575.616 346.546C573.981 343.677 573.163 340.31 573.163 336.449C573.163 332.587 573.981 329.22 575.616 326.35C577.25 323.481 579.573 321.271 582.583 319.723C585.591 318.175 589.08 317.401 593.046 317.401C595.689 317.401 598.03 317.654 600.065 318.157C602.101 318.662 603.986 319.471 605.728 320.585V329.351C604.197 328.134 602.465 327.255 600.535 326.715C598.604 326.176 596.385 325.907 593.88 325.907C591.724 325.907 589.803 326.334 588.115 327.186C586.426 328.04 585.096 329.265 584.123 330.865C583.149 332.465 582.662 334.327 582.662 336.449C582.662 339.754 583.627 342.364 585.558 344.277C587.488 346.191 590.106 347.147 593.411 347.147C595.255 347.147 596.803 346.835 598.056 346.208V340.363H592.472V333.891H606.824V352.052C603.101 354.314 598.507 355.444 593.046 355.444C589.08 355.444 585.591 354.679 582.583 353.148Z" fill="#0063F6"/>
<path id="Fill-10" fill-rule="evenodd" clip-rule="evenodd" d="M623.262 351.035C620.477 348.096 619.087 344.208 619.087 339.371V318.183H628.324V339.475C628.324 341.911 628.975 343.756 630.281 345.008C631.585 346.261 633.385 346.886 635.682 346.886C637.977 346.886 639.769 346.261 641.056 345.008C642.344 343.756 642.987 341.911 642.987 339.475V318.183H652.225V339.371C652.225 344.242 650.842 348.139 648.075 351.061C645.31 353.983 641.179 355.444 635.682 355.444C630.184 355.444 626.044 353.975 623.262 351.035Z" fill="#0063F6"/>
<path id="Fill-11" fill-rule="evenodd" clip-rule="evenodd" d="M684.685 340.049L680.248 327.785L675.761 340.049H684.685ZM675.708 318.183H684.789L699.349 354.661H689.903L686.981 347.147H673.517L670.595 354.661H661.096L675.708 318.183Z" fill="#0063F6"/>
<path id="Fill-12" fill-rule="evenodd" clip-rule="evenodd" d="M716.989 340.781L703.524 318.183H713.388L721.633 332.326L730.243 318.183H740.055L726.225 340.781V354.662H716.989V340.781Z" fill="#0063F6"/>
</g>
<g id="Data">
<path id="Fill-1" fill-rule="evenodd" clip-rule="evenodd" d="M83.895 206.364C99.726 206.364 111.909 201.428 120.445 191.558C128.975 181.689 133.245 168.223 133.245 151.154C133.245 135.939 128.926 123.294 120.291 113.216C111.653 103.143 99.827 98.1021 84.82 98.1021H66.462C65.017 98.1021 63.845 99.2741 63.845 100.718V203.747C63.845 205.192 65.017 206.364 66.462 206.364H83.895ZM0 53.6541C0 48.5621 4.127 44.4351 9.219 44.4351H79.885C103.736 44.4351 124.555 48.7531 142.343 57.3891C160.126 66.0251 173.904 78.4161 183.674 94.5551C193.437 110.701 198.324 129.563 198.324 151.154C198.324 186.931 187.73 214.026 166.555 232.426C145.375 250.831 116.28 260.031 79.268 260.031H9.219C4.127 260.031 0 255.904 0 250.812V53.6541Z" fill="#0063F6"/>
<path id="Fill-2" fill-rule="evenodd" clip-rule="evenodd" d="M326.356 225.203C333.113 222.05 338.462 217.707 342.411 212.172C342.728 211.727 342.891 211.188 342.891 210.642V196.025C342.891 195.134 342.44 194.291 341.69 193.811C330.053 186.363 317.314 182.634 303.488 182.634C293.637 182.634 286.076 184.69 280.796 188.791C275.519 192.897 272.88 198.937 272.88 206.908C272.88 214.417 275.459 220.162 280.62 224.146C285.778 228.138 293.164 230.128 302.784 230.128C311.459 230.128 319.32 228.49 326.356 225.203ZM237.877 249.653C224.859 239.22 218.351 224.972 218.351 206.908C218.351 188.147 224.563 173.548 236.997 163.108C249.427 152.675 267.017 147.453 289.769 147.453C299.851 147.453 309.471 148.508 318.617 150.619C326.19 152.367 333.043 154.681 339.168 157.554C340.906 158.367 342.891 157.111 342.891 155.193C342.891 144.639 339.135 136.898 331.632 131.973C324.125 127.049 312.635 124.585 297.154 124.585C281.142 124.585 266.116 126.914 252.081 131.573C246.214 133.52 240.163 129.183 240.163 123.002V103.672C240.163 99.864 242.531 96.426 246.123 95.164C252.605 92.888 260.351 90.91 269.363 89.229C281.325 87.003 293.286 85.886 305.248 85.886C335.733 85.886 358.486 92.164 373.499 104.708C388.505 117.258 396.015 134.788 396.015 157.304V250.98C396.015 255.979 391.962 260.031 386.964 260.031H355.108C350.11 260.031 346.058 255.979 346.058 250.98V250.374C346.058 248.174 343.502 246.951 341.8 248.347C328.01 259.657 310.195 265.308 288.361 265.308C267.719 265.308 250.894 260.087 237.877 249.653Z" fill="#0063F6"/>
<path id="Fill-3" fill-rule="evenodd" clip-rule="evenodd" d="M517.843 224.146C508.223 224.146 501.539 221.98 497.789 217.638C494.034 213.301 492.16 206.204 492.16 196.354V132.127C492.16 130.682 493.331 129.51 494.777 129.51H522.766C527.818 129.51 531.914 125.415 531.914 120.363V94.827C531.914 89.775 527.818 85.679 522.766 85.679H494.777C493.331 85.679 492.16 84.508 492.16 83.063V53.148C492.16 48.095 488.064 44 483.012 44H449.227C444.224 44 440.149 48.02 440.081 53.023L439.635 85.679H423.558C418.507 85.679 414.411 89.775 414.411 94.827V120.363C414.411 125.415 418.507 129.51 423.558 129.51H436.421C437.866 129.51 439.037 130.682 439.037 132.127V203.389C439.037 222.86 444.138 238.043 454.342 248.949C464.543 259.855 479.497 265.308 499.196 265.308C512.606 265.308 524.141 263.742 533.799 260.612C537.528 259.403 540.008 255.867 540.008 251.947V231.743C540.008 225.856 534.513 221.44 528.796 222.837C525.226 223.71 521.575 224.146 517.843 224.146Z" fill="#0063F6"/>
<path id="Fill-4" fill-rule="evenodd" clip-rule="evenodd" d="M669.428 225.203C676.186 222.05 681.534 217.707 685.483 212.172C685.8 211.727 685.963 211.188 685.963 210.642V196.025C685.963 195.134 685.513 194.291 684.762 193.811C673.125 186.363 660.386 182.634 646.561 182.634C636.71 182.634 629.147 184.69 623.868 188.791C618.592 192.897 615.953 198.937 615.953 206.908C615.953 214.417 618.532 220.162 623.692 224.146C628.85 228.138 636.237 230.128 645.856 230.128C654.532 230.128 662.391 228.49 669.428 225.203ZM580.949 249.653C567.931 239.22 561.424 224.972 561.424 206.908C561.424 188.147 567.635 173.548 580.069 163.108C592.499 152.675 610.089 147.453 632.841 147.453C642.923 147.453 652.543 148.508 661.689 150.619C669.263 152.367 676.114 154.681 682.241 157.554C683.978 158.367 685.963 157.111 685.963 155.193C685.963 144.639 682.208 136.898 674.705 131.973C667.197 127.049 655.707 124.585 640.227 124.585C624.214 124.585 609.189 126.914 595.153 131.573C589.286 133.52 583.236 129.183 583.236 123.002V103.672C583.236 99.864 585.603 96.426 589.195 95.164C595.676 92.888 603.424 90.91 612.436 89.229C624.397 87.003 636.358 85.886 648.321 85.886C678.805 85.886 701.557 92.164 716.571 104.708C731.577 117.258 739.087 134.788 739.087 157.304V250.98C739.087 255.979 735.035 260.031 730.037 260.031H698.18C693.182 260.031 689.13 255.979 689.13 250.98V250.374C689.13 248.174 686.574 246.951 684.873 248.347C671.083 259.657 653.268 265.308 631.433 265.308C610.791 265.308 593.965 260.087 580.949 249.653Z" fill="#0063F6"/>
<path id="Fill-5" fill-rule="evenodd" clip-rule="evenodd" d="M395.239 317.063H221.501C217.81 317.063 214.818 314.071 214.818 310.38V290.703C214.818 287.011 217.81 284.019 221.501 284.019H395.239C398.93 284.019 401.922 287.011 401.922 290.703V310.38C401.922 314.071 398.93 317.063 395.239 317.063Z" fill="#0063F6"/>
</g>
</g>
</g>
<defs>
<clipPath id="clip0_0_34">
<rect width="740" height="360" fill="white"/>
</clipPath>
</defs>
</svg>
